M48
;GenerationSoftware,Autodesk,EAGLE,9.6.2*%
;CreationDate,2022-07-20T17:29:58Z*%
FMAT,2
ICI,OFF
METRIC,TZ,000.000
T6C0.350
T5C0.813
T4C1.016
T3C1.200
T2C1.500
T1C2.250
%
G90
M71
T1
X8128Y8128
X2286Y52578
X21336Y52324
X71882Y52324
X89000Y14000
X88900Y52070
T2
X70936Y35864
X73436Y40864
X73436Y30864
X83636Y30864
X83636Y40864
T3
X93700Y27750
X93700Y35250
X93700Y42750
X88064Y5214
X95564Y5214
X73078Y5214
X80578Y5214
X58092Y5214
X65592Y5214
X43106Y5214
X50606Y5214
X35634Y5200
X28134Y5200
T4
X75438Y19558
X75438Y17018
X75438Y14478
X66548Y19558
X66548Y17018
X66548Y14478
X57658Y19558
X57658Y17018
X57658Y14478
X48768Y19558
X48768Y17018
X48768Y14478
X39878Y19558
X39878Y17018
X39878Y14478
X74168Y48768
X84328Y14478
X84328Y17018
X84328Y19558
X93726Y14224
X93726Y16764
X93726Y19304
X7620Y3810
X10160Y3810
X12700Y3810
X15240Y3810
X17780Y3810
X20320Y3810
X19304Y48768
X16764Y48768
X14224Y48768
X11684Y48768
X9144Y48768
X6604Y48768
X86868Y48768
X84328Y48768
X81788Y48768
X79248Y48768
X76708Y48768
T5
X27432Y27940
X51308Y25146
X63770Y27500
X63770Y24960
X27432Y15240
X32512Y15240
X29972Y15240
X3810Y18542
X11430Y18542
X3810Y21336
X3810Y23876
X3810Y16002
X11430Y16002
X3810Y11430
X11430Y11430
X3810Y13716
X11430Y13716
X63770Y30040
X65000Y42310
X65000Y34690
X27432Y21590
X32512Y21590
X29972Y21590
X15494Y18542
X23114Y18542
X15494Y21336
X15494Y23876
X15494Y16002
X23114Y16002
X15494Y11176
X23114Y11176
X15494Y13716
X23114Y13716
X46736Y43180
X54356Y43180
X54356Y45466
X46736Y45466
X32512Y27940
X29972Y27940
X3810Y34798
X11430Y34798
X3810Y37338
X3810Y39878
X3810Y32512
X11430Y32512
X3810Y27940
X11430Y27940
X3810Y30226
X11430Y30226
X46736Y40894
X54356Y40894
X54356Y34036
X44958Y25146
X44958Y30226
X44958Y27686
X15748Y34798
X23368Y34798
X15748Y37846
X15748Y40386
X15748Y30226
X23368Y30226
X15748Y27940
X23368Y27940
X15748Y32512
X23368Y32512
X54356Y36576
X46736Y38608
X54356Y38608
X38608Y27686
X51308Y30226
X51308Y27686
X42672Y38608
X35052Y38608
X42672Y36068
X42672Y33528
X42672Y40894
X35052Y40894
X42672Y45720
X35052Y45720
X42672Y43434
X35052Y43434
X38608Y30226
X38608Y25146
X23368Y42926
X57912Y25146
X57912Y30226
X57912Y27686
X30988Y38354
X23368Y38354
X30988Y35814
X30988Y33274
X30988Y40640
X23368Y40640
X23368Y45212
X30988Y45212
X30988Y42926
T6
X8000Y30000
X25000Y48500
X27000Y46500
X29500Y33000
X19500Y19500
X22500Y22500
X33000Y26000
X40500Y21000
X29000Y25500
X26000Y36000
X26000Y44500
X20500Y36000
X18000Y33500
X38500Y39000
X39000Y29000
X33000Y32500
X24500Y36000
X17500Y28000
X21000Y26500
X22500Y21000
X24500Y21500
X28000Y19500
X10000Y22500
X23500Y23500
X27500Y10500
X36500Y16500
X33000Y36500
X20500Y10500
X18000Y7500
X11000Y23500
X7516Y12500
X19000Y44500
X21500Y36500
X36500Y26500
X34000Y29000
X44500Y36500
X48500Y34500
X19000Y24500
X24500Y24500
X34000Y25000
M30