G04 EAGLE Gerber RS-274X export*
G75*
%MOMM*%
%FSLAX34Y34*%
%LPD*%
%INTop Copper*%
%IPPOS*%
%AMOC8*
5,1,8,0,0,1.08239X$1,22.5*%
G01*
%ADD10C,1.524000*%
%ADD11C,1.320800*%
%ADD12C,1.600200*%
%ADD13P,1.732040X8X112.500000*%
%ADD14P,1.814519X8X22.500000*%
%ADD15P,1.732040X8X292.500000*%
%ADD16P,1.814519X8X202.500000*%
%ADD17C,1.800000*%
%ADD18C,2.250000*%
%ADD19C,0.812800*%
%ADD20C,0.406400*%
%ADD21C,0.756400*%
%ADD22C,0.508000*%
%ADD23C,1.270000*%

G36*
X73228Y9985D02*
X73228Y9985D01*
X73301Y9987D01*
X73349Y10005D01*
X73400Y10013D01*
X73464Y10046D01*
X73532Y10071D01*
X73572Y10103D01*
X73617Y10127D01*
X73667Y10180D01*
X73724Y10225D01*
X73752Y10268D01*
X73787Y10305D01*
X73818Y10371D01*
X73857Y10432D01*
X73870Y10482D01*
X73891Y10528D01*
X73899Y10600D01*
X73917Y10671D01*
X73913Y10721D01*
X73919Y10772D01*
X73904Y10843D01*
X73898Y10916D01*
X73878Y10963D01*
X73867Y11013D01*
X73830Y11075D01*
X73802Y11142D01*
X73758Y11197D01*
X73742Y11224D01*
X73724Y11240D01*
X73697Y11273D01*
X23750Y61220D01*
X21443Y63527D01*
X21443Y151473D01*
X27970Y158000D01*
X28023Y158074D01*
X28083Y158144D01*
X28095Y158174D01*
X28114Y158200D01*
X28141Y158287D01*
X28175Y158372D01*
X28179Y158413D01*
X28186Y158435D01*
X28185Y158467D01*
X28193Y158539D01*
X28193Y164124D01*
X33996Y169927D01*
X42204Y169927D01*
X48007Y164124D01*
X48007Y155916D01*
X42204Y150113D01*
X33996Y150113D01*
X32608Y151502D01*
X32592Y151513D01*
X32580Y151529D01*
X32517Y151569D01*
X32468Y151611D01*
X32441Y151622D01*
X32408Y151645D01*
X32389Y151651D01*
X32373Y151662D01*
X32289Y151683D01*
X32240Y151703D01*
X32211Y151706D01*
X32173Y151718D01*
X32153Y151717D01*
X32134Y151722D01*
X32094Y151719D01*
X32073Y151721D01*
X32066Y151721D01*
X32020Y151714D01*
X31927Y151711D01*
X31909Y151704D01*
X31889Y151703D01*
X31848Y151685D01*
X31824Y151681D01*
X31774Y151655D01*
X31696Y151627D01*
X31681Y151614D01*
X31663Y151606D01*
X31624Y151576D01*
X31606Y151566D01*
X31587Y151546D01*
X31532Y151502D01*
X28780Y148750D01*
X28727Y148676D01*
X28667Y148606D01*
X28655Y148576D01*
X28636Y148550D01*
X28609Y148463D01*
X28575Y148378D01*
X28571Y148337D01*
X28564Y148315D01*
X28565Y148283D01*
X28557Y148211D01*
X28557Y143465D01*
X28568Y143394D01*
X28570Y143322D01*
X28588Y143273D01*
X28596Y143222D01*
X28630Y143159D01*
X28655Y143091D01*
X28687Y143051D01*
X28712Y143005D01*
X28764Y142955D01*
X28808Y142899D01*
X28852Y142871D01*
X28890Y142835D01*
X28955Y142805D01*
X29015Y142766D01*
X29066Y142754D01*
X29113Y142732D01*
X29184Y142724D01*
X29254Y142706D01*
X29306Y142710D01*
X29357Y142705D01*
X29428Y142720D01*
X29499Y142725D01*
X29547Y142746D01*
X29598Y142757D01*
X29659Y142794D01*
X29725Y142822D01*
X29781Y142866D01*
X29809Y142883D01*
X29824Y142901D01*
X29856Y142926D01*
X33996Y147067D01*
X42204Y147067D01*
X48007Y141264D01*
X48007Y139318D01*
X48010Y139298D01*
X48008Y139279D01*
X48030Y139177D01*
X48046Y139075D01*
X48056Y139058D01*
X48060Y139038D01*
X48113Y138949D01*
X48162Y138858D01*
X48176Y138844D01*
X48186Y138827D01*
X48265Y138760D01*
X48340Y138688D01*
X48358Y138680D01*
X48373Y138667D01*
X48469Y138628D01*
X48563Y138585D01*
X48583Y138583D01*
X48601Y138575D01*
X48768Y138557D01*
X91473Y138557D01*
X107472Y122558D01*
X107488Y122547D01*
X107500Y122531D01*
X107588Y122475D01*
X107671Y122415D01*
X107690Y122409D01*
X107707Y122398D01*
X107808Y122373D01*
X107906Y122342D01*
X107926Y122343D01*
X107946Y122338D01*
X108049Y122346D01*
X108152Y122349D01*
X108171Y122356D01*
X108191Y122357D01*
X108286Y122398D01*
X108383Y122433D01*
X108399Y122446D01*
X108417Y122454D01*
X108548Y122558D01*
X110196Y124207D01*
X118404Y124207D01*
X124207Y118404D01*
X124207Y110196D01*
X122558Y108548D01*
X122547Y108532D01*
X122531Y108520D01*
X122475Y108432D01*
X122415Y108348D01*
X122409Y108329D01*
X122398Y108313D01*
X122373Y108212D01*
X122342Y108113D01*
X122343Y108093D01*
X122338Y108074D01*
X122346Y107971D01*
X122349Y107867D01*
X122356Y107849D01*
X122357Y107829D01*
X122398Y107734D01*
X122433Y107636D01*
X122446Y107621D01*
X122454Y107603D01*
X122558Y107472D01*
X141250Y88780D01*
X141324Y88727D01*
X141394Y88667D01*
X141424Y88655D01*
X141450Y88636D01*
X141537Y88609D01*
X141622Y88575D01*
X141663Y88571D01*
X141685Y88564D01*
X141717Y88565D01*
X141789Y88557D01*
X228211Y88557D01*
X228302Y88571D01*
X228392Y88579D01*
X228422Y88591D01*
X228454Y88596D01*
X228535Y88639D01*
X228619Y88675D01*
X228651Y88701D01*
X228672Y88712D01*
X228694Y88735D01*
X228750Y88780D01*
X276338Y136368D01*
X276380Y136426D01*
X276429Y136478D01*
X276451Y136525D01*
X276481Y136567D01*
X276502Y136636D01*
X276533Y136701D01*
X276538Y136753D01*
X276554Y136803D01*
X276552Y136874D01*
X276560Y136945D01*
X276549Y136996D01*
X276547Y137048D01*
X276523Y137116D01*
X276507Y137186D01*
X276481Y137231D01*
X276463Y137279D01*
X276418Y137335D01*
X276381Y137397D01*
X276342Y137431D01*
X276309Y137471D01*
X276249Y137510D01*
X276194Y137557D01*
X276146Y137576D01*
X276102Y137604D01*
X276033Y137622D01*
X275966Y137649D01*
X275895Y137657D01*
X275864Y137665D01*
X275840Y137663D01*
X275799Y137667D01*
X272703Y137667D01*
X269715Y138905D01*
X267429Y141191D01*
X266191Y144179D01*
X266191Y159323D01*
X266180Y159394D01*
X266178Y159466D01*
X266160Y159515D01*
X266152Y159566D01*
X266118Y159630D01*
X266093Y159697D01*
X266061Y159738D01*
X266036Y159784D01*
X265984Y159833D01*
X265940Y159889D01*
X265896Y159917D01*
X265858Y159953D01*
X265793Y159983D01*
X265733Y160022D01*
X265682Y160035D01*
X265635Y160057D01*
X265564Y160065D01*
X265494Y160082D01*
X265442Y160078D01*
X265391Y160084D01*
X265320Y160068D01*
X265249Y160063D01*
X265201Y160043D01*
X265150Y160031D01*
X265089Y159995D01*
X265023Y159967D01*
X264967Y159922D01*
X264939Y159905D01*
X264924Y159887D01*
X264892Y159862D01*
X248780Y143750D01*
X248727Y143676D01*
X248667Y143606D01*
X248655Y143576D01*
X248636Y143550D01*
X248609Y143463D01*
X248575Y143378D01*
X248571Y143337D01*
X248564Y143315D01*
X248565Y143283D01*
X248557Y143211D01*
X248557Y123527D01*
X241270Y116240D01*
X241217Y116166D01*
X241157Y116096D01*
X241145Y116066D01*
X241126Y116040D01*
X241099Y115953D01*
X241065Y115868D01*
X241061Y115827D01*
X241054Y115805D01*
X241055Y115773D01*
X241047Y115701D01*
X241047Y107656D01*
X235244Y101853D01*
X227199Y101853D01*
X227108Y101839D01*
X227018Y101831D01*
X226988Y101819D01*
X226956Y101814D01*
X226875Y101771D01*
X226791Y101735D01*
X226759Y101709D01*
X226738Y101698D01*
X226716Y101675D01*
X226660Y101630D01*
X216473Y91443D01*
X193527Y91443D01*
X191220Y93750D01*
X157940Y127030D01*
X157866Y127083D01*
X157796Y127143D01*
X157766Y127155D01*
X157740Y127174D01*
X157653Y127201D01*
X157568Y127235D01*
X157527Y127239D01*
X157505Y127246D01*
X157473Y127245D01*
X157401Y127253D01*
X150836Y127253D01*
X145033Y133056D01*
X145033Y141264D01*
X150836Y147067D01*
X159044Y147067D01*
X164847Y141264D01*
X164847Y133056D01*
X163948Y132158D01*
X163937Y132142D01*
X163921Y132130D01*
X163865Y132042D01*
X163805Y131958D01*
X163799Y131939D01*
X163788Y131923D01*
X163763Y131822D01*
X163732Y131723D01*
X163733Y131703D01*
X163728Y131684D01*
X163736Y131581D01*
X163739Y131477D01*
X163746Y131459D01*
X163747Y131439D01*
X163788Y131344D01*
X163823Y131246D01*
X163836Y131231D01*
X163844Y131213D01*
X163948Y131082D01*
X196250Y98780D01*
X196324Y98727D01*
X196394Y98667D01*
X196424Y98655D01*
X196450Y98636D01*
X196537Y98609D01*
X196622Y98575D01*
X196663Y98571D01*
X196685Y98564D01*
X196717Y98565D01*
X196789Y98557D01*
X202101Y98557D01*
X202171Y98568D01*
X202243Y98570D01*
X202292Y98588D01*
X202343Y98596D01*
X202407Y98630D01*
X202474Y98655D01*
X202515Y98687D01*
X202561Y98712D01*
X202610Y98764D01*
X202666Y98808D01*
X202694Y98852D01*
X202730Y98890D01*
X202760Y98955D01*
X202799Y99015D01*
X202812Y99066D01*
X202834Y99113D01*
X202842Y99184D01*
X202859Y99254D01*
X202855Y99306D01*
X202861Y99357D01*
X202846Y99428D01*
X202840Y99499D01*
X202820Y99547D01*
X202809Y99598D01*
X202772Y99659D01*
X202744Y99725D01*
X202699Y99781D01*
X202682Y99809D01*
X202665Y99824D01*
X202639Y99856D01*
X199693Y102802D01*
X199693Y107198D01*
X202802Y110307D01*
X204961Y110307D01*
X205052Y110321D01*
X205142Y110329D01*
X205172Y110341D01*
X205204Y110346D01*
X205285Y110389D01*
X205369Y110425D01*
X205401Y110451D01*
X205422Y110462D01*
X205444Y110485D01*
X205500Y110530D01*
X224092Y129122D01*
X224103Y129138D01*
X224119Y129150D01*
X224149Y129197D01*
X224168Y129217D01*
X224182Y129247D01*
X224235Y129321D01*
X224241Y129340D01*
X224252Y129357D01*
X224277Y129458D01*
X224308Y129556D01*
X224307Y129576D01*
X224312Y129596D01*
X224304Y129699D01*
X224301Y129802D01*
X224294Y129821D01*
X224293Y129841D01*
X224252Y129936D01*
X224217Y130033D01*
X224204Y130049D01*
X224196Y130067D01*
X224092Y130198D01*
X221233Y133056D01*
X221233Y141264D01*
X227036Y147067D01*
X235244Y147067D01*
X240144Y142166D01*
X240202Y142125D01*
X240254Y142075D01*
X240301Y142053D01*
X240343Y142023D01*
X240412Y142002D01*
X240477Y141972D01*
X240529Y141966D01*
X240579Y141951D01*
X240650Y141952D01*
X240721Y141945D01*
X240772Y141956D01*
X240824Y141957D01*
X240892Y141982D01*
X240962Y141997D01*
X241007Y142024D01*
X241055Y142041D01*
X241111Y142086D01*
X241173Y142123D01*
X241207Y142163D01*
X241247Y142195D01*
X241286Y142255D01*
X241333Y142310D01*
X241352Y142358D01*
X241380Y142402D01*
X241398Y142471D01*
X241425Y142538D01*
X241433Y142609D01*
X241441Y142641D01*
X241439Y142664D01*
X241443Y142705D01*
X241443Y146473D01*
X291220Y196250D01*
X291273Y196324D01*
X291333Y196394D01*
X291345Y196424D01*
X291364Y196450D01*
X291391Y196537D01*
X291425Y196622D01*
X291429Y196663D01*
X291436Y196685D01*
X291435Y196717D01*
X291443Y196789D01*
X291443Y214592D01*
X291439Y214619D01*
X291430Y214735D01*
X291230Y215781D01*
X291312Y215901D01*
X291320Y215919D01*
X291333Y215934D01*
X291372Y216030D01*
X291415Y216124D01*
X291417Y216143D01*
X291425Y216162D01*
X291443Y216329D01*
X291443Y216498D01*
X291481Y216542D01*
X291493Y216572D01*
X291512Y216598D01*
X291539Y216685D01*
X291573Y216770D01*
X291577Y216811D01*
X291584Y216833D01*
X291583Y216865D01*
X291591Y216937D01*
X291591Y224121D01*
X292829Y227109D01*
X295115Y229395D01*
X296524Y229979D01*
X296607Y230030D01*
X296693Y230076D01*
X296711Y230094D01*
X296733Y230108D01*
X296795Y230184D01*
X296862Y230254D01*
X296873Y230278D01*
X296890Y230298D01*
X296925Y230389D01*
X296966Y230477D01*
X296969Y230503D01*
X296978Y230527D01*
X296982Y230625D01*
X296993Y230721D01*
X296988Y230747D01*
X296989Y230773D01*
X296962Y230867D01*
X296941Y230962D01*
X296927Y230984D01*
X296920Y231009D01*
X296865Y231089D01*
X296815Y231173D01*
X296795Y231190D01*
X296780Y231211D01*
X296702Y231270D01*
X296628Y231333D01*
X296603Y231343D01*
X296582Y231358D01*
X296490Y231388D01*
X296400Y231425D01*
X296367Y231428D01*
X296349Y231434D01*
X296316Y231434D01*
X296233Y231443D01*
X277807Y231443D01*
X277711Y231428D01*
X277614Y231418D01*
X277590Y231408D01*
X277564Y231404D01*
X277478Y231358D01*
X277389Y231318D01*
X277370Y231301D01*
X277347Y231288D01*
X277280Y231218D01*
X277208Y231152D01*
X277196Y231129D01*
X277178Y231110D01*
X277137Y231022D01*
X277090Y230936D01*
X277085Y230911D01*
X277074Y230887D01*
X277063Y230790D01*
X277046Y230694D01*
X277050Y230668D01*
X277047Y230643D01*
X277068Y230547D01*
X277082Y230451D01*
X277094Y230428D01*
X277099Y230402D01*
X277149Y230319D01*
X277193Y230232D01*
X277212Y230213D01*
X277225Y230191D01*
X277299Y230128D01*
X277369Y230060D01*
X277397Y230044D01*
X277412Y230031D01*
X277443Y230019D01*
X277516Y229979D01*
X278925Y229395D01*
X281211Y227109D01*
X282449Y224121D01*
X282449Y207679D01*
X281211Y204691D01*
X278925Y202405D01*
X277395Y201771D01*
X277312Y201720D01*
X277226Y201674D01*
X277208Y201656D01*
X277186Y201642D01*
X277124Y201566D01*
X277057Y201496D01*
X277046Y201472D01*
X277029Y201452D01*
X276994Y201361D01*
X276953Y201273D01*
X276950Y201247D01*
X276941Y201223D01*
X276937Y201125D01*
X276926Y201029D01*
X276932Y201003D01*
X276931Y200977D01*
X276958Y200883D01*
X276978Y200788D01*
X276992Y200766D01*
X276999Y200741D01*
X277055Y200661D01*
X277105Y200577D01*
X277124Y200560D01*
X277139Y200539D01*
X277218Y200480D01*
X277292Y200417D01*
X277316Y200407D01*
X277337Y200392D01*
X277429Y200362D01*
X277520Y200325D01*
X277552Y200322D01*
X277571Y200316D01*
X277604Y200316D01*
X277686Y200307D01*
X282198Y200307D01*
X285307Y197198D01*
X285307Y192802D01*
X282198Y189693D01*
X280039Y189693D01*
X279948Y189679D01*
X279858Y189671D01*
X279828Y189659D01*
X279796Y189654D01*
X279715Y189611D01*
X279631Y189575D01*
X279599Y189549D01*
X279578Y189538D01*
X279556Y189515D01*
X279500Y189470D01*
X251473Y161443D01*
X241808Y161443D01*
X241788Y161440D01*
X241769Y161442D01*
X241667Y161420D01*
X241565Y161404D01*
X241548Y161394D01*
X241528Y161390D01*
X241439Y161337D01*
X241348Y161288D01*
X241334Y161274D01*
X241317Y161264D01*
X241250Y161185D01*
X241178Y161110D01*
X241170Y161092D01*
X241157Y161077D01*
X241118Y160981D01*
X241075Y160887D01*
X241073Y160867D01*
X241065Y160849D01*
X241047Y160682D01*
X241047Y155916D01*
X235244Y150113D01*
X227036Y150113D01*
X221233Y155916D01*
X221233Y164124D01*
X227254Y170144D01*
X227295Y170202D01*
X227345Y170254D01*
X227367Y170301D01*
X227397Y170343D01*
X227418Y170412D01*
X227448Y170477D01*
X227454Y170529D01*
X227469Y170579D01*
X227468Y170650D01*
X227475Y170721D01*
X227464Y170772D01*
X227463Y170824D01*
X227438Y170892D01*
X227423Y170962D01*
X227396Y171007D01*
X227379Y171055D01*
X227334Y171111D01*
X227297Y171173D01*
X227257Y171207D01*
X227225Y171247D01*
X227165Y171286D01*
X227110Y171333D01*
X227062Y171352D01*
X227018Y171380D01*
X226949Y171398D01*
X226882Y171425D01*
X226811Y171433D01*
X226779Y171441D01*
X226756Y171439D01*
X226715Y171443D01*
X211789Y171443D01*
X211698Y171429D01*
X211608Y171421D01*
X211578Y171409D01*
X211546Y171404D01*
X211465Y171361D01*
X211381Y171325D01*
X211349Y171299D01*
X211328Y171288D01*
X211306Y171265D01*
X211250Y171220D01*
X201473Y161443D01*
X165608Y161443D01*
X165588Y161440D01*
X165569Y161442D01*
X165467Y161420D01*
X165365Y161404D01*
X165348Y161394D01*
X165328Y161390D01*
X165239Y161337D01*
X165148Y161288D01*
X165134Y161274D01*
X165117Y161264D01*
X165050Y161185D01*
X164978Y161110D01*
X164970Y161092D01*
X164957Y161077D01*
X164918Y160981D01*
X164875Y160887D01*
X164873Y160867D01*
X164865Y160849D01*
X164847Y160682D01*
X164847Y155916D01*
X159044Y150113D01*
X150836Y150113D01*
X145033Y155916D01*
X145033Y164124D01*
X151054Y170144D01*
X151095Y170202D01*
X151145Y170254D01*
X151167Y170301D01*
X151197Y170343D01*
X151218Y170412D01*
X151248Y170477D01*
X151254Y170529D01*
X151269Y170579D01*
X151268Y170650D01*
X151275Y170721D01*
X151264Y170772D01*
X151263Y170824D01*
X151238Y170892D01*
X151223Y170962D01*
X151196Y171007D01*
X151179Y171055D01*
X151134Y171111D01*
X151097Y171173D01*
X151057Y171207D01*
X151025Y171247D01*
X150965Y171286D01*
X150910Y171333D01*
X150862Y171352D01*
X150818Y171380D01*
X150749Y171398D01*
X150682Y171425D01*
X150611Y171433D01*
X150579Y171441D01*
X150556Y171439D01*
X150515Y171443D01*
X123527Y171443D01*
X117902Y177068D01*
X117828Y177121D01*
X117758Y177181D01*
X117728Y177193D01*
X117702Y177212D01*
X117615Y177239D01*
X117530Y177273D01*
X117489Y177277D01*
X117467Y177284D01*
X117435Y177283D01*
X117363Y177291D01*
X106079Y177291D01*
X103091Y178529D01*
X100805Y180815D01*
X99567Y183803D01*
X99567Y187037D01*
X100805Y190025D01*
X103091Y192311D01*
X105973Y193505D01*
X106073Y193567D01*
X106173Y193626D01*
X106177Y193631D01*
X106182Y193634D01*
X106257Y193725D01*
X106333Y193813D01*
X106335Y193819D01*
X106339Y193824D01*
X106381Y193932D01*
X106425Y194041D01*
X106426Y194049D01*
X106427Y194054D01*
X106428Y194072D01*
X106443Y194208D01*
X106443Y198211D01*
X106429Y198302D01*
X106421Y198392D01*
X106409Y198422D01*
X106404Y198454D01*
X106361Y198535D01*
X106325Y198619D01*
X106299Y198651D01*
X106288Y198672D01*
X106265Y198694D01*
X106220Y198750D01*
X86443Y218527D01*
X86443Y297101D01*
X86432Y297171D01*
X86430Y297243D01*
X86412Y297292D01*
X86404Y297343D01*
X86370Y297407D01*
X86345Y297474D01*
X86313Y297515D01*
X86288Y297561D01*
X86236Y297610D01*
X86192Y297666D01*
X86148Y297694D01*
X86110Y297730D01*
X86045Y297760D01*
X85985Y297799D01*
X85934Y297812D01*
X85887Y297834D01*
X85816Y297842D01*
X85746Y297859D01*
X85694Y297855D01*
X85643Y297861D01*
X85572Y297846D01*
X85501Y297840D01*
X85453Y297820D01*
X85402Y297809D01*
X85341Y297772D01*
X85275Y297744D01*
X85219Y297699D01*
X85191Y297682D01*
X85176Y297665D01*
X85144Y297639D01*
X82198Y294693D01*
X77802Y294693D01*
X76275Y296220D01*
X76201Y296273D01*
X76131Y296333D01*
X76101Y296345D01*
X76075Y296364D01*
X75988Y296391D01*
X75903Y296425D01*
X75862Y296429D01*
X75840Y296436D01*
X75808Y296435D01*
X75737Y296443D01*
X46609Y296443D01*
X46519Y296429D01*
X46428Y296421D01*
X46398Y296409D01*
X46366Y296404D01*
X46285Y296361D01*
X46202Y296325D01*
X46169Y296299D01*
X46149Y296288D01*
X46127Y296265D01*
X46071Y296220D01*
X42204Y292353D01*
X33996Y292353D01*
X28193Y298156D01*
X28193Y306364D01*
X33996Y312167D01*
X42204Y312167D01*
X48007Y306364D01*
X48007Y304318D01*
X48010Y304298D01*
X48008Y304279D01*
X48030Y304177D01*
X48046Y304075D01*
X48056Y304058D01*
X48060Y304038D01*
X48113Y303949D01*
X48162Y303858D01*
X48176Y303844D01*
X48186Y303827D01*
X48265Y303760D01*
X48340Y303688D01*
X48358Y303680D01*
X48373Y303667D01*
X48469Y303628D01*
X48563Y303585D01*
X48583Y303583D01*
X48601Y303575D01*
X48768Y303557D01*
X75737Y303557D01*
X75827Y303571D01*
X75918Y303579D01*
X75947Y303591D01*
X75979Y303596D01*
X76060Y303639D01*
X76144Y303675D01*
X76176Y303701D01*
X76197Y303712D01*
X76219Y303735D01*
X76275Y303780D01*
X77802Y305307D01*
X82198Y305307D01*
X85144Y302361D01*
X85202Y302319D01*
X85254Y302270D01*
X85301Y302248D01*
X85343Y302218D01*
X85412Y302196D01*
X85477Y302166D01*
X85529Y302161D01*
X85579Y302145D01*
X85650Y302147D01*
X85721Y302139D01*
X85772Y302150D01*
X85824Y302152D01*
X85892Y302176D01*
X85962Y302191D01*
X86007Y302218D01*
X86055Y302236D01*
X86111Y302281D01*
X86173Y302318D01*
X86207Y302357D01*
X86247Y302390D01*
X86286Y302450D01*
X86333Y302505D01*
X86352Y302553D01*
X86380Y302597D01*
X86398Y302666D01*
X86425Y302733D01*
X86433Y302804D01*
X86441Y302835D01*
X86439Y302858D01*
X86443Y302899D01*
X86443Y326473D01*
X101537Y341567D01*
X101548Y341583D01*
X101564Y341595D01*
X101620Y341683D01*
X101680Y341767D01*
X101686Y341786D01*
X101697Y341802D01*
X101722Y341903D01*
X101753Y342002D01*
X101752Y342022D01*
X101757Y342041D01*
X101749Y342144D01*
X101746Y342248D01*
X101740Y342266D01*
X101738Y342286D01*
X101698Y342381D01*
X101662Y342479D01*
X101649Y342494D01*
X101642Y342512D01*
X101537Y342643D01*
X100805Y343375D01*
X99567Y346363D01*
X99567Y349597D01*
X100805Y352585D01*
X103091Y354871D01*
X106079Y356109D01*
X110682Y356109D01*
X110702Y356112D01*
X110721Y356110D01*
X110823Y356132D01*
X110925Y356148D01*
X110942Y356158D01*
X110962Y356162D01*
X111051Y356215D01*
X111142Y356264D01*
X111156Y356278D01*
X111173Y356288D01*
X111240Y356367D01*
X111312Y356442D01*
X111320Y356460D01*
X111333Y356475D01*
X111372Y356571D01*
X111415Y356665D01*
X111417Y356685D01*
X111425Y356703D01*
X111443Y356870D01*
X111443Y381473D01*
X153527Y423557D01*
X196473Y423557D01*
X198780Y421250D01*
X228138Y391892D01*
X228212Y391839D01*
X228282Y391779D01*
X228312Y391767D01*
X228338Y391748D01*
X228425Y391721D01*
X228510Y391687D01*
X228551Y391683D01*
X228573Y391676D01*
X228605Y391677D01*
X228677Y391669D01*
X241901Y391669D01*
X244889Y390431D01*
X247175Y388145D01*
X248413Y385157D01*
X248413Y381923D01*
X247175Y378935D01*
X244889Y376649D01*
X241901Y375411D01*
X239318Y375411D01*
X239298Y375408D01*
X239279Y375410D01*
X239177Y375388D01*
X239075Y375372D01*
X239058Y375362D01*
X239038Y375358D01*
X238949Y375305D01*
X238858Y375256D01*
X238844Y375242D01*
X238827Y375232D01*
X238760Y375153D01*
X238688Y375078D01*
X238680Y375060D01*
X238667Y375045D01*
X238628Y374949D01*
X238585Y374855D01*
X238583Y374835D01*
X238575Y374817D01*
X238557Y374650D01*
X238557Y362899D01*
X238568Y362829D01*
X238570Y362757D01*
X238588Y362708D01*
X238596Y362657D01*
X238630Y362593D01*
X238655Y362526D01*
X238687Y362485D01*
X238712Y362439D01*
X238764Y362390D01*
X238808Y362334D01*
X238852Y362306D01*
X238890Y362270D01*
X238955Y362240D01*
X239015Y362201D01*
X239066Y362188D01*
X239113Y362166D01*
X239184Y362158D01*
X239254Y362141D01*
X239306Y362145D01*
X239357Y362139D01*
X239428Y362154D01*
X239499Y362160D01*
X239547Y362180D01*
X239598Y362191D01*
X239659Y362228D01*
X239725Y362256D01*
X239781Y362301D01*
X239809Y362318D01*
X239824Y362335D01*
X239856Y362361D01*
X242802Y365307D01*
X247198Y365307D01*
X250307Y362198D01*
X250307Y360039D01*
X250321Y359948D01*
X250329Y359858D01*
X250341Y359828D01*
X250346Y359796D01*
X250389Y359715D01*
X250425Y359631D01*
X250451Y359599D01*
X250462Y359578D01*
X250485Y359556D01*
X250530Y359500D01*
X256250Y353780D01*
X258557Y351473D01*
X258557Y336789D01*
X258571Y336698D01*
X258579Y336608D01*
X258591Y336578D01*
X258596Y336546D01*
X258639Y336465D01*
X258675Y336381D01*
X258701Y336349D01*
X258712Y336328D01*
X258735Y336306D01*
X258780Y336250D01*
X271250Y323780D01*
X271324Y323727D01*
X271394Y323667D01*
X271424Y323655D01*
X271450Y323636D01*
X271537Y323609D01*
X271622Y323575D01*
X271663Y323571D01*
X271685Y323564D01*
X271717Y323565D01*
X271789Y323557D01*
X292101Y323557D01*
X292171Y323568D01*
X292243Y323570D01*
X292292Y323588D01*
X292343Y323596D01*
X292407Y323630D01*
X292474Y323655D01*
X292515Y323687D01*
X292561Y323712D01*
X292610Y323764D01*
X292666Y323808D01*
X292694Y323852D01*
X292730Y323890D01*
X292760Y323955D01*
X292799Y324015D01*
X292812Y324066D01*
X292834Y324113D01*
X292842Y324184D01*
X292859Y324254D01*
X292855Y324306D01*
X292861Y324357D01*
X292846Y324428D01*
X292840Y324499D01*
X292820Y324547D01*
X292809Y324598D01*
X292772Y324659D01*
X292744Y324725D01*
X292699Y324781D01*
X292682Y324809D01*
X292665Y324824D01*
X292639Y324856D01*
X289693Y327802D01*
X289693Y332198D01*
X291220Y333725D01*
X291273Y333799D01*
X291333Y333869D01*
X291345Y333899D01*
X291364Y333925D01*
X291391Y334012D01*
X291425Y334097D01*
X291429Y334138D01*
X291436Y334160D01*
X291435Y334192D01*
X291443Y334263D01*
X291443Y373211D01*
X291429Y373302D01*
X291421Y373392D01*
X291409Y373422D01*
X291404Y373454D01*
X291361Y373535D01*
X291325Y373619D01*
X291299Y373651D01*
X291288Y373672D01*
X291265Y373694D01*
X291220Y373750D01*
X266443Y398527D01*
X266443Y442101D01*
X266432Y442171D01*
X266430Y442243D01*
X266412Y442292D01*
X266404Y442343D01*
X266370Y442407D01*
X266345Y442474D01*
X266313Y442515D01*
X266288Y442561D01*
X266236Y442610D01*
X266192Y442666D01*
X266148Y442694D01*
X266110Y442730D01*
X266045Y442760D01*
X265985Y442799D01*
X265934Y442812D01*
X265887Y442834D01*
X265816Y442842D01*
X265746Y442859D01*
X265694Y442855D01*
X265643Y442861D01*
X265572Y442846D01*
X265501Y442840D01*
X265453Y442820D01*
X265402Y442809D01*
X265341Y442772D01*
X265275Y442744D01*
X265219Y442699D01*
X265191Y442682D01*
X265176Y442665D01*
X265144Y442639D01*
X263780Y441275D01*
X263727Y441201D01*
X263667Y441131D01*
X263655Y441101D01*
X263636Y441075D01*
X263609Y440988D01*
X263575Y440903D01*
X263571Y440862D01*
X263564Y440840D01*
X263565Y440808D01*
X263557Y440737D01*
X263557Y364263D01*
X263571Y364173D01*
X263579Y364082D01*
X263591Y364053D01*
X263596Y364021D01*
X263639Y363940D01*
X263675Y363856D01*
X263701Y363824D01*
X263712Y363803D01*
X263735Y363781D01*
X263780Y363725D01*
X265307Y362198D01*
X265307Y357802D01*
X262198Y354693D01*
X257802Y354693D01*
X254693Y357802D01*
X254693Y362198D01*
X256220Y363725D01*
X256273Y363799D01*
X256333Y363869D01*
X256345Y363899D01*
X256364Y363925D01*
X256391Y364012D01*
X256425Y364097D01*
X256429Y364138D01*
X256436Y364160D01*
X256435Y364192D01*
X256443Y364263D01*
X256443Y440737D01*
X256429Y440827D01*
X256421Y440918D01*
X256409Y440947D01*
X256404Y440979D01*
X256361Y441060D01*
X256325Y441144D01*
X256299Y441176D01*
X256288Y441197D01*
X256265Y441219D01*
X256220Y441275D01*
X254693Y442802D01*
X254693Y447198D01*
X257802Y450307D01*
X262198Y450307D01*
X265144Y447361D01*
X265202Y447319D01*
X265254Y447270D01*
X265301Y447248D01*
X265343Y447218D01*
X265412Y447196D01*
X265477Y447166D01*
X265529Y447161D01*
X265579Y447145D01*
X265650Y447147D01*
X265721Y447139D01*
X265772Y447150D01*
X265824Y447152D01*
X265892Y447176D01*
X265962Y447191D01*
X266007Y447218D01*
X266055Y447236D01*
X266111Y447281D01*
X266173Y447318D01*
X266207Y447357D01*
X266247Y447390D01*
X266286Y447450D01*
X266333Y447505D01*
X266352Y447553D01*
X266380Y447597D01*
X266398Y447666D01*
X266425Y447733D01*
X266433Y447804D01*
X266441Y447835D01*
X266439Y447858D01*
X266443Y447899D01*
X266443Y460737D01*
X266429Y460827D01*
X266421Y460918D01*
X266409Y460947D01*
X266404Y460979D01*
X266361Y461060D01*
X266325Y461144D01*
X266299Y461176D01*
X266288Y461197D01*
X266265Y461219D01*
X266220Y461275D01*
X264693Y462802D01*
X264693Y467198D01*
X267639Y470144D01*
X267681Y470202D01*
X267730Y470254D01*
X267752Y470301D01*
X267782Y470343D01*
X267804Y470412D01*
X267834Y470477D01*
X267839Y470529D01*
X267855Y470579D01*
X267853Y470650D01*
X267861Y470721D01*
X267850Y470772D01*
X267848Y470824D01*
X267824Y470892D01*
X267809Y470962D01*
X267782Y471007D01*
X267764Y471055D01*
X267719Y471111D01*
X267682Y471173D01*
X267643Y471207D01*
X267610Y471247D01*
X267550Y471286D01*
X267495Y471333D01*
X267447Y471352D01*
X267403Y471380D01*
X267334Y471398D01*
X267267Y471425D01*
X267196Y471433D01*
X267165Y471441D01*
X267142Y471439D01*
X267101Y471443D01*
X236789Y471443D01*
X236698Y471429D01*
X236608Y471421D01*
X236578Y471409D01*
X236546Y471404D01*
X236465Y471361D01*
X236381Y471325D01*
X236349Y471299D01*
X236328Y471288D01*
X236306Y471265D01*
X236250Y471220D01*
X229372Y464342D01*
X229330Y464284D01*
X229281Y464232D01*
X229259Y464185D01*
X229229Y464143D01*
X229208Y464074D01*
X229177Y464009D01*
X229172Y463957D01*
X229156Y463907D01*
X229158Y463836D01*
X229150Y463765D01*
X229161Y463714D01*
X229163Y463662D01*
X229187Y463594D01*
X229203Y463524D01*
X229229Y463479D01*
X229247Y463431D01*
X229292Y463375D01*
X229329Y463313D01*
X229368Y463279D01*
X229401Y463239D01*
X229461Y463200D01*
X229516Y463153D01*
X229564Y463134D01*
X229608Y463106D01*
X229677Y463088D01*
X229744Y463061D01*
X229815Y463053D01*
X229846Y463045D01*
X229870Y463047D01*
X229911Y463043D01*
X232157Y463043D01*
X232157Y453643D01*
X222757Y453643D01*
X222757Y455889D01*
X222746Y455960D01*
X222744Y456032D01*
X222726Y456081D01*
X222718Y456132D01*
X222684Y456196D01*
X222659Y456263D01*
X222627Y456304D01*
X222602Y456350D01*
X222550Y456399D01*
X222506Y456455D01*
X222462Y456483D01*
X222424Y456519D01*
X222359Y456549D01*
X222299Y456588D01*
X222248Y456601D01*
X222201Y456623D01*
X222130Y456631D01*
X222060Y456648D01*
X222008Y456644D01*
X221957Y456650D01*
X221886Y456634D01*
X221815Y456629D01*
X221767Y456609D01*
X221716Y456597D01*
X221655Y456561D01*
X221589Y456533D01*
X221533Y456488D01*
X221505Y456471D01*
X221490Y456453D01*
X221458Y456428D01*
X216473Y451443D01*
X192899Y451443D01*
X192829Y451432D01*
X192757Y451430D01*
X192708Y451412D01*
X192657Y451404D01*
X192593Y451370D01*
X192526Y451345D01*
X192485Y451313D01*
X192439Y451288D01*
X192390Y451236D01*
X192334Y451192D01*
X192306Y451148D01*
X192270Y451110D01*
X192240Y451045D01*
X192201Y450985D01*
X192188Y450934D01*
X192166Y450887D01*
X192158Y450816D01*
X192141Y450746D01*
X192145Y450694D01*
X192139Y450643D01*
X192154Y450572D01*
X192160Y450501D01*
X192180Y450453D01*
X192191Y450402D01*
X192228Y450341D01*
X192256Y450275D01*
X192301Y450219D01*
X192318Y450191D01*
X192335Y450176D01*
X192361Y450144D01*
X195307Y447198D01*
X195307Y442802D01*
X192198Y439693D01*
X187802Y439693D01*
X186275Y441220D01*
X186201Y441273D01*
X186131Y441333D01*
X186101Y441345D01*
X186075Y441364D01*
X185988Y441391D01*
X185903Y441425D01*
X185862Y441429D01*
X185840Y441436D01*
X185808Y441435D01*
X185737Y441443D01*
X148527Y441443D01*
X119278Y470692D01*
X119204Y470745D01*
X119134Y470805D01*
X119104Y470817D01*
X119078Y470836D01*
X118991Y470863D01*
X118906Y470897D01*
X118865Y470901D01*
X118843Y470908D01*
X118811Y470907D01*
X118739Y470915D01*
X115953Y470915D01*
X115882Y470904D01*
X115810Y470902D01*
X115761Y470884D01*
X115710Y470876D01*
X115646Y470842D01*
X115579Y470817D01*
X115538Y470785D01*
X115492Y470760D01*
X115443Y470708D01*
X115387Y470664D01*
X115359Y470620D01*
X115323Y470582D01*
X115293Y470517D01*
X115254Y470457D01*
X115241Y470406D01*
X115219Y470359D01*
X115211Y470288D01*
X115194Y470218D01*
X115198Y470166D01*
X115192Y470115D01*
X115208Y470044D01*
X115213Y469973D01*
X115233Y469925D01*
X115245Y469874D01*
X115281Y469813D01*
X115309Y469747D01*
X115354Y469691D01*
X115371Y469663D01*
X115389Y469648D01*
X115414Y469616D01*
X151250Y433780D01*
X151324Y433727D01*
X151394Y433667D01*
X151424Y433655D01*
X151450Y433636D01*
X151537Y433609D01*
X151622Y433575D01*
X151663Y433571D01*
X151685Y433564D01*
X151717Y433565D01*
X151789Y433557D01*
X223651Y433557D01*
X223741Y433571D01*
X223832Y433579D01*
X223862Y433591D01*
X223894Y433596D01*
X223975Y433639D01*
X224058Y433675D01*
X224091Y433701D01*
X224111Y433712D01*
X224133Y433735D01*
X224189Y433780D01*
X229576Y439167D01*
X237784Y439167D01*
X243587Y433364D01*
X243587Y425156D01*
X237784Y419353D01*
X229576Y419353D01*
X223773Y425156D01*
X223773Y425682D01*
X223770Y425702D01*
X223772Y425721D01*
X223750Y425823D01*
X223734Y425925D01*
X223724Y425942D01*
X223720Y425962D01*
X223667Y426051D01*
X223618Y426142D01*
X223604Y426156D01*
X223594Y426173D01*
X223515Y426240D01*
X223440Y426312D01*
X223422Y426320D01*
X223407Y426333D01*
X223311Y426372D01*
X223217Y426415D01*
X223197Y426417D01*
X223179Y426425D01*
X223012Y426443D01*
X148527Y426443D01*
X146220Y428750D01*
X100180Y474790D01*
X100163Y474802D01*
X100151Y474818D01*
X100064Y474874D01*
X99980Y474934D01*
X99961Y474940D01*
X99944Y474951D01*
X99844Y474976D01*
X99745Y475006D01*
X99725Y475006D01*
X99706Y475011D01*
X99603Y475003D01*
X99499Y475000D01*
X99480Y474993D01*
X99460Y474992D01*
X99365Y474951D01*
X99268Y474916D01*
X99252Y474903D01*
X99234Y474895D01*
X99103Y474790D01*
X96620Y472307D01*
X93259Y470915D01*
X89621Y470915D01*
X86260Y472307D01*
X83687Y474880D01*
X82295Y478241D01*
X82295Y495427D01*
X82284Y495498D01*
X82282Y495570D01*
X82264Y495619D01*
X82256Y495670D01*
X82222Y495734D01*
X82197Y495801D01*
X82165Y495842D01*
X82140Y495888D01*
X82088Y495937D01*
X82044Y495993D01*
X82000Y496021D01*
X81962Y496057D01*
X81897Y496087D01*
X81837Y496126D01*
X81786Y496139D01*
X81739Y496161D01*
X81668Y496169D01*
X81598Y496186D01*
X81546Y496182D01*
X81495Y496188D01*
X81424Y496172D01*
X81353Y496167D01*
X81305Y496147D01*
X81254Y496135D01*
X81193Y496099D01*
X81127Y496071D01*
X81071Y496026D01*
X81043Y496009D01*
X81028Y495991D01*
X80996Y495966D01*
X75408Y490378D01*
X75355Y490304D01*
X75295Y490234D01*
X75283Y490204D01*
X75264Y490178D01*
X75237Y490091D01*
X75203Y490006D01*
X75199Y489965D01*
X75192Y489943D01*
X75193Y489911D01*
X75185Y489839D01*
X75185Y478241D01*
X73793Y474880D01*
X71220Y472307D01*
X67859Y470915D01*
X64221Y470915D01*
X60860Y472307D01*
X58287Y474880D01*
X56895Y478241D01*
X56895Y497119D01*
X58287Y500480D01*
X60860Y503053D01*
X64221Y504445D01*
X67859Y504445D01*
X71220Y503053D01*
X73793Y500480D01*
X73842Y500361D01*
X73866Y500322D01*
X73882Y500278D01*
X73931Y500218D01*
X73972Y500152D01*
X74007Y500122D01*
X74036Y500086D01*
X74101Y500044D01*
X74161Y499995D01*
X74204Y499978D01*
X74243Y499953D01*
X74318Y499934D01*
X74391Y499907D01*
X74437Y499905D01*
X74481Y499893D01*
X74559Y499899D01*
X74636Y499896D01*
X74681Y499909D01*
X74726Y499912D01*
X74798Y499943D01*
X74873Y499965D01*
X74910Y499991D01*
X74953Y500009D01*
X75059Y500094D01*
X75075Y500105D01*
X75078Y500109D01*
X75084Y500114D01*
X88527Y513557D01*
X121473Y513557D01*
X133557Y501473D01*
X133557Y501387D01*
X133568Y501316D01*
X133570Y501245D01*
X133588Y501196D01*
X133596Y501144D01*
X133630Y501081D01*
X133655Y501014D01*
X133687Y500973D01*
X133712Y500927D01*
X133764Y500878D01*
X133808Y500822D01*
X133852Y500793D01*
X133890Y500758D01*
X133955Y500727D01*
X134015Y500689D01*
X134066Y500676D01*
X134113Y500654D01*
X134184Y500646D01*
X134254Y500629D01*
X134306Y500633D01*
X134357Y500627D01*
X134428Y500642D01*
X134499Y500648D01*
X134547Y500668D01*
X134598Y500679D01*
X134659Y500716D01*
X134725Y500744D01*
X134781Y500789D01*
X134809Y500805D01*
X134824Y500823D01*
X134856Y500849D01*
X137060Y503053D01*
X140421Y504445D01*
X143687Y504445D01*
X143758Y504456D01*
X143830Y504458D01*
X143879Y504476D01*
X143930Y504484D01*
X143994Y504518D01*
X144061Y504543D01*
X144102Y504575D01*
X144148Y504600D01*
X144197Y504652D01*
X144253Y504696D01*
X144281Y504740D01*
X144317Y504778D01*
X144347Y504843D01*
X144386Y504903D01*
X144399Y504954D01*
X144421Y505001D01*
X144428Y505072D01*
X144446Y505142D01*
X144442Y505194D01*
X144448Y505245D01*
X144432Y505316D01*
X144427Y505387D01*
X144407Y505435D01*
X144395Y505486D01*
X144359Y505547D01*
X144331Y505613D01*
X144286Y505669D01*
X144269Y505697D01*
X144251Y505712D01*
X144226Y505744D01*
X133750Y516220D01*
X133676Y516273D01*
X133606Y516333D01*
X133576Y516345D01*
X133550Y516364D01*
X133463Y516391D01*
X133378Y516425D01*
X133337Y516429D01*
X133315Y516436D01*
X133283Y516435D01*
X133211Y516443D01*
X71789Y516443D01*
X71698Y516429D01*
X71608Y516421D01*
X71578Y516409D01*
X71546Y516404D01*
X71465Y516361D01*
X71381Y516325D01*
X71349Y516299D01*
X71328Y516288D01*
X71306Y516265D01*
X71250Y516220D01*
X53780Y498750D01*
X53727Y498676D01*
X53667Y498606D01*
X53655Y498576D01*
X53636Y498550D01*
X53609Y498463D01*
X53575Y498378D01*
X53571Y498337D01*
X53564Y498315D01*
X53565Y498283D01*
X53557Y498211D01*
X53557Y383527D01*
X47306Y377276D01*
X47237Y377181D01*
X47168Y377087D01*
X47166Y377081D01*
X47162Y377076D01*
X47128Y376964D01*
X47091Y376853D01*
X47092Y376847D01*
X47090Y376841D01*
X47093Y376724D01*
X47094Y376607D01*
X47096Y376600D01*
X47096Y376595D01*
X47102Y376577D01*
X47141Y376446D01*
X47626Y375275D01*
X47626Y371485D01*
X46176Y367984D01*
X43780Y365588D01*
X43727Y365514D01*
X43667Y365445D01*
X43655Y365415D01*
X43636Y365389D01*
X43609Y365302D01*
X43575Y365217D01*
X43571Y365176D01*
X43564Y365153D01*
X43565Y365121D01*
X43557Y365050D01*
X43557Y356870D01*
X43560Y356850D01*
X43558Y356831D01*
X43580Y356729D01*
X43596Y356627D01*
X43606Y356610D01*
X43610Y356590D01*
X43663Y356501D01*
X43712Y356410D01*
X43726Y356396D01*
X43736Y356379D01*
X43815Y356312D01*
X43890Y356240D01*
X43908Y356232D01*
X43923Y356219D01*
X44019Y356180D01*
X44113Y356137D01*
X44133Y356135D01*
X44151Y356127D01*
X44318Y356109D01*
X46321Y356109D01*
X49309Y354871D01*
X51595Y352585D01*
X52833Y349597D01*
X52833Y346363D01*
X51595Y343375D01*
X49309Y341089D01*
X46321Y339851D01*
X29879Y339851D01*
X26891Y341089D01*
X24605Y343375D01*
X23367Y346363D01*
X23367Y349597D01*
X24605Y352585D01*
X26891Y354871D01*
X29879Y356109D01*
X35682Y356109D01*
X35702Y356112D01*
X35721Y356110D01*
X35823Y356132D01*
X35925Y356148D01*
X35942Y356158D01*
X35962Y356162D01*
X36051Y356215D01*
X36142Y356264D01*
X36156Y356278D01*
X36173Y356288D01*
X36240Y356367D01*
X36312Y356442D01*
X36320Y356460D01*
X36333Y356475D01*
X36372Y356571D01*
X36415Y356665D01*
X36417Y356685D01*
X36425Y356703D01*
X36443Y356870D01*
X36443Y363247D01*
X36424Y363362D01*
X36407Y363478D01*
X36405Y363484D01*
X36404Y363490D01*
X36349Y363592D01*
X36296Y363697D01*
X36291Y363702D01*
X36288Y363707D01*
X36204Y363787D01*
X36120Y363869D01*
X36114Y363873D01*
X36110Y363877D01*
X36093Y363884D01*
X35973Y363950D01*
X32704Y365304D01*
X30024Y367984D01*
X28574Y371485D01*
X28574Y375275D01*
X30024Y378776D01*
X32704Y381456D01*
X36205Y382906D01*
X39995Y382906D01*
X41562Y382257D01*
X41676Y382230D01*
X41789Y382201D01*
X41795Y382202D01*
X41801Y382200D01*
X41918Y382211D01*
X42034Y382220D01*
X42040Y382223D01*
X42046Y382223D01*
X42154Y382271D01*
X42261Y382317D01*
X42267Y382321D01*
X42271Y382323D01*
X42285Y382336D01*
X42392Y382422D01*
X46220Y386250D01*
X46273Y386324D01*
X46333Y386394D01*
X46345Y386424D01*
X46364Y386450D01*
X46391Y386537D01*
X46425Y386622D01*
X46429Y386663D01*
X46436Y386685D01*
X46435Y386717D01*
X46443Y386789D01*
X46443Y390377D01*
X46432Y390448D01*
X46430Y390520D01*
X46412Y390569D01*
X46404Y390620D01*
X46370Y390683D01*
X46345Y390751D01*
X46313Y390791D01*
X46288Y390837D01*
X46236Y390887D01*
X46192Y390943D01*
X46148Y390971D01*
X46110Y391007D01*
X46045Y391037D01*
X45985Y391076D01*
X45934Y391088D01*
X45887Y391110D01*
X45816Y391118D01*
X45746Y391136D01*
X45694Y391132D01*
X45643Y391137D01*
X45572Y391122D01*
X45501Y391117D01*
X45453Y391096D01*
X45402Y391085D01*
X45341Y391048D01*
X45275Y391020D01*
X45219Y390976D01*
X45191Y390959D01*
X45176Y390941D01*
X45144Y390916D01*
X42467Y388238D01*
X39623Y388238D01*
X39623Y398018D01*
X39620Y398038D01*
X39622Y398057D01*
X39600Y398159D01*
X39583Y398261D01*
X39574Y398278D01*
X39570Y398298D01*
X39517Y398387D01*
X39468Y398478D01*
X39454Y398492D01*
X39444Y398509D01*
X39365Y398576D01*
X39290Y398647D01*
X39272Y398656D01*
X39257Y398669D01*
X39161Y398707D01*
X39067Y398751D01*
X39047Y398753D01*
X39029Y398761D01*
X38862Y398779D01*
X38099Y398779D01*
X38099Y398781D01*
X38862Y398781D01*
X38882Y398784D01*
X38901Y398782D01*
X39003Y398804D01*
X39105Y398821D01*
X39122Y398830D01*
X39142Y398834D01*
X39231Y398887D01*
X39322Y398936D01*
X39336Y398950D01*
X39353Y398960D01*
X39420Y399039D01*
X39491Y399114D01*
X39500Y399132D01*
X39513Y399147D01*
X39552Y399243D01*
X39595Y399337D01*
X39597Y399357D01*
X39605Y399375D01*
X39623Y399542D01*
X39623Y409322D01*
X42467Y409322D01*
X45144Y406644D01*
X45202Y406603D01*
X45254Y406553D01*
X45301Y406531D01*
X45343Y406501D01*
X45412Y406480D01*
X45477Y406450D01*
X45529Y406444D01*
X45579Y406429D01*
X45650Y406430D01*
X45721Y406423D01*
X45772Y406434D01*
X45824Y406435D01*
X45892Y406460D01*
X45962Y406475D01*
X46007Y406502D01*
X46055Y406519D01*
X46111Y406564D01*
X46173Y406601D01*
X46207Y406641D01*
X46247Y406673D01*
X46286Y406733D01*
X46333Y406788D01*
X46352Y406836D01*
X46380Y406880D01*
X46398Y406949D01*
X46425Y407016D01*
X46433Y407087D01*
X46441Y407119D01*
X46439Y407142D01*
X46443Y407183D01*
X46443Y501473D01*
X68527Y523557D01*
X136473Y523557D01*
X158557Y501473D01*
X158557Y500987D01*
X158568Y500916D01*
X158570Y500845D01*
X158588Y500796D01*
X158596Y500744D01*
X158630Y500681D01*
X158655Y500614D01*
X158687Y500573D01*
X158712Y500527D01*
X158764Y500478D01*
X158808Y500422D01*
X158852Y500393D01*
X158890Y500358D01*
X158955Y500327D01*
X159015Y500289D01*
X159066Y500276D01*
X159113Y500254D01*
X159184Y500246D01*
X159254Y500229D01*
X159306Y500233D01*
X159357Y500227D01*
X159428Y500242D01*
X159499Y500248D01*
X159547Y500268D01*
X159598Y500279D01*
X159659Y500316D01*
X159725Y500344D01*
X159781Y500389D01*
X159809Y500405D01*
X159824Y500423D01*
X159856Y500449D01*
X162460Y503053D01*
X165821Y504445D01*
X169459Y504445D01*
X172820Y503053D01*
X175393Y500480D01*
X176785Y497119D01*
X176785Y478241D01*
X175393Y474880D01*
X172820Y472307D01*
X169459Y470915D01*
X165953Y470915D01*
X165882Y470904D01*
X165810Y470902D01*
X165761Y470884D01*
X165710Y470876D01*
X165646Y470842D01*
X165579Y470817D01*
X165538Y470785D01*
X165492Y470760D01*
X165443Y470708D01*
X165387Y470664D01*
X165359Y470620D01*
X165323Y470582D01*
X165293Y470517D01*
X165254Y470457D01*
X165241Y470406D01*
X165219Y470359D01*
X165211Y470288D01*
X165194Y470218D01*
X165198Y470166D01*
X165192Y470115D01*
X165208Y470044D01*
X165213Y469973D01*
X165233Y469925D01*
X165245Y469874D01*
X165281Y469813D01*
X165309Y469747D01*
X165354Y469691D01*
X165371Y469663D01*
X165389Y469648D01*
X165414Y469616D01*
X166250Y468780D01*
X166324Y468727D01*
X166394Y468667D01*
X166424Y468655D01*
X166450Y468636D01*
X166537Y468609D01*
X166622Y468575D01*
X166663Y468571D01*
X166685Y468564D01*
X166717Y468565D01*
X166789Y468557D01*
X193211Y468557D01*
X193301Y468571D01*
X193392Y468579D01*
X193422Y468591D01*
X193454Y468596D01*
X193535Y468639D01*
X193619Y468675D01*
X193651Y468701D01*
X193672Y468712D01*
X193694Y468735D01*
X193750Y468780D01*
X194586Y469616D01*
X194628Y469674D01*
X194677Y469726D01*
X194699Y469773D01*
X194729Y469815D01*
X194750Y469884D01*
X194781Y469949D01*
X194786Y470001D01*
X194802Y470051D01*
X194800Y470122D01*
X194808Y470193D01*
X194797Y470244D01*
X194795Y470296D01*
X194771Y470364D01*
X194755Y470434D01*
X194729Y470479D01*
X194711Y470527D01*
X194666Y470583D01*
X194629Y470645D01*
X194590Y470679D01*
X194557Y470719D01*
X194497Y470758D01*
X194442Y470805D01*
X194394Y470824D01*
X194350Y470852D01*
X194281Y470870D01*
X194214Y470897D01*
X194143Y470905D01*
X194112Y470913D01*
X194088Y470911D01*
X194047Y470915D01*
X191221Y470915D01*
X187860Y472307D01*
X185287Y474880D01*
X183895Y478241D01*
X183895Y497119D01*
X185287Y500480D01*
X187860Y503053D01*
X191221Y504445D01*
X194859Y504445D01*
X198220Y503053D01*
X200793Y500480D01*
X202185Y497119D01*
X202185Y479053D01*
X202188Y479035D01*
X202186Y479019D01*
X202197Y478969D01*
X202198Y478910D01*
X202216Y478861D01*
X202224Y478810D01*
X202236Y478788D01*
X202238Y478779D01*
X202259Y478744D01*
X202283Y478679D01*
X202315Y478638D01*
X202340Y478592D01*
X202362Y478571D01*
X202364Y478568D01*
X202378Y478555D01*
X202392Y478543D01*
X202436Y478487D01*
X202480Y478459D01*
X202518Y478423D01*
X202583Y478393D01*
X202643Y478354D01*
X202694Y478341D01*
X202741Y478319D01*
X202812Y478311D01*
X202882Y478294D01*
X202934Y478298D01*
X202985Y478292D01*
X203056Y478308D01*
X203127Y478313D01*
X203175Y478333D01*
X203181Y478335D01*
X203195Y478337D01*
X203197Y478338D01*
X203226Y478345D01*
X203287Y478381D01*
X203353Y478409D01*
X203396Y478444D01*
X203412Y478452D01*
X203421Y478461D01*
X203437Y478471D01*
X203452Y478489D01*
X203484Y478514D01*
X213527Y488557D01*
X245737Y488557D01*
X245827Y488571D01*
X245918Y488579D01*
X245947Y488591D01*
X245979Y488596D01*
X246060Y488639D01*
X246144Y488675D01*
X246176Y488701D01*
X246197Y488712D01*
X246219Y488735D01*
X246275Y488780D01*
X247802Y490307D01*
X252198Y490307D01*
X255307Y487198D01*
X255307Y482802D01*
X252361Y479856D01*
X252319Y479798D01*
X252270Y479746D01*
X252248Y479699D01*
X252218Y479657D01*
X252196Y479588D01*
X252166Y479523D01*
X252161Y479471D01*
X252145Y479421D01*
X252147Y479350D01*
X252139Y479279D01*
X252150Y479228D01*
X252152Y479176D01*
X252176Y479108D01*
X252191Y479038D01*
X252218Y478993D01*
X252236Y478945D01*
X252281Y478889D01*
X252318Y478827D01*
X252357Y478793D01*
X252390Y478753D01*
X252450Y478714D01*
X252505Y478667D01*
X252553Y478648D01*
X252597Y478620D01*
X252666Y478602D01*
X252733Y478575D01*
X252804Y478567D01*
X252835Y478559D01*
X252858Y478561D01*
X252899Y478557D01*
X279936Y478557D01*
X280007Y478568D01*
X280078Y478570D01*
X280127Y478588D01*
X280179Y478596D01*
X280242Y478630D01*
X280309Y478655D01*
X280350Y478687D01*
X280396Y478712D01*
X280445Y478763D01*
X280501Y478808D01*
X280530Y478852D01*
X280566Y478890D01*
X280596Y478955D01*
X280634Y479015D01*
X280647Y479066D01*
X280669Y479113D01*
X280677Y479184D01*
X280695Y479254D01*
X280690Y479306D01*
X280696Y479357D01*
X280681Y479428D01*
X280675Y479499D01*
X280655Y479547D01*
X280644Y479598D01*
X280607Y479659D01*
X280579Y479725D01*
X280534Y479781D01*
X280518Y479809D01*
X280500Y479824D01*
X280474Y479856D01*
X236070Y524260D01*
X236012Y524302D01*
X235960Y524352D01*
X235913Y524374D01*
X235871Y524404D01*
X235802Y524425D01*
X235737Y524455D01*
X235685Y524461D01*
X235635Y524476D01*
X235564Y524474D01*
X235493Y524482D01*
X235442Y524471D01*
X235390Y524470D01*
X235322Y524445D01*
X235252Y524430D01*
X235208Y524403D01*
X235159Y524385D01*
X235103Y524341D01*
X235041Y524304D01*
X235007Y524264D01*
X234967Y524232D01*
X234928Y524171D01*
X234881Y524117D01*
X234862Y524069D01*
X234834Y524025D01*
X234816Y523955D01*
X234789Y523889D01*
X234781Y523817D01*
X234773Y523786D01*
X234775Y523763D01*
X234771Y523722D01*
X234771Y518981D01*
X231511Y511112D01*
X225488Y505089D01*
X217619Y501829D01*
X209101Y501829D01*
X201232Y505089D01*
X195209Y511112D01*
X191949Y518981D01*
X191949Y527499D01*
X194968Y534787D01*
X194978Y534831D01*
X194998Y534873D01*
X195006Y534950D01*
X195024Y535026D01*
X195020Y535072D01*
X195025Y535117D01*
X195008Y535194D01*
X195001Y535271D01*
X194982Y535313D01*
X194973Y535358D01*
X194933Y535425D01*
X194901Y535496D01*
X194870Y535530D01*
X194846Y535569D01*
X194787Y535620D01*
X194735Y535677D01*
X194694Y535699D01*
X194660Y535729D01*
X194587Y535758D01*
X194519Y535795D01*
X194474Y535804D01*
X194431Y535821D01*
X194295Y535836D01*
X194277Y535839D01*
X194272Y535838D01*
X194265Y535839D01*
X43007Y535839D01*
X42962Y535832D01*
X42916Y535834D01*
X42841Y535812D01*
X42765Y535800D01*
X42724Y535778D01*
X42680Y535765D01*
X42616Y535721D01*
X42547Y535684D01*
X42516Y535651D01*
X42478Y535625D01*
X42431Y535562D01*
X42378Y535506D01*
X42359Y535464D01*
X42331Y535428D01*
X42307Y535354D01*
X42274Y535283D01*
X42269Y535237D01*
X42255Y535194D01*
X42256Y535116D01*
X42247Y535039D01*
X42257Y534994D01*
X42257Y534948D01*
X42295Y534816D01*
X42299Y534798D01*
X42302Y534794D01*
X42304Y534787D01*
X44271Y530039D01*
X44271Y521521D01*
X41011Y513652D01*
X34988Y507629D01*
X27119Y504369D01*
X18601Y504369D01*
X11213Y507429D01*
X11169Y507440D01*
X11127Y507459D01*
X11050Y507468D01*
X10974Y507486D01*
X10928Y507481D01*
X10883Y507486D01*
X10806Y507470D01*
X10729Y507462D01*
X10687Y507444D01*
X10642Y507434D01*
X10575Y507394D01*
X10504Y507362D01*
X10470Y507331D01*
X10431Y507308D01*
X10380Y507249D01*
X10323Y507196D01*
X10301Y507156D01*
X10271Y507121D01*
X10242Y507049D01*
X10205Y506981D01*
X10196Y506935D01*
X10179Y506893D01*
X10164Y506757D01*
X10161Y506739D01*
X10162Y506734D01*
X10161Y506726D01*
X10161Y10894D01*
X10164Y10875D01*
X10162Y10857D01*
X10184Y10754D01*
X10200Y10651D01*
X10209Y10635D01*
X10213Y10616D01*
X10267Y10526D01*
X10316Y10434D01*
X10329Y10421D01*
X10339Y10405D01*
X10418Y10336D01*
X10494Y10265D01*
X10511Y10257D01*
X10525Y10244D01*
X10622Y10205D01*
X10717Y10161D01*
X10736Y10159D01*
X10753Y10152D01*
X10920Y10133D01*
X73157Y9974D01*
X73228Y9985D01*
G37*
G36*
X501116Y243568D02*
X501116Y243568D01*
X501188Y243570D01*
X501237Y243588D01*
X501288Y243596D01*
X501352Y243630D01*
X501419Y243655D01*
X501460Y243687D01*
X501506Y243712D01*
X501555Y243764D01*
X501611Y243808D01*
X501639Y243852D01*
X501675Y243890D01*
X501705Y243955D01*
X501744Y244015D01*
X501757Y244066D01*
X501779Y244113D01*
X501787Y244184D01*
X501804Y244254D01*
X501800Y244306D01*
X501806Y244357D01*
X501791Y244428D01*
X501785Y244499D01*
X501765Y244547D01*
X501754Y244598D01*
X501717Y244659D01*
X501689Y244725D01*
X501644Y244781D01*
X501627Y244809D01*
X501610Y244824D01*
X501584Y244856D01*
X499585Y246855D01*
X498347Y249843D01*
X498347Y253077D01*
X499585Y256065D01*
X501871Y258351D01*
X504859Y259589D01*
X521301Y259589D01*
X524289Y258351D01*
X526575Y256065D01*
X527813Y253077D01*
X527813Y249779D01*
X527812Y249776D01*
X527813Y249750D01*
X527807Y249725D01*
X527816Y249628D01*
X527818Y249530D01*
X527827Y249506D01*
X527830Y249480D01*
X527869Y249391D01*
X527903Y249299D01*
X527919Y249279D01*
X527930Y249255D01*
X527995Y249183D01*
X528056Y249107D01*
X528078Y249093D01*
X528096Y249074D01*
X528181Y249027D01*
X528263Y248974D01*
X528289Y248968D01*
X528311Y248955D01*
X528407Y248938D01*
X528502Y248914D01*
X528528Y248916D01*
X528553Y248911D01*
X528650Y248926D01*
X528747Y248933D01*
X528771Y248943D01*
X528797Y248947D01*
X528884Y248991D01*
X528973Y249030D01*
X528999Y249050D01*
X529016Y249059D01*
X529039Y249082D01*
X529104Y249134D01*
X558527Y278557D01*
X563912Y278557D01*
X564026Y278576D01*
X564143Y278593D01*
X564148Y278595D01*
X564154Y278596D01*
X564257Y278651D01*
X564362Y278704D01*
X564366Y278709D01*
X564372Y278712D01*
X564451Y278795D01*
X564534Y278880D01*
X564538Y278886D01*
X564541Y278890D01*
X564549Y278907D01*
X564615Y279027D01*
X565625Y281465D01*
X567911Y283751D01*
X570899Y284989D01*
X587341Y284989D01*
X590329Y283751D01*
X592615Y281465D01*
X593853Y278477D01*
X593853Y275721D01*
X593864Y275650D01*
X593866Y275578D01*
X593884Y275529D01*
X593892Y275478D01*
X593926Y275414D01*
X593951Y275347D01*
X593983Y275306D01*
X594008Y275260D01*
X594060Y275211D01*
X594104Y275155D01*
X594148Y275127D01*
X594186Y275091D01*
X594251Y275061D01*
X594311Y275022D01*
X594362Y275009D01*
X594409Y274987D01*
X594480Y274979D01*
X594550Y274962D01*
X594602Y274966D01*
X594653Y274960D01*
X594724Y274976D01*
X594795Y274981D01*
X594843Y275001D01*
X594894Y275013D01*
X594955Y275049D01*
X595021Y275077D01*
X595077Y275122D01*
X595105Y275139D01*
X595120Y275157D01*
X595152Y275182D01*
X613527Y293557D01*
X624606Y293557D01*
X624676Y293568D01*
X624748Y293570D01*
X624797Y293588D01*
X624848Y293596D01*
X624912Y293630D01*
X624979Y293655D01*
X625020Y293687D01*
X625066Y293712D01*
X625115Y293764D01*
X625171Y293808D01*
X625199Y293852D01*
X625235Y293890D01*
X625265Y293955D01*
X625304Y294015D01*
X625317Y294066D01*
X625339Y294113D01*
X625347Y294184D01*
X625364Y294254D01*
X625360Y294306D01*
X625366Y294357D01*
X625351Y294428D01*
X625345Y294499D01*
X625325Y294547D01*
X625314Y294598D01*
X625277Y294659D01*
X625249Y294725D01*
X625204Y294781D01*
X625187Y294809D01*
X625170Y294824D01*
X625144Y294856D01*
X624205Y295795D01*
X622967Y298783D01*
X622967Y302017D01*
X624205Y305005D01*
X626491Y307291D01*
X629479Y308529D01*
X640483Y308529D01*
X640574Y308543D01*
X640664Y308551D01*
X640694Y308563D01*
X640726Y308568D01*
X640807Y308611D01*
X640891Y308647D01*
X640923Y308673D01*
X640944Y308684D01*
X640952Y308693D01*
X640953Y308693D01*
X640968Y308709D01*
X641022Y308752D01*
X646220Y313950D01*
X646273Y314024D01*
X646333Y314094D01*
X646345Y314124D01*
X646364Y314150D01*
X646391Y314237D01*
X646425Y314322D01*
X646429Y314363D01*
X646436Y314385D01*
X646435Y314417D01*
X646443Y314489D01*
X646443Y332462D01*
X646424Y332577D01*
X646407Y332693D01*
X646405Y332699D01*
X646404Y332705D01*
X646349Y332807D01*
X646296Y332912D01*
X646291Y332917D01*
X646288Y332922D01*
X646204Y333002D01*
X646120Y333085D01*
X646114Y333088D01*
X646110Y333092D01*
X646093Y333099D01*
X645973Y333165D01*
X645395Y333405D01*
X643109Y335691D01*
X641871Y338679D01*
X641871Y355121D01*
X643109Y358109D01*
X645395Y360395D01*
X648383Y361633D01*
X651617Y361633D01*
X654605Y360395D01*
X656891Y358109D01*
X658129Y355121D01*
X658129Y338679D01*
X656891Y335691D01*
X654605Y333405D01*
X654027Y333165D01*
X653927Y333104D01*
X653827Y333044D01*
X653823Y333039D01*
X653818Y333036D01*
X653743Y332946D01*
X653667Y332857D01*
X653665Y332851D01*
X653661Y332846D01*
X653619Y332738D01*
X653575Y332629D01*
X653574Y332621D01*
X653573Y332617D01*
X653572Y332598D01*
X653557Y332462D01*
X653557Y311227D01*
X651250Y308920D01*
X649803Y307473D01*
X649792Y307457D01*
X649776Y307445D01*
X649720Y307357D01*
X649660Y307273D01*
X649654Y307254D01*
X649643Y307238D01*
X649618Y307137D01*
X649587Y307038D01*
X649588Y307018D01*
X649583Y306999D01*
X649591Y306896D01*
X649594Y306792D01*
X649600Y306774D01*
X649602Y306754D01*
X649642Y306659D01*
X649678Y306561D01*
X649691Y306546D01*
X649698Y306528D01*
X649803Y306397D01*
X651195Y305005D01*
X651224Y304935D01*
X651285Y304836D01*
X651346Y304735D01*
X651350Y304731D01*
X651354Y304726D01*
X651444Y304651D01*
X651533Y304575D01*
X651538Y304573D01*
X651543Y304569D01*
X651652Y304527D01*
X651761Y304483D01*
X651768Y304482D01*
X651773Y304481D01*
X651791Y304480D01*
X651927Y304465D01*
X675000Y304465D01*
X675020Y304468D01*
X675039Y304466D01*
X675141Y304488D01*
X675243Y304504D01*
X675260Y304514D01*
X675280Y304518D01*
X675369Y304571D01*
X675460Y304620D01*
X675474Y304634D01*
X675491Y304644D01*
X675558Y304723D01*
X675630Y304798D01*
X675638Y304816D01*
X675651Y304831D01*
X675690Y304927D01*
X675733Y305021D01*
X675735Y305041D01*
X675743Y305059D01*
X675761Y305226D01*
X675761Y444685D01*
X685315Y454239D01*
X890000Y454239D01*
X890090Y454254D01*
X890181Y454261D01*
X890211Y454273D01*
X890243Y454279D01*
X890323Y454321D01*
X890407Y454357D01*
X890439Y454383D01*
X890460Y454394D01*
X890482Y454417D01*
X890538Y454462D01*
X925538Y489462D01*
X925591Y489536D01*
X925651Y489605D01*
X925663Y489635D01*
X925682Y489661D01*
X925709Y489748D01*
X925743Y489833D01*
X925747Y489874D01*
X925754Y489897D01*
X925753Y489929D01*
X925761Y490000D01*
X925761Y532562D01*
X925758Y532581D01*
X925760Y532601D01*
X925738Y532703D01*
X925722Y532805D01*
X925712Y532822D01*
X925708Y532841D01*
X925655Y532931D01*
X925606Y533022D01*
X925592Y533035D01*
X925582Y533053D01*
X925503Y533120D01*
X925428Y533191D01*
X925410Y533200D01*
X925395Y533212D01*
X925299Y533251D01*
X925205Y533295D01*
X925185Y533297D01*
X925167Y533305D01*
X925000Y533323D01*
X908083Y533329D01*
X908038Y533322D01*
X907992Y533324D01*
X907917Y533302D01*
X907841Y533289D01*
X907800Y533268D01*
X907756Y533255D01*
X907692Y533211D01*
X907623Y533174D01*
X907591Y533141D01*
X907554Y533115D01*
X907507Y533052D01*
X907454Y532996D01*
X907434Y532954D01*
X907407Y532917D01*
X907383Y532843D01*
X907350Y532773D01*
X907345Y532727D01*
X907331Y532684D01*
X907331Y532606D01*
X907323Y532529D01*
X907333Y532484D01*
X907333Y532438D01*
X907371Y532307D01*
X907375Y532288D01*
X907378Y532284D01*
X907380Y532276D01*
X910411Y524959D01*
X910411Y516441D01*
X907151Y508572D01*
X901128Y502549D01*
X893259Y499289D01*
X884741Y499289D01*
X876872Y502549D01*
X870849Y508572D01*
X867589Y516441D01*
X867589Y524959D01*
X870626Y532290D01*
X870636Y532334D01*
X870656Y532376D01*
X870664Y532454D01*
X870682Y532529D01*
X870678Y532575D01*
X870683Y532620D01*
X870666Y532697D01*
X870659Y532774D01*
X870640Y532816D01*
X870631Y532861D01*
X870591Y532928D01*
X870559Y532999D01*
X870528Y533033D01*
X870505Y533072D01*
X870445Y533123D01*
X870393Y533180D01*
X870352Y533202D01*
X870318Y533232D01*
X870245Y533261D01*
X870177Y533299D01*
X870132Y533307D01*
X870090Y533324D01*
X869953Y533339D01*
X869935Y533342D01*
X869930Y533342D01*
X869923Y533342D01*
X738931Y533389D01*
X738885Y533381D01*
X738839Y533383D01*
X738765Y533361D01*
X738688Y533349D01*
X738647Y533327D01*
X738603Y533315D01*
X738539Y533270D01*
X738470Y533234D01*
X738439Y533201D01*
X738401Y533174D01*
X738355Y533112D01*
X738301Y533056D01*
X738282Y533014D01*
X738254Y532977D01*
X738230Y532903D01*
X738197Y532833D01*
X738192Y532787D01*
X738178Y532743D01*
X738179Y532665D01*
X738170Y532588D01*
X738180Y532543D01*
X738180Y532497D01*
X738218Y532366D01*
X738222Y532348D01*
X738225Y532343D01*
X738227Y532336D01*
X740231Y527499D01*
X740231Y518981D01*
X736971Y511112D01*
X730948Y505089D01*
X723079Y501829D01*
X714561Y501829D01*
X706692Y505089D01*
X700669Y511112D01*
X698150Y517192D01*
X698126Y517231D01*
X698110Y517274D01*
X698062Y517335D01*
X698021Y517401D01*
X697985Y517431D01*
X697957Y517466D01*
X697891Y517508D01*
X697831Y517558D01*
X697788Y517575D01*
X697750Y517599D01*
X697674Y517618D01*
X697602Y517646D01*
X697556Y517648D01*
X697511Y517659D01*
X697434Y517653D01*
X697356Y517657D01*
X697312Y517644D01*
X697266Y517640D01*
X697194Y517610D01*
X697120Y517588D01*
X697082Y517562D01*
X697040Y517544D01*
X696933Y517459D01*
X696918Y517448D01*
X696915Y517444D01*
X696909Y517439D01*
X658961Y479491D01*
X655996Y476526D01*
X652261Y474979D01*
X551889Y474979D01*
X551818Y474968D01*
X551746Y474966D01*
X551697Y474948D01*
X551646Y474940D01*
X551582Y474906D01*
X551515Y474881D01*
X551474Y474849D01*
X551428Y474824D01*
X551379Y474772D01*
X551323Y474728D01*
X551295Y474684D01*
X551259Y474646D01*
X551229Y474581D01*
X551190Y474521D01*
X551177Y474470D01*
X551155Y474423D01*
X551147Y474352D01*
X551130Y474282D01*
X551134Y474230D01*
X551128Y474179D01*
X551144Y474108D01*
X551149Y474037D01*
X551169Y473989D01*
X551181Y473938D01*
X551217Y473877D01*
X551245Y473811D01*
X551290Y473755D01*
X551307Y473727D01*
X551325Y473712D01*
X551350Y473680D01*
X553780Y471250D01*
X578557Y446473D01*
X578557Y311150D01*
X578560Y311130D01*
X578558Y311111D01*
X578580Y311009D01*
X578596Y310907D01*
X578606Y310890D01*
X578610Y310870D01*
X578663Y310781D01*
X578712Y310690D01*
X578726Y310676D01*
X578736Y310659D01*
X578815Y310592D01*
X578890Y310520D01*
X578908Y310512D01*
X578923Y310499D01*
X579019Y310460D01*
X579113Y310417D01*
X579133Y310415D01*
X579151Y310407D01*
X579318Y310389D01*
X587341Y310389D01*
X590329Y309151D01*
X592615Y306865D01*
X593853Y303877D01*
X593853Y300643D01*
X592615Y297655D01*
X590329Y295369D01*
X587341Y294131D01*
X570899Y294131D01*
X567911Y295369D01*
X565625Y297655D01*
X565021Y299112D01*
X564970Y299195D01*
X564924Y299281D01*
X564906Y299299D01*
X564892Y299322D01*
X564816Y299384D01*
X564746Y299451D01*
X564722Y299462D01*
X564702Y299478D01*
X564611Y299513D01*
X564523Y299554D01*
X564497Y299557D01*
X564473Y299567D01*
X564375Y299571D01*
X564279Y299581D01*
X564253Y299576D01*
X564227Y299577D01*
X564133Y299550D01*
X564038Y299529D01*
X564016Y299516D01*
X563991Y299508D01*
X563911Y299453D01*
X563827Y299403D01*
X563810Y299383D01*
X563789Y299368D01*
X563730Y299290D01*
X563667Y299216D01*
X563657Y299192D01*
X563642Y299171D01*
X563612Y299078D01*
X563575Y298988D01*
X563572Y298955D01*
X563566Y298937D01*
X563566Y298904D01*
X563557Y298821D01*
X563557Y298527D01*
X526473Y261443D01*
X441789Y261443D01*
X441699Y261429D01*
X441608Y261421D01*
X441578Y261409D01*
X441546Y261404D01*
X441465Y261361D01*
X441381Y261325D01*
X441349Y261299D01*
X441328Y261288D01*
X441306Y261265D01*
X441250Y261220D01*
X440918Y260888D01*
X440876Y260830D01*
X440827Y260778D01*
X440805Y260731D01*
X440775Y260689D01*
X440754Y260620D01*
X440723Y260555D01*
X440718Y260503D01*
X440702Y260453D01*
X440704Y260382D01*
X440696Y260311D01*
X440707Y260260D01*
X440709Y260208D01*
X440733Y260140D01*
X440749Y260070D01*
X440775Y260025D01*
X440793Y259977D01*
X440838Y259921D01*
X440875Y259859D01*
X440914Y259825D01*
X440947Y259785D01*
X441007Y259746D01*
X441062Y259699D01*
X441110Y259680D01*
X441154Y259652D01*
X441223Y259634D01*
X441290Y259607D01*
X441361Y259599D01*
X441392Y259591D01*
X441416Y259593D01*
X441457Y259589D01*
X457801Y259589D01*
X460789Y258351D01*
X463075Y256065D01*
X464313Y253077D01*
X464313Y249843D01*
X463075Y246855D01*
X461076Y244856D01*
X461034Y244798D01*
X460985Y244746D01*
X460963Y244699D01*
X460932Y244657D01*
X460911Y244588D01*
X460881Y244523D01*
X460875Y244471D01*
X460860Y244421D01*
X460862Y244350D01*
X460854Y244279D01*
X460865Y244228D01*
X460866Y244176D01*
X460891Y244108D01*
X460906Y244038D01*
X460933Y243993D01*
X460951Y243945D01*
X460996Y243889D01*
X461033Y243827D01*
X461072Y243793D01*
X461105Y243753D01*
X461165Y243714D01*
X461219Y243667D01*
X461268Y243648D01*
X461312Y243620D01*
X461381Y243602D01*
X461448Y243575D01*
X461519Y243567D01*
X461550Y243559D01*
X461573Y243561D01*
X461614Y243557D01*
X501046Y243557D01*
X501116Y243568D01*
G37*
G36*
X370676Y249771D02*
X370676Y249771D01*
X370728Y249773D01*
X370796Y249797D01*
X370866Y249813D01*
X370911Y249839D01*
X370959Y249857D01*
X371015Y249902D01*
X371077Y249939D01*
X371111Y249978D01*
X371151Y250011D01*
X371190Y250071D01*
X371237Y250126D01*
X371256Y250174D01*
X371284Y250218D01*
X371302Y250287D01*
X371329Y250354D01*
X371337Y250425D01*
X371345Y250456D01*
X371343Y250480D01*
X371347Y250521D01*
X371347Y253077D01*
X372585Y256065D01*
X374871Y258351D01*
X377859Y259589D01*
X394301Y259589D01*
X396652Y258615D01*
X396716Y258600D01*
X396777Y258575D01*
X396860Y258566D01*
X396892Y258559D01*
X396911Y258560D01*
X396944Y258557D01*
X428211Y258557D01*
X428302Y258571D01*
X428392Y258579D01*
X428422Y258591D01*
X428454Y258596D01*
X428535Y258639D01*
X428619Y258675D01*
X428651Y258701D01*
X428672Y258712D01*
X428694Y258735D01*
X428750Y258780D01*
X438674Y268704D01*
X438701Y268741D01*
X438735Y268773D01*
X438772Y268841D01*
X438818Y268904D01*
X438831Y268948D01*
X438853Y268988D01*
X438867Y269065D01*
X438890Y269139D01*
X438889Y269185D01*
X438897Y269230D01*
X438886Y269307D01*
X438884Y269385D01*
X438868Y269428D01*
X438861Y269473D01*
X438826Y269543D01*
X438799Y269616D01*
X438771Y269652D01*
X438750Y269693D01*
X438694Y269747D01*
X438646Y269808D01*
X438607Y269833D01*
X438574Y269865D01*
X438454Y269931D01*
X438439Y269941D01*
X438434Y269942D01*
X438427Y269946D01*
X438371Y269969D01*
X437120Y271220D01*
X437046Y271273D01*
X436977Y271333D01*
X436946Y271345D01*
X436920Y271364D01*
X436833Y271391D01*
X436748Y271425D01*
X436707Y271429D01*
X436685Y271436D01*
X436653Y271435D01*
X436582Y271443D01*
X411789Y271443D01*
X411698Y271429D01*
X411608Y271421D01*
X411578Y271409D01*
X411546Y271404D01*
X411465Y271361D01*
X411381Y271325D01*
X411349Y271299D01*
X411328Y271288D01*
X411306Y271265D01*
X411250Y271220D01*
X401473Y261443D01*
X369263Y261443D01*
X369173Y261429D01*
X369082Y261421D01*
X369053Y261409D01*
X369021Y261404D01*
X368940Y261361D01*
X368856Y261325D01*
X368824Y261299D01*
X368803Y261288D01*
X368781Y261265D01*
X368725Y261220D01*
X367198Y259693D01*
X362802Y259693D01*
X359693Y262802D01*
X359693Y267198D01*
X362802Y270307D01*
X367198Y270307D01*
X368725Y268780D01*
X368799Y268727D01*
X368869Y268667D01*
X368899Y268655D01*
X368925Y268636D01*
X369012Y268609D01*
X369097Y268575D01*
X369138Y268571D01*
X369160Y268564D01*
X369192Y268565D01*
X369263Y268557D01*
X374453Y268557D01*
X374550Y268573D01*
X374581Y268576D01*
X374583Y268576D01*
X374648Y268582D01*
X374671Y268592D01*
X374696Y268596D01*
X374783Y268642D01*
X374873Y268683D01*
X374891Y268700D01*
X374914Y268712D01*
X374981Y268783D01*
X375053Y268849D01*
X375066Y268872D01*
X375083Y268890D01*
X375124Y268979D01*
X375172Y269065D01*
X375176Y269090D01*
X375187Y269113D01*
X375197Y269210D01*
X375215Y269307D01*
X375211Y269332D01*
X375214Y269357D01*
X375193Y269453D01*
X375178Y269551D01*
X375167Y269573D01*
X375161Y269598D01*
X375111Y269682D01*
X375066Y269770D01*
X375048Y269787D01*
X375035Y269809D01*
X374989Y269848D01*
X374979Y269862D01*
X372585Y272255D01*
X371347Y275243D01*
X371347Y278477D01*
X372585Y281465D01*
X374925Y283805D01*
X374981Y283839D01*
X375010Y283875D01*
X375046Y283904D01*
X375088Y283969D01*
X375137Y284029D01*
X375154Y284072D01*
X375179Y284110D01*
X375198Y284186D01*
X375226Y284259D01*
X375228Y284304D01*
X375239Y284349D01*
X375233Y284426D01*
X375236Y284504D01*
X375223Y284548D01*
X375220Y284594D01*
X375189Y284666D01*
X375168Y284741D01*
X375141Y284778D01*
X375123Y284820D01*
X375038Y284927D01*
X375027Y284943D01*
X375023Y284946D01*
X375019Y284951D01*
X363750Y296220D01*
X361443Y298527D01*
X361443Y306473D01*
X378527Y323557D01*
X421697Y323557D01*
X421768Y323568D01*
X421840Y323570D01*
X421889Y323588D01*
X421940Y323596D01*
X422003Y323630D01*
X422071Y323655D01*
X422111Y323687D01*
X422157Y323712D01*
X422207Y323764D01*
X422263Y323808D01*
X422291Y323852D01*
X422327Y323890D01*
X422357Y323955D01*
X422396Y324015D01*
X422408Y324066D01*
X422430Y324113D01*
X422438Y324184D01*
X422456Y324254D01*
X422452Y324306D01*
X422457Y324357D01*
X422442Y324428D01*
X422437Y324499D01*
X422416Y324547D01*
X422405Y324598D01*
X422368Y324659D01*
X422340Y324725D01*
X422296Y324781D01*
X422279Y324809D01*
X422261Y324824D01*
X422236Y324856D01*
X416178Y330913D01*
X416178Y333757D01*
X425958Y333757D01*
X425978Y333760D01*
X425997Y333758D01*
X426099Y333780D01*
X426201Y333797D01*
X426218Y333806D01*
X426238Y333810D01*
X426327Y333863D01*
X426418Y333912D01*
X426432Y333926D01*
X426449Y333936D01*
X426516Y334015D01*
X426587Y334090D01*
X426596Y334108D01*
X426609Y334123D01*
X426647Y334219D01*
X426691Y334313D01*
X426693Y334333D01*
X426701Y334351D01*
X426719Y334518D01*
X426719Y335281D01*
X426721Y335281D01*
X426721Y334518D01*
X426724Y334498D01*
X426722Y334479D01*
X426744Y334377D01*
X426761Y334275D01*
X426770Y334258D01*
X426774Y334238D01*
X426827Y334149D01*
X426876Y334058D01*
X426890Y334044D01*
X426900Y334027D01*
X426979Y333960D01*
X427054Y333889D01*
X427072Y333880D01*
X427087Y333867D01*
X427183Y333828D01*
X427277Y333785D01*
X427297Y333783D01*
X427315Y333775D01*
X427482Y333757D01*
X437359Y333757D01*
X437360Y333756D01*
X437392Y333715D01*
X437417Y333669D01*
X437469Y333620D01*
X437513Y333564D01*
X437557Y333536D01*
X437595Y333500D01*
X437660Y333470D01*
X437720Y333431D01*
X437771Y333418D01*
X437818Y333396D01*
X437889Y333388D01*
X437959Y333371D01*
X438011Y333375D01*
X438062Y333369D01*
X438133Y333385D01*
X438204Y333390D01*
X438252Y333410D01*
X438303Y333422D01*
X438364Y333458D01*
X438430Y333486D01*
X438486Y333531D01*
X438514Y333548D01*
X438529Y333566D01*
X438561Y333591D01*
X533430Y428460D01*
X533483Y428534D01*
X533543Y428604D01*
X533555Y428634D01*
X533574Y428660D01*
X533601Y428747D01*
X533635Y428832D01*
X533639Y428873D01*
X533646Y428895D01*
X533645Y428927D01*
X533653Y428999D01*
X533653Y435904D01*
X539456Y441707D01*
X540682Y441707D01*
X540702Y441710D01*
X540721Y441708D01*
X540823Y441730D01*
X540925Y441746D01*
X540942Y441756D01*
X540962Y441760D01*
X541051Y441813D01*
X541142Y441862D01*
X541156Y441876D01*
X541173Y441886D01*
X541240Y441965D01*
X541312Y442040D01*
X541320Y442058D01*
X541333Y442073D01*
X541372Y442169D01*
X541415Y442263D01*
X541417Y442283D01*
X541425Y442301D01*
X541443Y442468D01*
X541443Y443992D01*
X541440Y444012D01*
X541442Y444031D01*
X541420Y444133D01*
X541404Y444235D01*
X541394Y444252D01*
X541390Y444272D01*
X541337Y444361D01*
X541288Y444452D01*
X541274Y444466D01*
X541264Y444483D01*
X541185Y444550D01*
X541110Y444622D01*
X541092Y444630D01*
X541077Y444643D01*
X540981Y444682D01*
X540887Y444725D01*
X540867Y444727D01*
X540849Y444735D01*
X540682Y444753D01*
X539456Y444753D01*
X533653Y450556D01*
X533653Y458764D01*
X539456Y464567D01*
X547664Y464567D01*
X553467Y458764D01*
X553467Y450556D01*
X548780Y445869D01*
X548727Y445796D01*
X548667Y445726D01*
X548655Y445696D01*
X548636Y445670D01*
X548609Y445583D01*
X548575Y445498D01*
X548571Y445457D01*
X548564Y445435D01*
X548565Y445402D01*
X548557Y445331D01*
X548557Y441129D01*
X548571Y441039D01*
X548579Y440948D01*
X548591Y440918D01*
X548596Y440886D01*
X548639Y440805D01*
X548675Y440722D01*
X548701Y440689D01*
X548712Y440669D01*
X548735Y440647D01*
X548780Y440591D01*
X553467Y435904D01*
X553467Y427696D01*
X547664Y421893D01*
X539456Y421893D01*
X538728Y422622D01*
X538712Y422633D01*
X538700Y422649D01*
X538612Y422705D01*
X538528Y422765D01*
X538509Y422771D01*
X538493Y422782D01*
X538392Y422807D01*
X538293Y422838D01*
X538273Y422837D01*
X538254Y422842D01*
X538151Y422834D01*
X538047Y422831D01*
X538029Y422824D01*
X538009Y422823D01*
X537914Y422782D01*
X537816Y422747D01*
X537801Y422734D01*
X537783Y422726D01*
X537652Y422622D01*
X484886Y369856D01*
X484844Y369798D01*
X484795Y369746D01*
X484773Y369699D01*
X484743Y369657D01*
X484722Y369588D01*
X484691Y369523D01*
X484686Y369471D01*
X484670Y369421D01*
X484672Y369350D01*
X484664Y369279D01*
X484675Y369228D01*
X484677Y369176D01*
X484701Y369108D01*
X484717Y369038D01*
X484743Y368994D01*
X484761Y368945D01*
X484806Y368889D01*
X484843Y368827D01*
X484882Y368793D01*
X484915Y368753D01*
X484975Y368714D01*
X485030Y368667D01*
X485078Y368648D01*
X485122Y368620D01*
X485191Y368602D01*
X485258Y368575D01*
X485329Y368567D01*
X485360Y368559D01*
X485384Y368561D01*
X485425Y368557D01*
X533899Y368557D01*
X534014Y368576D01*
X534130Y368593D01*
X534136Y368595D01*
X534142Y368596D01*
X534245Y368651D01*
X534349Y368704D01*
X534354Y368709D01*
X534359Y368712D01*
X534439Y368796D01*
X534522Y368880D01*
X534525Y368886D01*
X534529Y368890D01*
X534537Y368907D01*
X534603Y369027D01*
X535484Y371156D01*
X538164Y373836D01*
X540973Y374999D01*
X541073Y375061D01*
X541173Y375121D01*
X541177Y375125D01*
X541182Y375129D01*
X541257Y375218D01*
X541333Y375308D01*
X541335Y375313D01*
X541339Y375318D01*
X541381Y375426D01*
X541425Y375536D01*
X541426Y375543D01*
X541427Y375548D01*
X541428Y375566D01*
X541443Y375702D01*
X541443Y377190D01*
X541440Y377210D01*
X541442Y377229D01*
X541420Y377331D01*
X541404Y377433D01*
X541394Y377450D01*
X541390Y377470D01*
X541337Y377559D01*
X541288Y377650D01*
X541274Y377664D01*
X541264Y377681D01*
X541185Y377748D01*
X541110Y377820D01*
X541092Y377828D01*
X541077Y377841D01*
X540981Y377880D01*
X540887Y377923D01*
X540867Y377925D01*
X540849Y377933D01*
X540682Y377951D01*
X535339Y377951D01*
X532351Y379189D01*
X530065Y381475D01*
X528827Y384463D01*
X528827Y387697D01*
X530065Y390685D01*
X532351Y392971D01*
X535339Y394209D01*
X551423Y394209D01*
X551494Y394220D01*
X551566Y394222D01*
X551615Y394240D01*
X551666Y394248D01*
X551729Y394282D01*
X551797Y394307D01*
X551838Y394339D01*
X551884Y394364D01*
X551933Y394415D01*
X551989Y394460D01*
X552017Y394504D01*
X552053Y394542D01*
X552083Y394607D01*
X552122Y394667D01*
X552135Y394718D01*
X552157Y394765D01*
X552165Y394836D01*
X552182Y394906D01*
X552178Y394958D01*
X552184Y395009D01*
X552168Y395080D01*
X552163Y395151D01*
X552143Y395199D01*
X552131Y395250D01*
X552095Y395311D01*
X552067Y395377D01*
X552022Y395433D01*
X552005Y395461D01*
X551987Y395476D01*
X551962Y395508D01*
X548588Y398882D01*
X548572Y398893D01*
X548560Y398909D01*
X548472Y398965D01*
X548389Y399025D01*
X548370Y399031D01*
X548353Y399042D01*
X548252Y399067D01*
X548154Y399098D01*
X548134Y399097D01*
X548114Y399102D01*
X548011Y399094D01*
X547908Y399091D01*
X547889Y399084D01*
X547869Y399083D01*
X547774Y399042D01*
X547749Y399033D01*
X539456Y399033D01*
X533653Y404836D01*
X533653Y413044D01*
X539456Y418847D01*
X547664Y418847D01*
X553467Y413044D01*
X553467Y404766D01*
X553458Y404753D01*
X553442Y404686D01*
X553430Y404661D01*
X553426Y404631D01*
X553402Y404553D01*
X553403Y404533D01*
X553398Y404514D01*
X553404Y404433D01*
X553403Y404417D01*
X553406Y404399D01*
X553409Y404307D01*
X553416Y404289D01*
X553417Y404269D01*
X553453Y404185D01*
X553455Y404176D01*
X553460Y404168D01*
X553493Y404076D01*
X553506Y404061D01*
X553514Y404043D01*
X553618Y403912D01*
X561574Y395956D01*
X563881Y393649D01*
X563881Y380398D01*
X563780Y380297D01*
X563727Y380223D01*
X563667Y380154D01*
X563655Y380124D01*
X563636Y380098D01*
X563609Y380011D01*
X563575Y379926D01*
X563571Y379885D01*
X563564Y379862D01*
X563565Y379830D01*
X563557Y379759D01*
X563557Y305699D01*
X563572Y305603D01*
X563582Y305506D01*
X563592Y305482D01*
X563596Y305456D01*
X563642Y305370D01*
X563682Y305281D01*
X563699Y305262D01*
X563712Y305239D01*
X563782Y305172D01*
X563848Y305100D01*
X563871Y305087D01*
X563890Y305069D01*
X563978Y305028D01*
X564064Y304981D01*
X564089Y304977D01*
X564113Y304966D01*
X564210Y304955D01*
X564306Y304938D01*
X564332Y304941D01*
X564357Y304939D01*
X564453Y304959D01*
X564549Y304973D01*
X564572Y304985D01*
X564598Y304991D01*
X564681Y305041D01*
X564768Y305085D01*
X564787Y305104D01*
X564809Y305117D01*
X564872Y305191D01*
X564940Y305261D01*
X564956Y305289D01*
X564969Y305304D01*
X564981Y305335D01*
X565021Y305408D01*
X565625Y306865D01*
X567911Y309151D01*
X570973Y310419D01*
X571073Y310481D01*
X571173Y310541D01*
X571177Y310546D01*
X571182Y310549D01*
X571257Y310640D01*
X571333Y310728D01*
X571335Y310734D01*
X571339Y310739D01*
X571381Y310847D01*
X571425Y310956D01*
X571426Y310964D01*
X571427Y310968D01*
X571428Y310986D01*
X571443Y311123D01*
X571443Y443211D01*
X571429Y443302D01*
X571421Y443392D01*
X571409Y443422D01*
X571404Y443454D01*
X571361Y443535D01*
X571325Y443619D01*
X571299Y443651D01*
X571288Y443672D01*
X571265Y443694D01*
X571220Y443750D01*
X548750Y466220D01*
X548676Y466273D01*
X548606Y466333D01*
X548576Y466345D01*
X548550Y466364D01*
X548463Y466391D01*
X548378Y466425D01*
X548337Y466429D01*
X548315Y466436D01*
X548283Y466435D01*
X548211Y466443D01*
X472862Y466443D01*
X472791Y466432D01*
X472719Y466430D01*
X472670Y466412D01*
X472619Y466404D01*
X472556Y466370D01*
X472488Y466345D01*
X472448Y466313D01*
X472401Y466288D01*
X472352Y466236D01*
X472296Y466192D01*
X472268Y466148D01*
X472232Y466110D01*
X472202Y466045D01*
X472163Y465985D01*
X472150Y465934D01*
X472128Y465887D01*
X472121Y465816D01*
X472103Y465746D01*
X472107Y465694D01*
X472101Y465643D01*
X472117Y465572D01*
X472122Y465501D01*
X472143Y465453D01*
X472154Y465402D01*
X472190Y465341D01*
X472219Y465275D01*
X472263Y465219D01*
X472280Y465191D01*
X472298Y465176D01*
X472323Y465144D01*
X478283Y459184D01*
X478283Y456183D01*
X468122Y456183D01*
X468102Y456180D01*
X468083Y456182D01*
X467981Y456160D01*
X467879Y456143D01*
X467862Y456134D01*
X467842Y456130D01*
X467753Y456077D01*
X467662Y456028D01*
X467648Y456014D01*
X467631Y456004D01*
X467564Y455925D01*
X467493Y455850D01*
X467484Y455832D01*
X467471Y455817D01*
X467433Y455721D01*
X467389Y455627D01*
X467387Y455607D01*
X467379Y455589D01*
X467361Y455422D01*
X467361Y454659D01*
X467359Y454659D01*
X467359Y455422D01*
X467356Y455442D01*
X467358Y455461D01*
X467336Y455563D01*
X467319Y455665D01*
X467310Y455682D01*
X467306Y455702D01*
X467253Y455791D01*
X467204Y455882D01*
X467190Y455896D01*
X467180Y455913D01*
X467101Y455980D01*
X467026Y456051D01*
X467008Y456060D01*
X466993Y456073D01*
X466897Y456112D01*
X466803Y456155D01*
X466783Y456157D01*
X466765Y456165D01*
X466598Y456183D01*
X456437Y456183D01*
X456437Y459184D01*
X462397Y465144D01*
X462439Y465202D01*
X462488Y465254D01*
X462510Y465301D01*
X462540Y465343D01*
X462561Y465412D01*
X462592Y465477D01*
X462597Y465529D01*
X462613Y465579D01*
X462611Y465650D01*
X462619Y465721D01*
X462608Y465772D01*
X462606Y465824D01*
X462582Y465892D01*
X462566Y465962D01*
X462540Y466007D01*
X462522Y466055D01*
X462477Y466111D01*
X462440Y466173D01*
X462401Y466207D01*
X462368Y466247D01*
X462308Y466286D01*
X462253Y466333D01*
X462205Y466352D01*
X462161Y466380D01*
X462092Y466398D01*
X462025Y466425D01*
X461954Y466433D01*
X461923Y466441D01*
X461899Y466439D01*
X461858Y466443D01*
X434762Y466443D01*
X434691Y466432D01*
X434619Y466430D01*
X434570Y466412D01*
X434519Y466404D01*
X434456Y466370D01*
X434388Y466345D01*
X434348Y466313D01*
X434301Y466288D01*
X434252Y466236D01*
X434196Y466192D01*
X434168Y466148D01*
X434132Y466110D01*
X434102Y466045D01*
X434063Y465985D01*
X434050Y465934D01*
X434028Y465887D01*
X434021Y465816D01*
X434003Y465746D01*
X434007Y465694D01*
X434001Y465643D01*
X434017Y465572D01*
X434022Y465501D01*
X434043Y465453D01*
X434054Y465402D01*
X434090Y465341D01*
X434119Y465275D01*
X434163Y465219D01*
X434180Y465191D01*
X434198Y465176D01*
X434223Y465144D01*
X437643Y461724D01*
X437643Y458723D01*
X427482Y458723D01*
X427462Y458720D01*
X427443Y458722D01*
X427341Y458700D01*
X427239Y458683D01*
X427222Y458674D01*
X427202Y458670D01*
X427113Y458617D01*
X427022Y458568D01*
X427008Y458554D01*
X426991Y458544D01*
X426924Y458465D01*
X426853Y458390D01*
X426844Y458372D01*
X426831Y458357D01*
X426793Y458261D01*
X426749Y458167D01*
X426747Y458147D01*
X426739Y458129D01*
X426721Y457962D01*
X426721Y457199D01*
X426719Y457199D01*
X426719Y457962D01*
X426716Y457982D01*
X426718Y458001D01*
X426696Y458103D01*
X426679Y458205D01*
X426670Y458222D01*
X426666Y458242D01*
X426613Y458331D01*
X426564Y458422D01*
X426550Y458436D01*
X426540Y458453D01*
X426461Y458520D01*
X426386Y458591D01*
X426368Y458600D01*
X426353Y458613D01*
X426257Y458652D01*
X426163Y458695D01*
X426143Y458697D01*
X426125Y458705D01*
X425958Y458723D01*
X415797Y458723D01*
X415797Y458929D01*
X415786Y459000D01*
X415784Y459072D01*
X415766Y459121D01*
X415758Y459172D01*
X415724Y459236D01*
X415699Y459303D01*
X415667Y459344D01*
X415642Y459390D01*
X415590Y459439D01*
X415546Y459495D01*
X415502Y459523D01*
X415464Y459559D01*
X415399Y459589D01*
X415339Y459628D01*
X415288Y459641D01*
X415241Y459663D01*
X415170Y459671D01*
X415100Y459688D01*
X415048Y459684D01*
X414997Y459690D01*
X414926Y459674D01*
X414855Y459669D01*
X414807Y459649D01*
X414756Y459637D01*
X414695Y459601D01*
X414629Y459573D01*
X414573Y459528D01*
X414545Y459511D01*
X414530Y459493D01*
X414498Y459468D01*
X388780Y433750D01*
X388727Y433676D01*
X388667Y433606D01*
X388655Y433576D01*
X388636Y433550D01*
X388609Y433463D01*
X388575Y433378D01*
X388571Y433337D01*
X388564Y433315D01*
X388565Y433283D01*
X388557Y433211D01*
X388557Y394263D01*
X388571Y394173D01*
X388579Y394082D01*
X388591Y394053D01*
X388596Y394021D01*
X388639Y393940D01*
X388675Y393856D01*
X388701Y393824D01*
X388712Y393803D01*
X388735Y393781D01*
X388780Y393725D01*
X390307Y392198D01*
X390307Y387802D01*
X387198Y384693D01*
X382802Y384693D01*
X379693Y387802D01*
X379693Y392198D01*
X381220Y393725D01*
X381273Y393799D01*
X381333Y393869D01*
X381345Y393899D01*
X381364Y393925D01*
X381391Y394012D01*
X381425Y394097D01*
X381429Y394138D01*
X381436Y394160D01*
X381435Y394192D01*
X381443Y394263D01*
X381443Y436473D01*
X383750Y438780D01*
X418650Y473680D01*
X418692Y473738D01*
X418741Y473790D01*
X418763Y473837D01*
X418793Y473879D01*
X418814Y473948D01*
X418845Y474013D01*
X418850Y474065D01*
X418866Y474115D01*
X418864Y474186D01*
X418872Y474257D01*
X418861Y474308D01*
X418859Y474360D01*
X418835Y474428D01*
X418819Y474498D01*
X418793Y474543D01*
X418775Y474591D01*
X418730Y474647D01*
X418693Y474709D01*
X418654Y474743D01*
X418621Y474783D01*
X418561Y474822D01*
X418506Y474869D01*
X418458Y474888D01*
X418414Y474916D01*
X418345Y474934D01*
X418278Y474961D01*
X418207Y474969D01*
X418176Y474977D01*
X418152Y474975D01*
X418111Y474979D01*
X287539Y474979D01*
X286827Y475274D01*
X286732Y475296D01*
X286639Y475325D01*
X286613Y475324D01*
X286588Y475330D01*
X286491Y475321D01*
X286393Y475319D01*
X286369Y475310D01*
X286343Y475307D01*
X286254Y475268D01*
X286162Y475234D01*
X286142Y475218D01*
X286118Y475207D01*
X286046Y475141D01*
X285970Y475081D01*
X285956Y475059D01*
X285937Y475041D01*
X285890Y474955D01*
X285837Y474874D01*
X285831Y474848D01*
X285818Y474825D01*
X285801Y474729D01*
X285777Y474635D01*
X285779Y474609D01*
X285775Y474583D01*
X285789Y474487D01*
X285796Y474390D01*
X285806Y474366D01*
X285810Y474340D01*
X285855Y474253D01*
X285893Y474164D01*
X285913Y474138D01*
X285922Y474121D01*
X285945Y474097D01*
X285997Y474033D01*
X291250Y468780D01*
X291324Y468727D01*
X291394Y468667D01*
X291424Y468655D01*
X291450Y468636D01*
X291537Y468609D01*
X291622Y468575D01*
X291663Y468571D01*
X291685Y468564D01*
X291717Y468565D01*
X291789Y468557D01*
X321473Y468557D01*
X345562Y444468D01*
X345582Y444454D01*
X345597Y444435D01*
X345664Y444393D01*
X345706Y444357D01*
X345729Y444348D01*
X345761Y444325D01*
X345785Y444318D01*
X345806Y444305D01*
X345882Y444286D01*
X345934Y444265D01*
X345967Y444262D01*
X345996Y444252D01*
X346021Y444253D01*
X346045Y444247D01*
X346072Y444250D01*
X346101Y444247D01*
X354624Y444247D01*
X360427Y438444D01*
X360427Y430236D01*
X354624Y424433D01*
X346416Y424433D01*
X340613Y430236D01*
X340613Y438475D01*
X340615Y438478D01*
X340675Y438561D01*
X340681Y438581D01*
X340692Y438597D01*
X340717Y438698D01*
X340748Y438797D01*
X340747Y438817D01*
X340752Y438836D01*
X340744Y438939D01*
X340741Y439042D01*
X340734Y439061D01*
X340733Y439081D01*
X340692Y439176D01*
X340657Y439273D01*
X340644Y439289D01*
X340636Y439307D01*
X340532Y439438D01*
X318750Y461220D01*
X318676Y461273D01*
X318606Y461333D01*
X318576Y461345D01*
X318550Y461364D01*
X318463Y461391D01*
X318378Y461425D01*
X318337Y461429D01*
X318315Y461436D01*
X318283Y461435D01*
X318211Y461443D01*
X316405Y461443D01*
X316334Y461432D01*
X316262Y461430D01*
X316213Y461412D01*
X316162Y461404D01*
X316099Y461370D01*
X316031Y461345D01*
X315991Y461313D01*
X315945Y461288D01*
X315895Y461236D01*
X315839Y461192D01*
X315811Y461148D01*
X315775Y461110D01*
X315745Y461045D01*
X315706Y460985D01*
X315694Y460934D01*
X315672Y460887D01*
X315664Y460816D01*
X315646Y460746D01*
X315650Y460694D01*
X315645Y460643D01*
X315660Y460572D01*
X315665Y460501D01*
X315686Y460453D01*
X315697Y460402D01*
X315734Y460341D01*
X315762Y460275D01*
X315806Y460219D01*
X315823Y460191D01*
X315841Y460176D01*
X315866Y460144D01*
X319787Y456224D01*
X319787Y448016D01*
X313780Y442009D01*
X313727Y441936D01*
X313667Y441866D01*
X313655Y441836D01*
X313636Y441810D01*
X313609Y441723D01*
X313575Y441638D01*
X313571Y441597D01*
X313564Y441575D01*
X313565Y441542D01*
X313557Y441471D01*
X313557Y439909D01*
X313571Y439819D01*
X313579Y439728D01*
X313591Y439698D01*
X313596Y439666D01*
X313639Y439585D01*
X313675Y439502D01*
X313701Y439469D01*
X313712Y439449D01*
X313735Y439427D01*
X313780Y439371D01*
X319787Y433364D01*
X319787Y425156D01*
X317868Y423238D01*
X317857Y423222D01*
X317841Y423210D01*
X317810Y423161D01*
X317803Y423154D01*
X317798Y423142D01*
X317785Y423122D01*
X317725Y423038D01*
X317719Y423019D01*
X317708Y423003D01*
X317683Y422902D01*
X317652Y422803D01*
X317653Y422783D01*
X317648Y422764D01*
X317656Y422661D01*
X317659Y422557D01*
X317666Y422539D01*
X317667Y422519D01*
X317708Y422424D01*
X317743Y422326D01*
X317756Y422311D01*
X317764Y422293D01*
X317868Y422162D01*
X328557Y411473D01*
X328557Y391789D01*
X328571Y391698D01*
X328579Y391608D01*
X328591Y391578D01*
X328596Y391546D01*
X328639Y391465D01*
X328675Y391381D01*
X328701Y391349D01*
X328712Y391328D01*
X328735Y391306D01*
X328780Y391250D01*
X334488Y385542D01*
X334546Y385500D01*
X334598Y385451D01*
X334645Y385429D01*
X334687Y385399D01*
X334756Y385378D01*
X334821Y385347D01*
X334873Y385342D01*
X334923Y385326D01*
X334994Y385328D01*
X335065Y385320D01*
X335116Y385331D01*
X335168Y385333D01*
X335236Y385357D01*
X335306Y385373D01*
X335351Y385399D01*
X335399Y385417D01*
X335455Y385462D01*
X335517Y385499D01*
X335551Y385538D01*
X335591Y385571D01*
X335630Y385631D01*
X335677Y385686D01*
X335696Y385734D01*
X335724Y385778D01*
X335742Y385847D01*
X335769Y385914D01*
X335777Y385985D01*
X335785Y386016D01*
X335783Y386040D01*
X335787Y386081D01*
X335787Y387697D01*
X337025Y390685D01*
X339311Y392971D01*
X342299Y394209D01*
X358793Y394209D01*
X358842Y394194D01*
X358868Y394194D01*
X358894Y394188D01*
X358990Y394198D01*
X359088Y394200D01*
X359113Y394209D01*
X359139Y394212D01*
X359228Y394251D01*
X359319Y394285D01*
X359339Y394301D01*
X359363Y394312D01*
X359435Y394377D01*
X359511Y394438D01*
X359525Y394460D01*
X359544Y394478D01*
X359591Y394563D01*
X359644Y394645D01*
X359650Y394671D01*
X359663Y394693D01*
X359680Y394789D01*
X359704Y394884D01*
X359702Y394910D01*
X359707Y394936D01*
X359692Y395032D01*
X359685Y395129D01*
X359675Y395153D01*
X359671Y395179D01*
X359627Y395266D01*
X359589Y395355D01*
X359568Y395381D01*
X359559Y395398D01*
X359536Y395421D01*
X359484Y395486D01*
X355818Y399152D01*
X355802Y399163D01*
X355790Y399179D01*
X355703Y399235D01*
X355619Y399295D01*
X355600Y399301D01*
X355583Y399312D01*
X355483Y399337D01*
X355384Y399368D01*
X355364Y399367D01*
X355344Y399372D01*
X355241Y399364D01*
X355138Y399361D01*
X355119Y399354D01*
X355099Y399353D01*
X355004Y399312D01*
X354907Y399277D01*
X354891Y399264D01*
X354873Y399256D01*
X354742Y399152D01*
X354623Y399033D01*
X346416Y399033D01*
X340613Y404836D01*
X340613Y413044D01*
X346416Y418847D01*
X354624Y418847D01*
X360427Y413044D01*
X360427Y404919D01*
X360441Y404828D01*
X360449Y404738D01*
X360461Y404708D01*
X360466Y404676D01*
X360509Y404595D01*
X360545Y404511D01*
X360571Y404479D01*
X360582Y404458D01*
X360605Y404436D01*
X360650Y404380D01*
X386250Y378780D01*
X386324Y378727D01*
X386394Y378667D01*
X386424Y378655D01*
X386450Y378636D01*
X386537Y378609D01*
X386622Y378575D01*
X386663Y378571D01*
X386685Y378564D01*
X386717Y378565D01*
X386789Y378557D01*
X414306Y378557D01*
X414376Y378568D01*
X414448Y378570D01*
X414497Y378588D01*
X414548Y378596D01*
X414612Y378630D01*
X414679Y378655D01*
X414720Y378687D01*
X414766Y378712D01*
X414815Y378764D01*
X414871Y378808D01*
X414899Y378852D01*
X414935Y378890D01*
X414965Y378955D01*
X415004Y379015D01*
X415017Y379066D01*
X415039Y379113D01*
X415047Y379184D01*
X415064Y379254D01*
X415060Y379306D01*
X415066Y379357D01*
X415051Y379428D01*
X415045Y379499D01*
X415025Y379547D01*
X415014Y379598D01*
X414977Y379659D01*
X414949Y379725D01*
X414904Y379781D01*
X414887Y379809D01*
X414874Y379821D01*
X414871Y379826D01*
X414864Y379832D01*
X414844Y379856D01*
X413225Y381475D01*
X411987Y384463D01*
X411987Y387697D01*
X413225Y390685D01*
X415511Y392971D01*
X418499Y394209D01*
X434941Y394209D01*
X437929Y392971D01*
X440215Y390685D01*
X441453Y387697D01*
X441453Y384463D01*
X440215Y381475D01*
X437929Y379189D01*
X437505Y379013D01*
X437466Y378989D01*
X437423Y378973D01*
X437362Y378925D01*
X437296Y378884D01*
X437267Y378848D01*
X437231Y378820D01*
X437189Y378754D01*
X437139Y378694D01*
X437123Y378651D01*
X437098Y378613D01*
X437079Y378537D01*
X437051Y378465D01*
X437049Y378419D01*
X437038Y378374D01*
X437044Y378297D01*
X437041Y378219D01*
X437053Y378175D01*
X437057Y378129D01*
X437088Y378058D01*
X437109Y377983D01*
X437135Y377945D01*
X437153Y377903D01*
X437239Y377796D01*
X437249Y377781D01*
X437254Y377778D01*
X437258Y377772D01*
X444500Y370530D01*
X444574Y370477D01*
X444644Y370417D01*
X444674Y370405D01*
X444700Y370386D01*
X444787Y370359D01*
X444872Y370325D01*
X444913Y370321D01*
X444935Y370314D01*
X444967Y370315D01*
X445039Y370307D01*
X447198Y370307D01*
X450307Y367198D01*
X450307Y362802D01*
X447198Y359693D01*
X442802Y359693D01*
X439693Y362802D01*
X439693Y364961D01*
X439679Y365052D01*
X439671Y365142D01*
X439659Y365172D01*
X439654Y365204D01*
X439611Y365285D01*
X439575Y365369D01*
X439549Y365401D01*
X439538Y365422D01*
X439515Y365444D01*
X439470Y365500D01*
X433750Y371220D01*
X433676Y371273D01*
X433606Y371333D01*
X433576Y371345D01*
X433550Y371364D01*
X433463Y371391D01*
X433378Y371425D01*
X433337Y371429D01*
X433315Y371436D01*
X433283Y371435D01*
X433211Y371443D01*
X429454Y371443D01*
X429358Y371428D01*
X429261Y371418D01*
X429237Y371408D01*
X429211Y371404D01*
X429125Y371358D01*
X429036Y371318D01*
X429017Y371301D01*
X428994Y371288D01*
X428927Y371218D01*
X428855Y371152D01*
X428843Y371129D01*
X428825Y371110D01*
X428784Y371022D01*
X428737Y370936D01*
X428732Y370911D01*
X428721Y370887D01*
X428710Y370790D01*
X428693Y370694D01*
X428697Y370668D01*
X428694Y370643D01*
X428715Y370547D01*
X428729Y370451D01*
X428741Y370428D01*
X428746Y370402D01*
X428796Y370319D01*
X428840Y370232D01*
X428859Y370213D01*
X428872Y370191D01*
X428946Y370128D01*
X429016Y370060D01*
X429044Y370044D01*
X429059Y370031D01*
X429090Y370019D01*
X429163Y369979D01*
X432116Y368756D01*
X434796Y366076D01*
X436246Y362575D01*
X436246Y358785D01*
X434796Y355284D01*
X432116Y352604D01*
X428615Y351154D01*
X424825Y351154D01*
X421324Y352604D01*
X418644Y355284D01*
X417194Y358785D01*
X417194Y362575D01*
X418644Y366076D01*
X421324Y368756D01*
X424277Y369979D01*
X424360Y370030D01*
X424446Y370076D01*
X424464Y370095D01*
X424486Y370108D01*
X424548Y370183D01*
X424615Y370254D01*
X424626Y370278D01*
X424643Y370298D01*
X424678Y370389D01*
X424719Y370477D01*
X424722Y370503D01*
X424731Y370527D01*
X424735Y370625D01*
X424746Y370721D01*
X424741Y370747D01*
X424742Y370773D01*
X424714Y370867D01*
X424694Y370962D01*
X424680Y370984D01*
X424673Y371009D01*
X424618Y371089D01*
X424568Y371173D01*
X424548Y371190D01*
X424533Y371211D01*
X424455Y371270D01*
X424381Y371333D01*
X424356Y371343D01*
X424335Y371358D01*
X424243Y371388D01*
X424153Y371425D01*
X424120Y371428D01*
X424102Y371434D01*
X424069Y371434D01*
X423986Y371443D01*
X383527Y371443D01*
X366530Y388440D01*
X366451Y388497D01*
X366376Y388559D01*
X366352Y388568D01*
X366330Y388583D01*
X366237Y388612D01*
X366147Y388647D01*
X366120Y388648D01*
X366095Y388656D01*
X365998Y388653D01*
X365901Y388657D01*
X365876Y388650D01*
X365850Y388649D01*
X365758Y388616D01*
X365665Y388589D01*
X365643Y388574D01*
X365619Y388565D01*
X365542Y388504D01*
X365463Y388449D01*
X365447Y388428D01*
X365426Y388411D01*
X365374Y388329D01*
X365316Y388251D01*
X365308Y388226D01*
X365293Y388204D01*
X365270Y388110D01*
X365240Y388017D01*
X365240Y387991D01*
X365233Y387966D01*
X365241Y387869D01*
X365242Y387771D01*
X365251Y387740D01*
X365253Y387721D01*
X365253Y387720D01*
X365253Y384463D01*
X364015Y381475D01*
X361729Y379189D01*
X358741Y377951D01*
X343917Y377951D01*
X343846Y377940D01*
X343774Y377938D01*
X343725Y377920D01*
X343674Y377912D01*
X343610Y377878D01*
X343543Y377853D01*
X343502Y377821D01*
X343456Y377796D01*
X343407Y377744D01*
X343351Y377700D01*
X343323Y377656D01*
X343287Y377618D01*
X343257Y377553D01*
X343218Y377493D01*
X343205Y377442D01*
X343183Y377395D01*
X343175Y377324D01*
X343158Y377254D01*
X343162Y377202D01*
X343156Y377151D01*
X343172Y377080D01*
X343177Y377009D01*
X343197Y376961D01*
X343209Y376910D01*
X343245Y376849D01*
X343273Y376783D01*
X343318Y376727D01*
X343335Y376699D01*
X343353Y376684D01*
X343378Y376652D01*
X353557Y366473D01*
X353557Y266789D01*
X353571Y266698D01*
X353579Y266608D01*
X353591Y266578D01*
X353596Y266546D01*
X353639Y266465D01*
X353675Y266381D01*
X353701Y266349D01*
X353712Y266328D01*
X353735Y266306D01*
X353780Y266250D01*
X370048Y249982D01*
X370106Y249940D01*
X370158Y249891D01*
X370205Y249869D01*
X370247Y249839D01*
X370316Y249818D01*
X370381Y249787D01*
X370433Y249782D01*
X370483Y249766D01*
X370554Y249768D01*
X370625Y249760D01*
X370676Y249771D01*
G37*
G36*
X94428Y227154D02*
X94428Y227154D01*
X94499Y227160D01*
X94547Y227180D01*
X94598Y227191D01*
X94659Y227228D01*
X94725Y227256D01*
X94781Y227301D01*
X94809Y227318D01*
X94824Y227335D01*
X94856Y227361D01*
X97802Y230307D01*
X102198Y230307D01*
X103725Y228780D01*
X103799Y228727D01*
X103869Y228667D01*
X103899Y228655D01*
X103925Y228636D01*
X104012Y228609D01*
X104097Y228575D01*
X104138Y228571D01*
X104160Y228564D01*
X104192Y228565D01*
X104263Y228557D01*
X107101Y228557D01*
X107171Y228568D01*
X107243Y228570D01*
X107292Y228588D01*
X107343Y228596D01*
X107407Y228630D01*
X107474Y228655D01*
X107515Y228687D01*
X107561Y228712D01*
X107610Y228764D01*
X107666Y228808D01*
X107694Y228852D01*
X107730Y228890D01*
X107760Y228955D01*
X107799Y229015D01*
X107812Y229066D01*
X107834Y229113D01*
X107842Y229184D01*
X107859Y229254D01*
X107855Y229306D01*
X107861Y229357D01*
X107846Y229428D01*
X107840Y229499D01*
X107820Y229547D01*
X107809Y229598D01*
X107772Y229659D01*
X107744Y229725D01*
X107699Y229781D01*
X107682Y229809D01*
X107665Y229824D01*
X107639Y229856D01*
X104693Y232802D01*
X104693Y237198D01*
X106220Y238725D01*
X106266Y238789D01*
X106312Y238837D01*
X106318Y238852D01*
X106333Y238869D01*
X106345Y238899D01*
X106364Y238925D01*
X106386Y238997D01*
X106415Y239060D01*
X106417Y239078D01*
X106425Y239097D01*
X106429Y239138D01*
X106436Y239160D01*
X106435Y239192D01*
X106443Y239263D01*
X106443Y263211D01*
X106429Y263302D01*
X106421Y263392D01*
X106409Y263422D01*
X106404Y263454D01*
X106361Y263535D01*
X106325Y263619D01*
X106299Y263651D01*
X106288Y263672D01*
X106265Y263694D01*
X106220Y263750D01*
X96443Y273527D01*
X96443Y291473D01*
X104170Y299200D01*
X104223Y299274D01*
X104283Y299344D01*
X104295Y299374D01*
X104314Y299400D01*
X104341Y299487D01*
X104375Y299572D01*
X104379Y299613D01*
X104386Y299635D01*
X104385Y299667D01*
X104393Y299739D01*
X104393Y306364D01*
X110196Y312167D01*
X118404Y312167D01*
X124207Y306364D01*
X124207Y298156D01*
X118404Y292353D01*
X110196Y292353D01*
X109328Y293222D01*
X109312Y293233D01*
X109300Y293249D01*
X109212Y293305D01*
X109128Y293365D01*
X109109Y293371D01*
X109093Y293382D01*
X108992Y293407D01*
X108893Y293438D01*
X108873Y293437D01*
X108854Y293442D01*
X108751Y293434D01*
X108647Y293431D01*
X108629Y293424D01*
X108609Y293423D01*
X108514Y293382D01*
X108416Y293347D01*
X108401Y293334D01*
X108383Y293326D01*
X108252Y293222D01*
X103780Y288750D01*
X103727Y288676D01*
X103667Y288606D01*
X103655Y288576D01*
X103636Y288550D01*
X103609Y288463D01*
X103575Y288378D01*
X103571Y288337D01*
X103564Y288315D01*
X103565Y288283D01*
X103557Y288211D01*
X103557Y284505D01*
X103568Y284434D01*
X103570Y284362D01*
X103588Y284313D01*
X103596Y284262D01*
X103630Y284199D01*
X103655Y284131D01*
X103687Y284091D01*
X103712Y284045D01*
X103764Y283995D01*
X103808Y283939D01*
X103852Y283911D01*
X103890Y283875D01*
X103955Y283845D01*
X104015Y283806D01*
X104066Y283794D01*
X104113Y283772D01*
X104184Y283764D01*
X104254Y283746D01*
X104306Y283750D01*
X104357Y283745D01*
X104428Y283760D01*
X104499Y283765D01*
X104547Y283786D01*
X104598Y283797D01*
X104659Y283834D01*
X104725Y283862D01*
X104781Y283906D01*
X104809Y283923D01*
X104824Y283941D01*
X104856Y283966D01*
X110196Y289307D01*
X118404Y289307D01*
X124207Y283504D01*
X124207Y275296D01*
X122508Y273598D01*
X122497Y273582D01*
X122481Y273570D01*
X122425Y273482D01*
X122365Y273398D01*
X122359Y273379D01*
X122348Y273363D01*
X122323Y273262D01*
X122292Y273163D01*
X122293Y273143D01*
X122288Y273124D01*
X122296Y273021D01*
X122299Y272917D01*
X122306Y272899D01*
X122307Y272879D01*
X122348Y272784D01*
X122383Y272686D01*
X122396Y272671D01*
X122404Y272653D01*
X122508Y272522D01*
X136250Y258780D01*
X136324Y258727D01*
X136394Y258667D01*
X136424Y258655D01*
X136450Y258636D01*
X136537Y258609D01*
X136622Y258575D01*
X136663Y258571D01*
X136685Y258564D01*
X136717Y258565D01*
X136789Y258557D01*
X207101Y258557D01*
X207171Y258568D01*
X207243Y258570D01*
X207292Y258588D01*
X207343Y258596D01*
X207407Y258630D01*
X207474Y258655D01*
X207515Y258687D01*
X207561Y258712D01*
X207610Y258764D01*
X207666Y258808D01*
X207694Y258852D01*
X207730Y258890D01*
X207760Y258955D01*
X207799Y259015D01*
X207812Y259066D01*
X207834Y259113D01*
X207842Y259184D01*
X207859Y259254D01*
X207855Y259306D01*
X207861Y259357D01*
X207846Y259428D01*
X207840Y259499D01*
X207820Y259547D01*
X207809Y259598D01*
X207772Y259659D01*
X207744Y259725D01*
X207699Y259781D01*
X207682Y259809D01*
X207665Y259824D01*
X207639Y259856D01*
X206275Y261220D01*
X206201Y261273D01*
X206131Y261333D01*
X206101Y261345D01*
X206075Y261364D01*
X205988Y261391D01*
X205903Y261425D01*
X205862Y261429D01*
X205840Y261436D01*
X205808Y261435D01*
X205737Y261443D01*
X148527Y261443D01*
X126443Y283527D01*
X126443Y308211D01*
X126429Y308302D01*
X126421Y308392D01*
X126409Y308422D01*
X126404Y308454D01*
X126361Y308535D01*
X126325Y308619D01*
X126299Y308651D01*
X126288Y308672D01*
X126265Y308694D01*
X126220Y308750D01*
X119618Y315352D01*
X119602Y315363D01*
X119590Y315379D01*
X119503Y315435D01*
X119419Y315495D01*
X119400Y315501D01*
X119383Y315512D01*
X119282Y315537D01*
X119184Y315568D01*
X119164Y315567D01*
X119144Y315572D01*
X119041Y315564D01*
X118938Y315561D01*
X118919Y315554D01*
X118899Y315553D01*
X118804Y315512D01*
X118707Y315477D01*
X118691Y315464D01*
X118673Y315456D01*
X118542Y315352D01*
X118404Y315213D01*
X110196Y315213D01*
X104393Y321016D01*
X104393Y329224D01*
X110196Y335027D01*
X118404Y335027D01*
X124207Y329224D01*
X124207Y321139D01*
X124221Y321048D01*
X124229Y320958D01*
X124241Y320928D01*
X124246Y320896D01*
X124289Y320815D01*
X124325Y320731D01*
X124351Y320699D01*
X124362Y320678D01*
X124385Y320656D01*
X124430Y320600D01*
X133557Y311473D01*
X133557Y286789D01*
X133571Y286698D01*
X133579Y286608D01*
X133591Y286578D01*
X133596Y286546D01*
X133639Y286465D01*
X133675Y286381D01*
X133701Y286349D01*
X133712Y286328D01*
X133735Y286306D01*
X133780Y286250D01*
X145258Y274772D01*
X145316Y274730D01*
X145368Y274681D01*
X145415Y274659D01*
X145457Y274629D01*
X145526Y274608D01*
X145591Y274577D01*
X145643Y274572D01*
X145693Y274556D01*
X145764Y274558D01*
X145835Y274550D01*
X145886Y274561D01*
X145938Y274563D01*
X146006Y274587D01*
X146076Y274603D01*
X146121Y274629D01*
X146169Y274647D01*
X146225Y274692D01*
X146287Y274729D01*
X146321Y274768D01*
X146361Y274801D01*
X146400Y274861D01*
X146447Y274916D01*
X146466Y274964D01*
X146494Y275008D01*
X146512Y275077D01*
X146539Y275144D01*
X146547Y275215D01*
X146555Y275246D01*
X146553Y275270D01*
X146557Y275311D01*
X146557Y277877D01*
X156718Y277877D01*
X156738Y277880D01*
X156757Y277878D01*
X156859Y277900D01*
X156961Y277917D01*
X156978Y277926D01*
X156998Y277930D01*
X157087Y277983D01*
X157178Y278032D01*
X157192Y278046D01*
X157209Y278056D01*
X157276Y278135D01*
X157347Y278210D01*
X157356Y278228D01*
X157369Y278243D01*
X157407Y278339D01*
X157451Y278433D01*
X157453Y278453D01*
X157461Y278471D01*
X157479Y278638D01*
X157479Y279401D01*
X158242Y279401D01*
X158262Y279404D01*
X158281Y279402D01*
X158383Y279424D01*
X158485Y279441D01*
X158502Y279450D01*
X158522Y279454D01*
X158611Y279507D01*
X158702Y279556D01*
X158716Y279570D01*
X158733Y279580D01*
X158800Y279659D01*
X158871Y279734D01*
X158880Y279752D01*
X158893Y279767D01*
X158932Y279863D01*
X158975Y279957D01*
X158977Y279977D01*
X158985Y279995D01*
X159003Y280162D01*
X159003Y290323D01*
X162004Y290323D01*
X168403Y283924D01*
X168403Y282745D01*
X168414Y282675D01*
X168416Y282603D01*
X168434Y282554D01*
X168442Y282503D01*
X168476Y282439D01*
X168501Y282372D01*
X168533Y282331D01*
X168558Y282285D01*
X168610Y282236D01*
X168654Y282180D01*
X168698Y282152D01*
X168736Y282116D01*
X168801Y282086D01*
X168861Y282047D01*
X168912Y282034D01*
X168959Y282012D01*
X169030Y282004D01*
X169100Y281987D01*
X169152Y281991D01*
X169203Y281985D01*
X169274Y282000D01*
X169345Y282006D01*
X169393Y282026D01*
X169444Y282037D01*
X169505Y282074D01*
X169571Y282102D01*
X169627Y282147D01*
X169655Y282164D01*
X169670Y282181D01*
X169702Y282207D01*
X172802Y285307D01*
X177198Y285307D01*
X178725Y283780D01*
X178799Y283727D01*
X178869Y283667D01*
X178899Y283655D01*
X178925Y283636D01*
X179012Y283609D01*
X179097Y283575D01*
X179138Y283571D01*
X179160Y283564D01*
X179192Y283565D01*
X179263Y283557D01*
X211473Y283557D01*
X226250Y268780D01*
X226324Y268727D01*
X226394Y268667D01*
X226424Y268655D01*
X226450Y268636D01*
X226537Y268609D01*
X226622Y268575D01*
X226663Y268571D01*
X226685Y268564D01*
X226717Y268565D01*
X226789Y268557D01*
X228675Y268557D01*
X228746Y268568D01*
X228818Y268570D01*
X228867Y268588D01*
X228918Y268596D01*
X228981Y268630D01*
X229049Y268655D01*
X229089Y268687D01*
X229135Y268712D01*
X229185Y268764D01*
X229241Y268808D01*
X229269Y268852D01*
X229305Y268890D01*
X229335Y268955D01*
X229374Y269015D01*
X229386Y269066D01*
X229408Y269113D01*
X229416Y269184D01*
X229434Y269254D01*
X229430Y269306D01*
X229435Y269357D01*
X229420Y269428D01*
X229415Y269499D01*
X229394Y269547D01*
X229383Y269598D01*
X229346Y269659D01*
X229318Y269725D01*
X229274Y269781D01*
X229257Y269809D01*
X229239Y269824D01*
X229214Y269856D01*
X223773Y275296D01*
X223773Y280881D01*
X223759Y280972D01*
X223751Y281062D01*
X223739Y281092D01*
X223734Y281124D01*
X223691Y281205D01*
X223655Y281289D01*
X223629Y281321D01*
X223618Y281342D01*
X223595Y281364D01*
X223550Y281420D01*
X183750Y321220D01*
X183676Y321273D01*
X183606Y321333D01*
X183576Y321345D01*
X183550Y321364D01*
X183463Y321391D01*
X183378Y321425D01*
X183337Y321429D01*
X183315Y321436D01*
X183283Y321435D01*
X183211Y321443D01*
X168129Y321443D01*
X168039Y321429D01*
X167948Y321421D01*
X167918Y321409D01*
X167886Y321404D01*
X167805Y321361D01*
X167722Y321325D01*
X167689Y321299D01*
X167669Y321288D01*
X167647Y321265D01*
X167591Y321220D01*
X161584Y315213D01*
X153376Y315213D01*
X147573Y321016D01*
X147573Y329224D01*
X153376Y335027D01*
X161584Y335027D01*
X167403Y329207D01*
X167410Y329177D01*
X167426Y329075D01*
X167436Y329058D01*
X167440Y329038D01*
X167493Y328949D01*
X167542Y328858D01*
X167556Y328844D01*
X167566Y328827D01*
X167645Y328760D01*
X167720Y328688D01*
X167738Y328680D01*
X167753Y328667D01*
X167849Y328628D01*
X167943Y328585D01*
X167963Y328583D01*
X167981Y328575D01*
X168148Y328557D01*
X177101Y328557D01*
X177171Y328568D01*
X177243Y328570D01*
X177292Y328588D01*
X177343Y328596D01*
X177407Y328630D01*
X177474Y328655D01*
X177515Y328687D01*
X177561Y328712D01*
X177610Y328764D01*
X177666Y328808D01*
X177694Y328852D01*
X177730Y328890D01*
X177760Y328955D01*
X177799Y329015D01*
X177812Y329066D01*
X177834Y329113D01*
X177842Y329184D01*
X177859Y329254D01*
X177855Y329306D01*
X177861Y329357D01*
X177846Y329428D01*
X177840Y329499D01*
X177820Y329547D01*
X177809Y329598D01*
X177772Y329659D01*
X177744Y329725D01*
X177699Y329781D01*
X177682Y329809D01*
X177665Y329824D01*
X177639Y329856D01*
X174693Y332802D01*
X174693Y337198D01*
X177802Y340307D01*
X179961Y340307D01*
X180052Y340321D01*
X180142Y340329D01*
X180172Y340341D01*
X180204Y340346D01*
X180285Y340389D01*
X180369Y340425D01*
X180401Y340451D01*
X180422Y340462D01*
X180444Y340485D01*
X180500Y340530D01*
X199470Y359500D01*
X199523Y359574D01*
X199583Y359644D01*
X199595Y359674D01*
X199614Y359700D01*
X199641Y359787D01*
X199675Y359872D01*
X199679Y359913D01*
X199686Y359935D01*
X199685Y359967D01*
X199693Y360039D01*
X199693Y362198D01*
X202639Y365144D01*
X202681Y365202D01*
X202730Y365254D01*
X202752Y365301D01*
X202782Y365343D01*
X202804Y365412D01*
X202834Y365477D01*
X202839Y365529D01*
X202855Y365579D01*
X202853Y365650D01*
X202861Y365721D01*
X202850Y365772D01*
X202848Y365824D01*
X202824Y365892D01*
X202809Y365962D01*
X202782Y366007D01*
X202764Y366055D01*
X202719Y366111D01*
X202682Y366173D01*
X202643Y366207D01*
X202610Y366247D01*
X202550Y366286D01*
X202495Y366333D01*
X202447Y366352D01*
X202403Y366380D01*
X202334Y366398D01*
X202267Y366425D01*
X202196Y366433D01*
X202165Y366441D01*
X202142Y366439D01*
X202101Y366443D01*
X164318Y366443D01*
X164298Y366440D01*
X164279Y366442D01*
X164177Y366420D01*
X164075Y366404D01*
X164058Y366394D01*
X164038Y366390D01*
X163949Y366337D01*
X163858Y366288D01*
X163844Y366274D01*
X163827Y366264D01*
X163760Y366185D01*
X163688Y366110D01*
X163680Y366092D01*
X163667Y366077D01*
X163628Y365981D01*
X163585Y365887D01*
X163583Y365867D01*
X163575Y365849D01*
X163557Y365682D01*
X163557Y356870D01*
X163560Y356850D01*
X163558Y356831D01*
X163580Y356729D01*
X163596Y356627D01*
X163606Y356610D01*
X163610Y356590D01*
X163663Y356501D01*
X163712Y356410D01*
X163726Y356396D01*
X163736Y356379D01*
X163815Y356312D01*
X163890Y356240D01*
X163908Y356232D01*
X163923Y356219D01*
X164019Y356180D01*
X164113Y356137D01*
X164133Y356135D01*
X164151Y356127D01*
X164318Y356109D01*
X165701Y356109D01*
X168689Y354871D01*
X170975Y352585D01*
X172213Y349597D01*
X172213Y346363D01*
X170975Y343375D01*
X168689Y341089D01*
X165701Y339851D01*
X149259Y339851D01*
X146271Y341089D01*
X143985Y343375D01*
X142747Y346363D01*
X142747Y349597D01*
X143985Y352585D01*
X146271Y354871D01*
X149259Y356109D01*
X155682Y356109D01*
X155702Y356112D01*
X155721Y356110D01*
X155823Y356132D01*
X155925Y356148D01*
X155942Y356158D01*
X155962Y356162D01*
X156051Y356215D01*
X156142Y356264D01*
X156156Y356278D01*
X156173Y356288D01*
X156240Y356367D01*
X156312Y356442D01*
X156320Y356460D01*
X156333Y356475D01*
X156372Y356571D01*
X156415Y356665D01*
X156417Y356685D01*
X156425Y356703D01*
X156443Y356870D01*
X156443Y368173D01*
X156440Y368193D01*
X156442Y368212D01*
X156420Y368314D01*
X156404Y368416D01*
X156394Y368433D01*
X156390Y368453D01*
X156337Y368542D01*
X156288Y368633D01*
X156274Y368647D01*
X156264Y368664D01*
X156185Y368731D01*
X156110Y368803D01*
X156092Y368811D01*
X156077Y368824D01*
X155981Y368863D01*
X155887Y368906D01*
X155867Y368908D01*
X155849Y368916D01*
X155682Y368934D01*
X155585Y368934D01*
X152084Y370384D01*
X149404Y373064D01*
X147954Y376565D01*
X147954Y380355D01*
X149404Y383856D01*
X152084Y386536D01*
X155585Y387986D01*
X159375Y387986D01*
X162876Y386536D01*
X165556Y383856D01*
X167006Y380355D01*
X167006Y376565D01*
X166439Y375196D01*
X166412Y375082D01*
X166383Y374969D01*
X166384Y374963D01*
X166382Y374957D01*
X166393Y374840D01*
X166402Y374724D01*
X166405Y374718D01*
X166405Y374712D01*
X166453Y374604D01*
X166499Y374497D01*
X166503Y374492D01*
X166505Y374487D01*
X166518Y374473D01*
X166604Y374366D01*
X167190Y373780D01*
X167265Y373726D01*
X167334Y373667D01*
X167364Y373655D01*
X167390Y373636D01*
X167477Y373609D01*
X167562Y373575D01*
X167603Y373571D01*
X167625Y373564D01*
X167657Y373565D01*
X167729Y373557D01*
X211473Y373557D01*
X213780Y371250D01*
X214500Y370530D01*
X214574Y370477D01*
X214644Y370417D01*
X214674Y370405D01*
X214700Y370386D01*
X214787Y370359D01*
X214872Y370325D01*
X214913Y370321D01*
X214935Y370314D01*
X214967Y370315D01*
X215039Y370307D01*
X217198Y370307D01*
X220307Y367198D01*
X220307Y362802D01*
X217198Y359693D01*
X212802Y359693D01*
X211606Y360889D01*
X211548Y360931D01*
X211496Y360980D01*
X211449Y361002D01*
X211407Y361032D01*
X211338Y361054D01*
X211273Y361084D01*
X211221Y361089D01*
X211171Y361105D01*
X211100Y361103D01*
X211029Y361111D01*
X210978Y361100D01*
X210926Y361098D01*
X210858Y361074D01*
X210788Y361059D01*
X210743Y361032D01*
X210695Y361014D01*
X210639Y360969D01*
X210577Y360932D01*
X210543Y360893D01*
X210503Y360860D01*
X210464Y360800D01*
X210417Y360745D01*
X210398Y360697D01*
X210370Y360653D01*
X210352Y360584D01*
X210325Y360517D01*
X210317Y360446D01*
X210309Y360415D01*
X210311Y360392D01*
X210307Y360351D01*
X210307Y357802D01*
X207198Y354693D01*
X205039Y354693D01*
X204948Y354679D01*
X204858Y354671D01*
X204828Y354659D01*
X204796Y354654D01*
X204715Y354611D01*
X204631Y354575D01*
X204599Y354549D01*
X204578Y354538D01*
X204556Y354515D01*
X204500Y354470D01*
X185530Y335500D01*
X185477Y335426D01*
X185417Y335356D01*
X185405Y335326D01*
X185386Y335300D01*
X185359Y335213D01*
X185325Y335128D01*
X185321Y335087D01*
X185314Y335065D01*
X185315Y335033D01*
X185307Y334961D01*
X185307Y332802D01*
X182361Y329856D01*
X182319Y329798D01*
X182270Y329746D01*
X182248Y329699D01*
X182218Y329657D01*
X182196Y329588D01*
X182166Y329523D01*
X182161Y329471D01*
X182145Y329421D01*
X182147Y329350D01*
X182139Y329279D01*
X182150Y329228D01*
X182152Y329176D01*
X182176Y329108D01*
X182191Y329038D01*
X182218Y328993D01*
X182236Y328945D01*
X182281Y328889D01*
X182318Y328827D01*
X182357Y328793D01*
X182390Y328753D01*
X182450Y328714D01*
X182505Y328667D01*
X182553Y328648D01*
X182597Y328620D01*
X182666Y328602D01*
X182733Y328575D01*
X182804Y328567D01*
X182835Y328559D01*
X182858Y328561D01*
X182899Y328557D01*
X186473Y328557D01*
X227112Y287918D01*
X227128Y287907D01*
X227140Y287891D01*
X227228Y287835D01*
X227311Y287775D01*
X227330Y287769D01*
X227347Y287758D01*
X227448Y287733D01*
X227546Y287702D01*
X227566Y287703D01*
X227586Y287698D01*
X227689Y287706D01*
X227792Y287709D01*
X227811Y287716D01*
X227831Y287717D01*
X227926Y287758D01*
X228023Y287793D01*
X228039Y287806D01*
X228057Y287814D01*
X228188Y287918D01*
X229576Y289307D01*
X237784Y289307D01*
X237992Y289098D01*
X238008Y289087D01*
X238020Y289071D01*
X238108Y289015D01*
X238192Y288955D01*
X238211Y288949D01*
X238227Y288938D01*
X238328Y288913D01*
X238427Y288882D01*
X238447Y288883D01*
X238466Y288878D01*
X238569Y288886D01*
X238673Y288889D01*
X238691Y288896D01*
X238711Y288897D01*
X238806Y288938D01*
X238904Y288973D01*
X238919Y288986D01*
X238937Y288994D01*
X239068Y289098D01*
X253527Y303557D01*
X331473Y303557D01*
X333780Y301250D01*
X339500Y295530D01*
X339574Y295477D01*
X339644Y295417D01*
X339674Y295405D01*
X339700Y295386D01*
X339787Y295359D01*
X339872Y295325D01*
X339913Y295321D01*
X339935Y295314D01*
X339967Y295315D01*
X340039Y295307D01*
X342198Y295307D01*
X345144Y292361D01*
X345202Y292319D01*
X345254Y292270D01*
X345301Y292248D01*
X345343Y292218D01*
X345412Y292196D01*
X345477Y292166D01*
X345529Y292161D01*
X345579Y292145D01*
X345650Y292147D01*
X345721Y292139D01*
X345772Y292150D01*
X345824Y292152D01*
X345892Y292176D01*
X345962Y292191D01*
X346007Y292218D01*
X346055Y292236D01*
X346111Y292281D01*
X346173Y292318D01*
X346207Y292357D01*
X346247Y292390D01*
X346286Y292450D01*
X346333Y292505D01*
X346352Y292553D01*
X346380Y292597D01*
X346398Y292666D01*
X346425Y292733D01*
X346433Y292804D01*
X346441Y292835D01*
X346439Y292858D01*
X346443Y292899D01*
X346443Y363211D01*
X346429Y363302D01*
X346421Y363392D01*
X346409Y363422D01*
X346404Y363454D01*
X346361Y363535D01*
X346325Y363619D01*
X346299Y363651D01*
X346288Y363672D01*
X346265Y363694D01*
X346220Y363750D01*
X325912Y384058D01*
X325854Y384100D01*
X325802Y384149D01*
X325755Y384171D01*
X325713Y384201D01*
X325644Y384222D01*
X325579Y384253D01*
X325527Y384258D01*
X325477Y384274D01*
X325406Y384272D01*
X325335Y384280D01*
X325284Y384269D01*
X325232Y384267D01*
X325164Y384243D01*
X325094Y384227D01*
X325049Y384201D01*
X325001Y384183D01*
X324945Y384138D01*
X324883Y384101D01*
X324849Y384062D01*
X324809Y384029D01*
X324770Y383969D01*
X324723Y383914D01*
X324704Y383866D01*
X324676Y383822D01*
X324658Y383753D01*
X324631Y383686D01*
X324623Y383615D01*
X324615Y383584D01*
X324617Y383560D01*
X324613Y383519D01*
X324613Y381923D01*
X323375Y378935D01*
X321089Y376649D01*
X318101Y375411D01*
X314318Y375411D01*
X314298Y375408D01*
X314279Y375410D01*
X314177Y375388D01*
X314075Y375372D01*
X314058Y375362D01*
X314038Y375358D01*
X313949Y375305D01*
X313858Y375256D01*
X313844Y375242D01*
X313827Y375232D01*
X313760Y375153D01*
X313688Y375078D01*
X313680Y375060D01*
X313667Y375045D01*
X313628Y374949D01*
X313585Y374855D01*
X313583Y374835D01*
X313575Y374817D01*
X313557Y374650D01*
X313557Y367436D01*
X313576Y367321D01*
X313593Y367205D01*
X313595Y367200D01*
X313596Y367194D01*
X313651Y367091D01*
X313704Y366986D01*
X313709Y366982D01*
X313712Y366976D01*
X313796Y366896D01*
X313880Y366814D01*
X313886Y366810D01*
X313890Y366807D01*
X313907Y366799D01*
X314027Y366733D01*
X315276Y366216D01*
X317956Y363536D01*
X319406Y360035D01*
X319406Y356245D01*
X317956Y352744D01*
X315276Y350064D01*
X311775Y348614D01*
X307985Y348614D01*
X304484Y350064D01*
X301804Y352744D01*
X300354Y356245D01*
X300354Y360035D01*
X301804Y363536D01*
X304484Y366216D01*
X305973Y366832D01*
X306073Y366894D01*
X306173Y366954D01*
X306177Y366959D01*
X306182Y366962D01*
X306257Y367052D01*
X306333Y367141D01*
X306335Y367147D01*
X306339Y367152D01*
X306381Y367259D01*
X306425Y367369D01*
X306426Y367377D01*
X306427Y367381D01*
X306428Y367399D01*
X306443Y367536D01*
X306443Y374650D01*
X306440Y374670D01*
X306442Y374689D01*
X306420Y374791D01*
X306404Y374893D01*
X306394Y374910D01*
X306390Y374930D01*
X306337Y375019D01*
X306288Y375110D01*
X306274Y375124D01*
X306264Y375141D01*
X306185Y375208D01*
X306110Y375280D01*
X306092Y375288D01*
X306077Y375301D01*
X305981Y375340D01*
X305887Y375383D01*
X305867Y375385D01*
X305849Y375393D01*
X305682Y375411D01*
X301659Y375411D01*
X299609Y376260D01*
X299565Y376271D01*
X299523Y376290D01*
X299446Y376299D01*
X299370Y376316D01*
X299324Y376312D01*
X299279Y376317D01*
X299202Y376301D01*
X299125Y376293D01*
X299083Y376275D01*
X299038Y376265D01*
X298971Y376225D01*
X298900Y376193D01*
X298866Y376162D01*
X298827Y376139D01*
X298776Y376080D01*
X298719Y376027D01*
X298697Y375987D01*
X298667Y375952D01*
X298638Y375880D01*
X298601Y375811D01*
X298592Y375766D01*
X298575Y375724D01*
X298560Y375588D01*
X298557Y375569D01*
X298558Y375564D01*
X298557Y375557D01*
X298557Y338163D01*
X298568Y338092D01*
X298570Y338020D01*
X298588Y337971D01*
X298596Y337920D01*
X298630Y337857D01*
X298655Y337789D01*
X298687Y337749D01*
X298712Y337703D01*
X298764Y337653D01*
X298808Y337597D01*
X298852Y337569D01*
X298890Y337533D01*
X298955Y337503D01*
X299015Y337464D01*
X299066Y337452D01*
X299113Y337430D01*
X299184Y337422D01*
X299254Y337404D01*
X299306Y337408D01*
X299357Y337403D01*
X299428Y337418D01*
X299499Y337423D01*
X299547Y337444D01*
X299598Y337455D01*
X299659Y337492D01*
X299725Y337520D01*
X299781Y337564D01*
X299809Y337581D01*
X299824Y337599D01*
X299856Y337624D01*
X305513Y343282D01*
X308357Y343282D01*
X308357Y333502D01*
X308360Y333482D01*
X308358Y333463D01*
X308380Y333361D01*
X308397Y333259D01*
X308406Y333242D01*
X308410Y333222D01*
X308463Y333133D01*
X308512Y333042D01*
X308526Y333028D01*
X308536Y333011D01*
X308615Y332944D01*
X308690Y332873D01*
X308708Y332864D01*
X308723Y332851D01*
X308819Y332813D01*
X308913Y332769D01*
X308933Y332767D01*
X308951Y332759D01*
X309118Y332741D01*
X309881Y332741D01*
X309881Y331978D01*
X309884Y331958D01*
X309882Y331939D01*
X309904Y331837D01*
X309921Y331735D01*
X309930Y331718D01*
X309934Y331698D01*
X309987Y331609D01*
X310036Y331518D01*
X310050Y331504D01*
X310060Y331487D01*
X310139Y331420D01*
X310214Y331349D01*
X310232Y331340D01*
X310247Y331327D01*
X310343Y331288D01*
X310437Y331245D01*
X310457Y331243D01*
X310475Y331235D01*
X310642Y331217D01*
X320422Y331217D01*
X320422Y329318D01*
X320425Y329298D01*
X320423Y329279D01*
X320445Y329177D01*
X320461Y329075D01*
X320471Y329058D01*
X320475Y329038D01*
X320528Y328949D01*
X320577Y328858D01*
X320591Y328844D01*
X320601Y328827D01*
X320680Y328760D01*
X320755Y328688D01*
X320773Y328680D01*
X320788Y328667D01*
X320884Y328628D01*
X320978Y328585D01*
X320998Y328583D01*
X321016Y328575D01*
X321183Y328557D01*
X325737Y328557D01*
X325827Y328571D01*
X325918Y328579D01*
X325947Y328591D01*
X325979Y328596D01*
X326060Y328639D01*
X326144Y328675D01*
X326176Y328701D01*
X326197Y328712D01*
X326219Y328735D01*
X326275Y328780D01*
X327802Y330307D01*
X332198Y330307D01*
X335144Y327361D01*
X335202Y327319D01*
X335254Y327270D01*
X335301Y327248D01*
X335343Y327218D01*
X335412Y327196D01*
X335477Y327166D01*
X335529Y327161D01*
X335579Y327145D01*
X335650Y327147D01*
X335721Y327139D01*
X335772Y327150D01*
X335824Y327152D01*
X335892Y327176D01*
X335962Y327191D01*
X336007Y327218D01*
X336055Y327236D01*
X336111Y327281D01*
X336173Y327318D01*
X336207Y327357D01*
X336247Y327390D01*
X336286Y327450D01*
X336333Y327505D01*
X336352Y327553D01*
X336380Y327597D01*
X336398Y327666D01*
X336425Y327733D01*
X336433Y327804D01*
X336441Y327835D01*
X336439Y327858D01*
X336443Y327899D01*
X336443Y328211D01*
X336429Y328302D01*
X336421Y328392D01*
X336409Y328422D01*
X336404Y328454D01*
X336361Y328535D01*
X336325Y328619D01*
X336299Y328651D01*
X336288Y328672D01*
X336265Y328694D01*
X336220Y328750D01*
X326443Y338527D01*
X326443Y360737D01*
X326429Y360827D01*
X326421Y360918D01*
X326409Y360947D01*
X326404Y360979D01*
X326361Y361060D01*
X326325Y361144D01*
X326299Y361176D01*
X326288Y361197D01*
X326265Y361219D01*
X326220Y361275D01*
X324693Y362802D01*
X324693Y367198D01*
X327802Y370307D01*
X332198Y370307D01*
X335307Y367198D01*
X335307Y362802D01*
X333780Y361275D01*
X333727Y361201D01*
X333667Y361131D01*
X333655Y361101D01*
X333636Y361075D01*
X333609Y360988D01*
X333575Y360903D01*
X333571Y360862D01*
X333564Y360840D01*
X333565Y360808D01*
X333557Y360737D01*
X333557Y341789D01*
X333571Y341698D01*
X333579Y341608D01*
X333591Y341578D01*
X333596Y341546D01*
X333639Y341465D01*
X333675Y341381D01*
X333701Y341349D01*
X333712Y341328D01*
X333735Y341306D01*
X333780Y341250D01*
X343557Y331473D01*
X343557Y318527D01*
X331473Y306443D01*
X268527Y306443D01*
X235342Y339628D01*
X235268Y339681D01*
X235198Y339741D01*
X235168Y339753D01*
X235142Y339772D01*
X235055Y339799D01*
X234970Y339833D01*
X234929Y339837D01*
X234907Y339844D01*
X234875Y339843D01*
X234803Y339851D01*
X225459Y339851D01*
X222471Y341089D01*
X220185Y343375D01*
X218947Y346363D01*
X218947Y349597D01*
X220185Y352585D01*
X222471Y354871D01*
X225459Y356109D01*
X230682Y356109D01*
X230702Y356112D01*
X230721Y356110D01*
X230823Y356132D01*
X230925Y356148D01*
X230942Y356158D01*
X230962Y356162D01*
X231051Y356215D01*
X231142Y356264D01*
X231156Y356278D01*
X231173Y356288D01*
X231240Y356367D01*
X231312Y356442D01*
X231320Y356460D01*
X231333Y356475D01*
X231372Y356571D01*
X231415Y356665D01*
X231417Y356685D01*
X231425Y356703D01*
X231443Y356870D01*
X231443Y374650D01*
X231440Y374670D01*
X231442Y374689D01*
X231420Y374791D01*
X231404Y374893D01*
X231394Y374910D01*
X231390Y374930D01*
X231337Y375019D01*
X231288Y375110D01*
X231274Y375124D01*
X231264Y375141D01*
X231185Y375208D01*
X231110Y375280D01*
X231092Y375288D01*
X231077Y375301D01*
X230981Y375340D01*
X230887Y375383D01*
X230867Y375385D01*
X230849Y375393D01*
X230682Y375411D01*
X225459Y375411D01*
X222471Y376649D01*
X220185Y378935D01*
X218947Y381923D01*
X218947Y385157D01*
X220185Y388145D01*
X220467Y388427D01*
X220478Y388443D01*
X220494Y388455D01*
X220550Y388542D01*
X220610Y388626D01*
X220616Y388645D01*
X220627Y388662D01*
X220652Y388762D01*
X220683Y388861D01*
X220682Y388881D01*
X220687Y388901D01*
X220679Y389004D01*
X220676Y389107D01*
X220670Y389126D01*
X220668Y389146D01*
X220628Y389241D01*
X220592Y389338D01*
X220579Y389354D01*
X220572Y389372D01*
X220467Y389503D01*
X193750Y416220D01*
X193676Y416273D01*
X193606Y416333D01*
X193576Y416345D01*
X193550Y416364D01*
X193463Y416391D01*
X193378Y416425D01*
X193337Y416429D01*
X193315Y416436D01*
X193283Y416435D01*
X193211Y416443D01*
X156789Y416443D01*
X156699Y416429D01*
X156608Y416421D01*
X156578Y416409D01*
X156546Y416404D01*
X156465Y416361D01*
X156381Y416325D01*
X156349Y416299D01*
X156328Y416288D01*
X156306Y416265D01*
X156250Y416220D01*
X155731Y415701D01*
X155689Y415643D01*
X155640Y415591D01*
X155618Y415544D01*
X155588Y415502D01*
X155567Y415433D01*
X155536Y415368D01*
X155531Y415316D01*
X155515Y415266D01*
X155517Y415195D01*
X155509Y415124D01*
X155520Y415073D01*
X155522Y415021D01*
X155546Y414953D01*
X155562Y414883D01*
X155588Y414838D01*
X155606Y414790D01*
X155651Y414734D01*
X155688Y414672D01*
X155727Y414638D01*
X155760Y414598D01*
X155820Y414559D01*
X155875Y414512D01*
X155923Y414493D01*
X155957Y414471D01*
X155957Y405383D01*
X146863Y405383D01*
X146840Y405444D01*
X146808Y405485D01*
X146783Y405531D01*
X146731Y405580D01*
X146687Y405636D01*
X146643Y405664D01*
X146605Y405700D01*
X146540Y405730D01*
X146480Y405769D01*
X146429Y405782D01*
X146382Y405804D01*
X146311Y405812D01*
X146241Y405829D01*
X146189Y405825D01*
X146138Y405831D01*
X146067Y405815D01*
X145996Y405810D01*
X145948Y405790D01*
X145897Y405778D01*
X145836Y405742D01*
X145770Y405714D01*
X145714Y405669D01*
X145686Y405652D01*
X145671Y405634D01*
X145639Y405609D01*
X118780Y378750D01*
X118727Y378676D01*
X118667Y378606D01*
X118655Y378576D01*
X118636Y378550D01*
X118609Y378463D01*
X118575Y378378D01*
X118571Y378337D01*
X118564Y378315D01*
X118565Y378283D01*
X118557Y378211D01*
X118557Y356870D01*
X118560Y356850D01*
X118558Y356831D01*
X118580Y356729D01*
X118596Y356627D01*
X118606Y356610D01*
X118610Y356590D01*
X118663Y356501D01*
X118712Y356410D01*
X118726Y356396D01*
X118736Y356379D01*
X118815Y356312D01*
X118890Y356240D01*
X118908Y356232D01*
X118923Y356219D01*
X119019Y356180D01*
X119113Y356137D01*
X119133Y356135D01*
X119151Y356127D01*
X119318Y356109D01*
X122521Y356109D01*
X125509Y354871D01*
X127795Y352585D01*
X129033Y349597D01*
X129033Y346363D01*
X127795Y343375D01*
X125509Y341089D01*
X122521Y339851D01*
X110197Y339851D01*
X110106Y339837D01*
X110016Y339829D01*
X109986Y339817D01*
X109954Y339812D01*
X109873Y339769D01*
X109789Y339733D01*
X109757Y339707D01*
X109736Y339696D01*
X109714Y339673D01*
X109658Y339628D01*
X93780Y323750D01*
X93727Y323676D01*
X93667Y323606D01*
X93655Y323576D01*
X93636Y323550D01*
X93609Y323463D01*
X93575Y323378D01*
X93571Y323337D01*
X93564Y323315D01*
X93565Y323283D01*
X93557Y323211D01*
X93557Y227899D01*
X93568Y227829D01*
X93570Y227757D01*
X93588Y227708D01*
X93596Y227657D01*
X93630Y227593D01*
X93655Y227526D01*
X93687Y227485D01*
X93712Y227439D01*
X93764Y227390D01*
X93808Y227334D01*
X93852Y227306D01*
X93890Y227270D01*
X93955Y227240D01*
X94015Y227201D01*
X94066Y227188D01*
X94113Y227166D01*
X94184Y227158D01*
X94254Y227141D01*
X94306Y227145D01*
X94357Y227139D01*
X94428Y227154D01*
G37*
G36*
X203302Y18571D02*
X203302Y18571D01*
X203392Y18579D01*
X203422Y18591D01*
X203454Y18596D01*
X203535Y18639D01*
X203619Y18675D01*
X203651Y18701D01*
X203672Y18712D01*
X203694Y18735D01*
X203750Y18780D01*
X205006Y20036D01*
X205048Y20094D01*
X205097Y20146D01*
X205119Y20193D01*
X205149Y20235D01*
X205170Y20304D01*
X205201Y20369D01*
X205206Y20421D01*
X205222Y20471D01*
X205220Y20542D01*
X205228Y20613D01*
X205217Y20664D01*
X205215Y20716D01*
X205191Y20784D01*
X205175Y20854D01*
X205149Y20899D01*
X205131Y20947D01*
X205086Y21003D01*
X205049Y21065D01*
X205010Y21099D01*
X204977Y21139D01*
X204917Y21178D01*
X204862Y21225D01*
X204814Y21244D01*
X204770Y21272D01*
X204701Y21290D01*
X204634Y21317D01*
X204563Y21325D01*
X204532Y21333D01*
X204508Y21331D01*
X204467Y21335D01*
X201381Y21335D01*
X198020Y22727D01*
X195447Y25300D01*
X194055Y28661D01*
X194055Y47539D01*
X195447Y50900D01*
X198020Y53473D01*
X201381Y54865D01*
X205019Y54865D01*
X208380Y53473D01*
X210144Y51709D01*
X210202Y51667D01*
X210254Y51618D01*
X210301Y51596D01*
X210343Y51565D01*
X210412Y51544D01*
X210477Y51514D01*
X210529Y51508D01*
X210579Y51493D01*
X210650Y51495D01*
X210721Y51487D01*
X210772Y51498D01*
X210824Y51499D01*
X210892Y51524D01*
X210962Y51539D01*
X211007Y51566D01*
X211055Y51584D01*
X211111Y51629D01*
X211173Y51665D01*
X211207Y51705D01*
X211247Y51737D01*
X211286Y51798D01*
X211333Y51852D01*
X211352Y51901D01*
X211380Y51944D01*
X211398Y52014D01*
X211425Y52080D01*
X211433Y52152D01*
X211441Y52183D01*
X211439Y52206D01*
X211443Y52247D01*
X211443Y61473D01*
X213750Y63780D01*
X230114Y80144D01*
X230156Y80202D01*
X230205Y80254D01*
X230227Y80301D01*
X230257Y80343D01*
X230278Y80412D01*
X230309Y80477D01*
X230314Y80529D01*
X230330Y80579D01*
X230328Y80650D01*
X230336Y80721D01*
X230325Y80772D01*
X230323Y80824D01*
X230299Y80892D01*
X230283Y80962D01*
X230257Y81007D01*
X230239Y81055D01*
X230194Y81111D01*
X230157Y81173D01*
X230118Y81207D01*
X230085Y81247D01*
X230025Y81286D01*
X229970Y81333D01*
X229922Y81352D01*
X229878Y81380D01*
X229809Y81398D01*
X229742Y81425D01*
X229671Y81433D01*
X229640Y81441D01*
X229616Y81439D01*
X229575Y81443D01*
X182899Y81443D01*
X182829Y81432D01*
X182757Y81430D01*
X182708Y81412D01*
X182657Y81404D01*
X182593Y81370D01*
X182526Y81345D01*
X182485Y81313D01*
X182439Y81288D01*
X182390Y81236D01*
X182334Y81192D01*
X182306Y81148D01*
X182270Y81110D01*
X182240Y81045D01*
X182201Y80985D01*
X182188Y80934D01*
X182166Y80887D01*
X182158Y80816D01*
X182141Y80746D01*
X182145Y80694D01*
X182139Y80643D01*
X182154Y80572D01*
X182160Y80501D01*
X182180Y80453D01*
X182191Y80402D01*
X182228Y80341D01*
X182256Y80275D01*
X182301Y80219D01*
X182318Y80191D01*
X182335Y80176D01*
X182361Y80144D01*
X185307Y77198D01*
X185307Y72802D01*
X183780Y71275D01*
X183727Y71201D01*
X183667Y71131D01*
X183655Y71101D01*
X183636Y71075D01*
X183609Y70988D01*
X183575Y70903D01*
X183571Y70862D01*
X183564Y70840D01*
X183565Y70808D01*
X183557Y70737D01*
X183557Y53211D01*
X183571Y53121D01*
X183579Y53030D01*
X183591Y53000D01*
X183596Y52968D01*
X183639Y52888D01*
X183675Y52804D01*
X183701Y52772D01*
X183712Y52751D01*
X183735Y52729D01*
X183780Y52673D01*
X185553Y50900D01*
X186945Y47539D01*
X186945Y28661D01*
X185553Y25300D01*
X182980Y22727D01*
X179619Y21335D01*
X175981Y21335D01*
X172620Y22727D01*
X170047Y25300D01*
X168655Y28661D01*
X168655Y47539D01*
X170047Y50900D01*
X172620Y53473D01*
X175973Y54862D01*
X176073Y54923D01*
X176173Y54983D01*
X176177Y54988D01*
X176182Y54991D01*
X176256Y55081D01*
X176333Y55170D01*
X176335Y55176D01*
X176339Y55181D01*
X176381Y55289D01*
X176425Y55398D01*
X176426Y55406D01*
X176427Y55410D01*
X176428Y55429D01*
X176443Y55565D01*
X176443Y70737D01*
X176429Y70827D01*
X176421Y70918D01*
X176409Y70947D01*
X176404Y70979D01*
X176361Y71060D01*
X176325Y71144D01*
X176299Y71176D01*
X176288Y71197D01*
X176265Y71219D01*
X176220Y71275D01*
X174693Y72802D01*
X174693Y77198D01*
X177639Y80144D01*
X177681Y80202D01*
X177730Y80254D01*
X177752Y80301D01*
X177782Y80343D01*
X177804Y80412D01*
X177834Y80477D01*
X177839Y80529D01*
X177855Y80579D01*
X177853Y80650D01*
X177861Y80721D01*
X177850Y80772D01*
X177848Y80824D01*
X177824Y80892D01*
X177809Y80962D01*
X177782Y81007D01*
X177764Y81055D01*
X177719Y81111D01*
X177682Y81173D01*
X177643Y81207D01*
X177610Y81247D01*
X177550Y81286D01*
X177495Y81333D01*
X177447Y81352D01*
X177403Y81380D01*
X177334Y81398D01*
X177267Y81425D01*
X177196Y81433D01*
X177165Y81441D01*
X177142Y81439D01*
X177101Y81443D01*
X138527Y81443D01*
X115800Y104170D01*
X115726Y104223D01*
X115656Y104283D01*
X115626Y104295D01*
X115600Y104314D01*
X115513Y104341D01*
X115428Y104375D01*
X115387Y104379D01*
X115365Y104386D01*
X115333Y104385D01*
X115261Y104393D01*
X110196Y104393D01*
X104393Y110196D01*
X104393Y115261D01*
X104379Y115352D01*
X104371Y115442D01*
X104359Y115472D01*
X104354Y115504D01*
X104311Y115585D01*
X104275Y115669D01*
X104249Y115701D01*
X104238Y115722D01*
X104215Y115744D01*
X104170Y115800D01*
X88750Y131220D01*
X88676Y131273D01*
X88606Y131333D01*
X88576Y131345D01*
X88550Y131364D01*
X88463Y131391D01*
X88378Y131425D01*
X88337Y131429D01*
X88315Y131436D01*
X88283Y131435D01*
X88211Y131443D01*
X78059Y131443D01*
X77989Y131432D01*
X77917Y131430D01*
X77868Y131412D01*
X77817Y131404D01*
X77753Y131370D01*
X77686Y131345D01*
X77645Y131313D01*
X77599Y131288D01*
X77550Y131236D01*
X77494Y131192D01*
X77466Y131148D01*
X77430Y131110D01*
X77400Y131045D01*
X77361Y130985D01*
X77348Y130934D01*
X77326Y130887D01*
X77318Y130816D01*
X77301Y130746D01*
X77305Y130694D01*
X77299Y130643D01*
X77314Y130572D01*
X77320Y130501D01*
X77340Y130453D01*
X77351Y130402D01*
X77388Y130341D01*
X77416Y130275D01*
X77461Y130219D01*
X77478Y130191D01*
X77495Y130176D01*
X77521Y130144D01*
X80467Y127198D01*
X80467Y125039D01*
X80481Y124948D01*
X80489Y124858D01*
X80501Y124828D01*
X80506Y124796D01*
X80549Y124715D01*
X80585Y124631D01*
X80611Y124599D01*
X80622Y124578D01*
X80645Y124556D01*
X80690Y124500D01*
X150102Y55088D01*
X150176Y55035D01*
X150246Y54975D01*
X150276Y54963D01*
X150302Y54944D01*
X150389Y54917D01*
X150474Y54883D01*
X150515Y54879D01*
X150537Y54872D01*
X150569Y54873D01*
X150641Y54865D01*
X154219Y54865D01*
X157580Y53473D01*
X160153Y50900D01*
X161545Y47539D01*
X161545Y28661D01*
X160153Y25300D01*
X157580Y22727D01*
X154219Y21335D01*
X150581Y21335D01*
X147220Y22727D01*
X144647Y25300D01*
X143255Y28661D01*
X143255Y47539D01*
X144331Y50135D01*
X144357Y50248D01*
X144386Y50362D01*
X144385Y50368D01*
X144387Y50374D01*
X144376Y50491D01*
X144367Y50607D01*
X144364Y50613D01*
X144364Y50619D01*
X144316Y50727D01*
X144270Y50834D01*
X144266Y50839D01*
X144264Y50844D01*
X144251Y50858D01*
X144166Y50965D01*
X75660Y119470D01*
X75586Y119523D01*
X75516Y119583D01*
X75486Y119595D01*
X75460Y119614D01*
X75373Y119641D01*
X75288Y119675D01*
X75247Y119679D01*
X75225Y119686D01*
X75193Y119685D01*
X75121Y119693D01*
X72962Y119693D01*
X69853Y122802D01*
X69853Y127198D01*
X72799Y130144D01*
X72841Y130202D01*
X72890Y130254D01*
X72912Y130301D01*
X72942Y130343D01*
X72964Y130412D01*
X72994Y130477D01*
X72999Y130529D01*
X73015Y130579D01*
X73013Y130650D01*
X73021Y130721D01*
X73010Y130772D01*
X73008Y130824D01*
X72984Y130892D01*
X72969Y130962D01*
X72942Y131007D01*
X72924Y131055D01*
X72879Y131111D01*
X72842Y131173D01*
X72803Y131207D01*
X72770Y131247D01*
X72710Y131286D01*
X72655Y131333D01*
X72607Y131352D01*
X72563Y131380D01*
X72494Y131398D01*
X72427Y131425D01*
X72356Y131433D01*
X72325Y131441D01*
X72302Y131439D01*
X72261Y131443D01*
X46709Y131443D01*
X46619Y131429D01*
X46528Y131421D01*
X46498Y131409D01*
X46466Y131404D01*
X46385Y131361D01*
X46302Y131325D01*
X46269Y131299D01*
X46249Y131288D01*
X46227Y131265D01*
X46171Y131220D01*
X42204Y127253D01*
X33996Y127253D01*
X29856Y131394D01*
X29798Y131435D01*
X29746Y131485D01*
X29699Y131507D01*
X29657Y131537D01*
X29588Y131558D01*
X29523Y131588D01*
X29471Y131594D01*
X29421Y131609D01*
X29350Y131608D01*
X29279Y131615D01*
X29228Y131604D01*
X29176Y131603D01*
X29108Y131578D01*
X29038Y131563D01*
X28993Y131536D01*
X28945Y131519D01*
X28889Y131474D01*
X28827Y131437D01*
X28793Y131397D01*
X28753Y131365D01*
X28714Y131305D01*
X28667Y131250D01*
X28648Y131202D01*
X28620Y131158D01*
X28602Y131089D01*
X28575Y131022D01*
X28567Y130951D01*
X28559Y130919D01*
X28561Y130896D01*
X28557Y130855D01*
X28557Y122042D01*
X28568Y121971D01*
X28570Y121899D01*
X28588Y121850D01*
X28596Y121799D01*
X28630Y121736D01*
X28655Y121668D01*
X28687Y121628D01*
X28712Y121581D01*
X28764Y121532D01*
X28808Y121476D01*
X28852Y121448D01*
X28890Y121412D01*
X28955Y121382D01*
X29015Y121343D01*
X29066Y121330D01*
X29113Y121308D01*
X29184Y121301D01*
X29254Y121283D01*
X29306Y121287D01*
X29357Y121281D01*
X29428Y121297D01*
X29499Y121302D01*
X29547Y121323D01*
X29598Y121334D01*
X29659Y121370D01*
X29725Y121399D01*
X29781Y121443D01*
X29809Y121460D01*
X29824Y121478D01*
X29856Y121503D01*
X33576Y125223D01*
X36577Y125223D01*
X36577Y115062D01*
X36580Y115042D01*
X36578Y115023D01*
X36600Y114921D01*
X36617Y114819D01*
X36626Y114802D01*
X36630Y114782D01*
X36683Y114693D01*
X36732Y114602D01*
X36746Y114588D01*
X36756Y114571D01*
X36835Y114504D01*
X36910Y114433D01*
X36928Y114424D01*
X36943Y114411D01*
X37039Y114373D01*
X37133Y114329D01*
X37153Y114327D01*
X37171Y114319D01*
X37338Y114301D01*
X38101Y114301D01*
X38101Y114299D01*
X37338Y114299D01*
X37318Y114296D01*
X37299Y114298D01*
X37197Y114276D01*
X37095Y114259D01*
X37078Y114250D01*
X37058Y114246D01*
X36969Y114193D01*
X36878Y114144D01*
X36864Y114130D01*
X36847Y114120D01*
X36780Y114041D01*
X36709Y113966D01*
X36700Y113948D01*
X36687Y113933D01*
X36648Y113837D01*
X36605Y113743D01*
X36603Y113723D01*
X36595Y113705D01*
X36577Y113538D01*
X36577Y103377D01*
X33576Y103377D01*
X29856Y107097D01*
X29798Y107139D01*
X29746Y107188D01*
X29699Y107210D01*
X29657Y107240D01*
X29588Y107261D01*
X29523Y107292D01*
X29471Y107297D01*
X29421Y107313D01*
X29350Y107311D01*
X29279Y107319D01*
X29228Y107308D01*
X29176Y107306D01*
X29108Y107282D01*
X29038Y107266D01*
X28993Y107240D01*
X28945Y107222D01*
X28889Y107177D01*
X28827Y107140D01*
X28793Y107101D01*
X28753Y107068D01*
X28714Y107008D01*
X28667Y106953D01*
X28648Y106905D01*
X28620Y106861D01*
X28602Y106792D01*
X28575Y106725D01*
X28567Y106654D01*
X28559Y106623D01*
X28561Y106599D01*
X28557Y106558D01*
X28557Y66789D01*
X28571Y66698D01*
X28579Y66608D01*
X28591Y66578D01*
X28596Y66546D01*
X28639Y66465D01*
X28675Y66381D01*
X28701Y66349D01*
X28712Y66328D01*
X28735Y66306D01*
X28780Y66250D01*
X64740Y30290D01*
X64798Y30248D01*
X64850Y30199D01*
X64897Y30177D01*
X64939Y30147D01*
X65008Y30126D01*
X65073Y30095D01*
X65125Y30090D01*
X65175Y30074D01*
X65246Y30076D01*
X65317Y30068D01*
X65368Y30079D01*
X65420Y30081D01*
X65488Y30105D01*
X65558Y30121D01*
X65603Y30147D01*
X65651Y30165D01*
X65707Y30210D01*
X65769Y30247D01*
X65803Y30286D01*
X65843Y30319D01*
X65882Y30379D01*
X65929Y30434D01*
X65948Y30482D01*
X65976Y30526D01*
X65994Y30595D01*
X66021Y30662D01*
X66029Y30733D01*
X66037Y30764D01*
X66035Y30788D01*
X66039Y30829D01*
X66039Y36577D01*
X74677Y36577D01*
X74677Y20669D01*
X74692Y20578D01*
X74699Y20488D01*
X74711Y20458D01*
X74717Y20426D01*
X74759Y20345D01*
X74795Y20261D01*
X74821Y20229D01*
X74832Y20208D01*
X74855Y20186D01*
X74900Y20130D01*
X76250Y18780D01*
X76324Y18727D01*
X76394Y18667D01*
X76424Y18655D01*
X76450Y18636D01*
X76537Y18609D01*
X76622Y18575D01*
X76663Y18571D01*
X76685Y18564D01*
X76717Y18565D01*
X76789Y18557D01*
X203211Y18557D01*
X203302Y18571D01*
G37*
G36*
X310019Y9371D02*
X310019Y9371D01*
X310039Y9368D01*
X310140Y9390D01*
X310241Y9406D01*
X310259Y9416D01*
X310280Y9421D01*
X310368Y9473D01*
X310459Y9521D01*
X310473Y9536D01*
X310491Y9547D01*
X310558Y9625D01*
X310628Y9699D01*
X310637Y9718D01*
X310651Y9734D01*
X310689Y9829D01*
X310733Y9922D01*
X310735Y9942D01*
X310743Y9962D01*
X310761Y10129D01*
X310761Y94685D01*
X325538Y109462D01*
X325591Y109536D01*
X325651Y109605D01*
X325663Y109635D01*
X325682Y109661D01*
X325709Y109748D01*
X325743Y109833D01*
X325747Y109874D01*
X325754Y109897D01*
X325753Y109929D01*
X325761Y110000D01*
X325761Y114239D01*
X334685Y114239D01*
X339462Y109462D01*
X339478Y109450D01*
X339490Y109435D01*
X339578Y109378D01*
X339661Y109318D01*
X339680Y109312D01*
X339697Y109302D01*
X339798Y109276D01*
X339897Y109246D01*
X339916Y109246D01*
X339936Y109241D01*
X340039Y109250D01*
X340142Y109252D01*
X340161Y109259D01*
X340181Y109261D01*
X340276Y109301D01*
X340373Y109337D01*
X340389Y109349D01*
X340407Y109357D01*
X340538Y109462D01*
X350528Y119452D01*
X350581Y119526D01*
X350641Y119595D01*
X350653Y119625D01*
X350672Y119651D01*
X350699Y119738D01*
X350733Y119823D01*
X350737Y119864D01*
X350744Y119887D01*
X350743Y119919D01*
X350751Y119990D01*
X350751Y136472D01*
X351602Y138526D01*
X353281Y140205D01*
X360538Y147462D01*
X360591Y147536D01*
X360651Y147605D01*
X360663Y147636D01*
X360682Y147662D01*
X360709Y147749D01*
X360743Y147834D01*
X360747Y147874D01*
X360754Y147897D01*
X360753Y147929D01*
X360761Y148000D01*
X360761Y153893D01*
X360750Y153964D01*
X360748Y154036D01*
X360730Y154085D01*
X360722Y154136D01*
X360688Y154199D01*
X360663Y154267D01*
X360631Y154308D01*
X360606Y154354D01*
X360555Y154403D01*
X360510Y154459D01*
X360466Y154487D01*
X360428Y154523D01*
X360363Y154553D01*
X360303Y154592D01*
X360252Y154605D01*
X360205Y154627D01*
X360134Y154634D01*
X360064Y154652D01*
X360012Y154648D01*
X359961Y154654D01*
X359890Y154638D01*
X359819Y154633D01*
X359771Y154613D01*
X359720Y154601D01*
X359659Y154565D01*
X359593Y154537D01*
X359537Y154492D01*
X359509Y154475D01*
X359494Y154457D01*
X359462Y154432D01*
X306473Y101443D01*
X279263Y101443D01*
X279173Y101429D01*
X279082Y101421D01*
X279053Y101409D01*
X279021Y101404D01*
X278940Y101361D01*
X278856Y101325D01*
X278824Y101299D01*
X278803Y101288D01*
X278781Y101265D01*
X278725Y101220D01*
X277198Y99693D01*
X272802Y99693D01*
X269693Y102802D01*
X269693Y107198D01*
X272639Y110144D01*
X272681Y110202D01*
X272730Y110254D01*
X272752Y110301D01*
X272782Y110343D01*
X272804Y110412D01*
X272834Y110477D01*
X272839Y110529D01*
X272855Y110579D01*
X272853Y110650D01*
X272861Y110721D01*
X272850Y110772D01*
X272848Y110824D01*
X272824Y110892D01*
X272809Y110962D01*
X272782Y111007D01*
X272764Y111055D01*
X272719Y111111D01*
X272682Y111173D01*
X272643Y111207D01*
X272610Y111247D01*
X272550Y111286D01*
X272495Y111333D01*
X272447Y111352D01*
X272403Y111380D01*
X272334Y111398D01*
X272267Y111425D01*
X272196Y111433D01*
X272165Y111441D01*
X272142Y111439D01*
X272101Y111443D01*
X271789Y111443D01*
X271698Y111429D01*
X271608Y111421D01*
X271578Y111409D01*
X271546Y111404D01*
X271465Y111361D01*
X271381Y111325D01*
X271349Y111299D01*
X271328Y111288D01*
X271306Y111265D01*
X271250Y111220D01*
X218780Y58750D01*
X218727Y58676D01*
X218667Y58606D01*
X218655Y58576D01*
X218636Y58550D01*
X218609Y58463D01*
X218575Y58378D01*
X218571Y58337D01*
X218564Y58315D01*
X218565Y58283D01*
X218557Y58211D01*
X218557Y23527D01*
X206473Y11443D01*
X93763Y11443D01*
X93644Y11424D01*
X93522Y11404D01*
X93521Y11404D01*
X93520Y11404D01*
X93412Y11346D01*
X93304Y11290D01*
X93304Y11289D01*
X93303Y11288D01*
X93218Y11199D01*
X93135Y11112D01*
X93134Y11111D01*
X93133Y11110D01*
X93080Y10996D01*
X93030Y10889D01*
X93030Y10888D01*
X93030Y10887D01*
X93016Y10764D01*
X93003Y10644D01*
X93003Y10643D01*
X93028Y10524D01*
X93054Y10404D01*
X93055Y10403D01*
X93055Y10402D01*
X93116Y10299D01*
X93180Y10193D01*
X93181Y10192D01*
X93181Y10191D01*
X93275Y10111D01*
X93366Y10032D01*
X93367Y10032D01*
X93368Y10031D01*
X93486Y9984D01*
X93594Y9940D01*
X93595Y9940D01*
X93596Y9939D01*
X93680Y9930D01*
X93761Y9921D01*
X309998Y9367D01*
X310019Y9371D01*
G37*
G36*
X398302Y268571D02*
X398302Y268571D01*
X398392Y268579D01*
X398422Y268591D01*
X398454Y268596D01*
X398535Y268639D01*
X398619Y268675D01*
X398651Y268701D01*
X398672Y268712D01*
X398694Y268735D01*
X398750Y268780D01*
X408527Y278557D01*
X434372Y278557D01*
X434486Y278576D01*
X434603Y278593D01*
X434608Y278595D01*
X434614Y278596D01*
X434717Y278651D01*
X434822Y278704D01*
X434826Y278709D01*
X434832Y278712D01*
X434911Y278795D01*
X434994Y278880D01*
X434998Y278886D01*
X435001Y278890D01*
X435009Y278907D01*
X435075Y279027D01*
X436085Y281465D01*
X438371Y283751D01*
X441359Y284989D01*
X457801Y284989D01*
X460789Y283751D01*
X463075Y281465D01*
X464313Y278477D01*
X464313Y275243D01*
X463075Y272255D01*
X460721Y269901D01*
X460707Y269892D01*
X460682Y269862D01*
X460681Y269862D01*
X460681Y269861D01*
X460645Y269817D01*
X460577Y269746D01*
X460566Y269723D01*
X460550Y269703D01*
X460515Y269612D01*
X460473Y269523D01*
X460471Y269498D01*
X460461Y269474D01*
X460457Y269376D01*
X460446Y269279D01*
X460452Y269254D01*
X460451Y269228D01*
X460478Y269134D01*
X460499Y269038D01*
X460512Y269016D01*
X460519Y268992D01*
X460575Y268911D01*
X460625Y268827D01*
X460644Y268810D01*
X460659Y268789D01*
X460737Y268731D01*
X460812Y268667D01*
X460835Y268658D01*
X460856Y268642D01*
X460949Y268612D01*
X461040Y268575D01*
X461071Y268572D01*
X461090Y268566D01*
X461123Y268566D01*
X461207Y268557D01*
X501453Y268557D01*
X501550Y268572D01*
X501582Y268576D01*
X501583Y268576D01*
X501647Y268582D01*
X501671Y268592D01*
X501696Y268596D01*
X501782Y268642D01*
X501872Y268682D01*
X501891Y268699D01*
X501914Y268712D01*
X501981Y268782D01*
X502053Y268848D01*
X502065Y268871D01*
X502083Y268890D01*
X502124Y268979D01*
X502171Y269064D01*
X502176Y269090D01*
X502187Y269113D01*
X502197Y269210D01*
X502215Y269306D01*
X502211Y269332D01*
X502214Y269357D01*
X502193Y269453D01*
X502179Y269549D01*
X502167Y269572D01*
X502161Y269598D01*
X502111Y269682D01*
X502067Y269769D01*
X502048Y269787D01*
X502035Y269809D01*
X501989Y269848D01*
X501979Y269862D01*
X499585Y272255D01*
X498347Y275243D01*
X498347Y278477D01*
X499585Y281465D01*
X501007Y282887D01*
X501018Y282903D01*
X501034Y282915D01*
X501063Y282960D01*
X501091Y282989D01*
X501109Y283028D01*
X501150Y283086D01*
X501156Y283105D01*
X501167Y283122D01*
X501185Y283192D01*
X501194Y283212D01*
X501197Y283238D01*
X501223Y283321D01*
X501222Y283341D01*
X501227Y283361D01*
X501220Y283448D01*
X501221Y283457D01*
X501219Y283467D01*
X501216Y283567D01*
X501210Y283586D01*
X501208Y283606D01*
X501168Y283701D01*
X501132Y283798D01*
X501119Y283814D01*
X501112Y283832D01*
X501007Y283963D01*
X483750Y301220D01*
X481443Y303527D01*
X481443Y340737D01*
X481429Y340827D01*
X481421Y340918D01*
X481409Y340947D01*
X481404Y340979D01*
X481361Y341060D01*
X481325Y341144D01*
X481299Y341176D01*
X481288Y341197D01*
X481265Y341219D01*
X481220Y341275D01*
X479693Y342802D01*
X479693Y347198D01*
X482802Y350307D01*
X487198Y350307D01*
X490307Y347198D01*
X490307Y342802D01*
X488780Y341275D01*
X488727Y341201D01*
X488667Y341131D01*
X488655Y341101D01*
X488636Y341075D01*
X488609Y340988D01*
X488575Y340903D01*
X488571Y340862D01*
X488564Y340840D01*
X488565Y340808D01*
X488557Y340737D01*
X488557Y306789D01*
X488571Y306698D01*
X488579Y306608D01*
X488591Y306578D01*
X488596Y306546D01*
X488639Y306465D01*
X488675Y306381D01*
X488701Y306349D01*
X488712Y306328D01*
X488735Y306306D01*
X488780Y306250D01*
X509818Y285212D01*
X509892Y285159D01*
X509962Y285099D01*
X509992Y285087D01*
X510018Y285068D01*
X510105Y285041D01*
X510190Y285007D01*
X510231Y285003D01*
X510253Y284996D01*
X510285Y284997D01*
X510357Y284989D01*
X521301Y284989D01*
X524289Y283751D01*
X526575Y281465D01*
X527813Y278477D01*
X527813Y275243D01*
X527580Y274681D01*
X527558Y274586D01*
X527529Y274493D01*
X527530Y274467D01*
X527524Y274442D01*
X527533Y274345D01*
X527535Y274247D01*
X527544Y274223D01*
X527547Y274197D01*
X527586Y274108D01*
X527620Y274016D01*
X527636Y273996D01*
X527647Y273972D01*
X527713Y273900D01*
X527774Y273824D01*
X527796Y273810D01*
X527813Y273791D01*
X527898Y273744D01*
X527980Y273691D01*
X528006Y273685D01*
X528029Y273672D01*
X528125Y273655D01*
X528219Y273631D01*
X528245Y273633D01*
X528271Y273629D01*
X528367Y273643D01*
X528464Y273650D01*
X528488Y273661D01*
X528514Y273664D01*
X528601Y273709D01*
X528691Y273747D01*
X528716Y273767D01*
X528733Y273776D01*
X528757Y273800D01*
X528822Y273852D01*
X556220Y301250D01*
X556273Y301324D01*
X556333Y301394D01*
X556345Y301424D01*
X556364Y301450D01*
X556391Y301537D01*
X556425Y301622D01*
X556429Y301663D01*
X556436Y301685D01*
X556435Y301717D01*
X556443Y301789D01*
X556443Y379026D01*
X556432Y379096D01*
X556430Y379168D01*
X556412Y379217D01*
X556404Y379268D01*
X556370Y379332D01*
X556345Y379399D01*
X556313Y379440D01*
X556288Y379486D01*
X556236Y379535D01*
X556192Y379591D01*
X556148Y379619D01*
X556110Y379655D01*
X556045Y379685D01*
X555985Y379724D01*
X555934Y379737D01*
X555887Y379759D01*
X555816Y379767D01*
X555746Y379784D01*
X555694Y379780D01*
X555643Y379786D01*
X555572Y379771D01*
X555501Y379765D01*
X555453Y379745D01*
X555402Y379734D01*
X555341Y379697D01*
X555275Y379669D01*
X555219Y379624D01*
X555191Y379607D01*
X555176Y379590D01*
X555144Y379564D01*
X554769Y379189D01*
X551781Y377951D01*
X549318Y377951D01*
X549298Y377948D01*
X549279Y377950D01*
X549177Y377928D01*
X549075Y377912D01*
X549058Y377902D01*
X549038Y377898D01*
X548949Y377845D01*
X548858Y377796D01*
X548844Y377782D01*
X548827Y377772D01*
X548760Y377693D01*
X548688Y377618D01*
X548680Y377600D01*
X548667Y377585D01*
X548628Y377489D01*
X548585Y377395D01*
X548583Y377375D01*
X548575Y377357D01*
X548557Y377190D01*
X548557Y374510D01*
X548576Y374394D01*
X548593Y374279D01*
X548595Y374273D01*
X548596Y374267D01*
X548651Y374163D01*
X548704Y374059D01*
X548709Y374055D01*
X548712Y374049D01*
X548796Y373969D01*
X548880Y373887D01*
X548886Y373883D01*
X548890Y373880D01*
X548907Y373872D01*
X548935Y373857D01*
X551636Y371156D01*
X553086Y367655D01*
X553086Y363865D01*
X551636Y360364D01*
X548956Y357684D01*
X545455Y356234D01*
X541665Y356234D01*
X538164Y357684D01*
X535484Y360364D01*
X535232Y360973D01*
X535170Y361073D01*
X535111Y361173D01*
X535106Y361177D01*
X535103Y361182D01*
X535013Y361257D01*
X534924Y361333D01*
X534918Y361335D01*
X534913Y361339D01*
X534805Y361381D01*
X534696Y361425D01*
X534688Y361426D01*
X534683Y361427D01*
X534665Y361428D01*
X534529Y361443D01*
X486789Y361443D01*
X486698Y361429D01*
X486608Y361421D01*
X486578Y361409D01*
X486546Y361404D01*
X486465Y361361D01*
X486381Y361325D01*
X486349Y361299D01*
X486328Y361288D01*
X486306Y361265D01*
X486250Y361220D01*
X429886Y304856D01*
X429844Y304798D01*
X429795Y304746D01*
X429773Y304699D01*
X429743Y304657D01*
X429722Y304588D01*
X429691Y304523D01*
X429686Y304471D01*
X429670Y304421D01*
X429672Y304350D01*
X429664Y304279D01*
X429675Y304228D01*
X429677Y304176D01*
X429701Y304108D01*
X429717Y304038D01*
X429743Y303993D01*
X429761Y303945D01*
X429806Y303889D01*
X429843Y303827D01*
X429882Y303793D01*
X429915Y303753D01*
X429975Y303714D01*
X430030Y303667D01*
X430078Y303648D01*
X430122Y303620D01*
X430191Y303602D01*
X430258Y303575D01*
X430329Y303567D01*
X430360Y303559D01*
X430384Y303561D01*
X430425Y303557D01*
X434206Y303557D01*
X434321Y303576D01*
X434437Y303593D01*
X434443Y303595D01*
X434449Y303596D01*
X434551Y303651D01*
X434656Y303704D01*
X434661Y303709D01*
X434666Y303712D01*
X434746Y303796D01*
X434828Y303880D01*
X434832Y303886D01*
X434836Y303890D01*
X434843Y303907D01*
X434909Y304027D01*
X436085Y306865D01*
X438371Y309151D01*
X441359Y310389D01*
X457801Y310389D01*
X460789Y309151D01*
X463075Y306865D01*
X464313Y303877D01*
X464313Y300643D01*
X463075Y297655D01*
X460789Y295369D01*
X457801Y294131D01*
X441359Y294131D01*
X438371Y295369D01*
X437520Y296220D01*
X437446Y296273D01*
X437377Y296333D01*
X437346Y296345D01*
X437320Y296364D01*
X437233Y296391D01*
X437148Y296425D01*
X437107Y296429D01*
X437085Y296436D01*
X437053Y296435D01*
X436982Y296443D01*
X431789Y296443D01*
X431698Y296429D01*
X431608Y296421D01*
X431578Y296409D01*
X431546Y296404D01*
X431465Y296361D01*
X431381Y296325D01*
X431349Y296299D01*
X431328Y296288D01*
X431306Y296265D01*
X431250Y296220D01*
X421473Y286443D01*
X394616Y286443D01*
X394520Y286428D01*
X394423Y286418D01*
X394399Y286408D01*
X394374Y286404D01*
X394288Y286358D01*
X394199Y286318D01*
X394179Y286301D01*
X394156Y286288D01*
X394089Y286218D01*
X394017Y286152D01*
X394005Y286129D01*
X393987Y286110D01*
X393946Y286022D01*
X393899Y285936D01*
X393894Y285911D01*
X393883Y285887D01*
X393873Y285790D01*
X393855Y285694D01*
X393859Y285668D01*
X393856Y285643D01*
X393877Y285547D01*
X393891Y285451D01*
X393903Y285428D01*
X393908Y285402D01*
X393958Y285319D01*
X394002Y285232D01*
X394021Y285213D01*
X394035Y285191D01*
X394108Y285128D01*
X394178Y285060D01*
X394207Y285044D01*
X394221Y285031D01*
X394252Y285019D01*
X394325Y284979D01*
X397289Y283751D01*
X399575Y281465D01*
X400813Y278477D01*
X400813Y275243D01*
X399575Y272255D01*
X397221Y269901D01*
X397208Y269893D01*
X397182Y269862D01*
X397181Y269862D01*
X397181Y269861D01*
X397145Y269817D01*
X397077Y269746D01*
X397066Y269723D01*
X397050Y269704D01*
X397015Y269612D01*
X396973Y269523D01*
X396971Y269498D01*
X396962Y269474D01*
X396957Y269376D01*
X396946Y269279D01*
X396952Y269254D01*
X396951Y269229D01*
X396978Y269134D01*
X396999Y269038D01*
X397012Y269017D01*
X397018Y268992D01*
X397074Y268911D01*
X397125Y268827D01*
X397144Y268811D01*
X397158Y268790D01*
X397237Y268731D01*
X397312Y268667D01*
X397335Y268658D01*
X397355Y268643D01*
X397449Y268612D01*
X397540Y268575D01*
X397571Y268572D01*
X397589Y268566D01*
X397622Y268566D01*
X397707Y268557D01*
X398211Y268557D01*
X398302Y268571D01*
G37*
G36*
X148468Y228568D02*
X148468Y228568D01*
X148540Y228570D01*
X148589Y228588D01*
X148640Y228596D01*
X148703Y228630D01*
X148771Y228655D01*
X148811Y228687D01*
X148857Y228712D01*
X148907Y228764D01*
X148963Y228808D01*
X148991Y228852D01*
X149027Y228890D01*
X149057Y228955D01*
X149096Y229015D01*
X149108Y229066D01*
X149130Y229113D01*
X149138Y229184D01*
X149156Y229254D01*
X149152Y229306D01*
X149157Y229357D01*
X149142Y229428D01*
X149137Y229499D01*
X149116Y229547D01*
X149105Y229598D01*
X149068Y229659D01*
X149040Y229725D01*
X148996Y229781D01*
X148979Y229809D01*
X148961Y229824D01*
X148936Y229856D01*
X144398Y234393D01*
X144398Y237237D01*
X154178Y237237D01*
X154198Y237240D01*
X154217Y237238D01*
X154319Y237260D01*
X154421Y237277D01*
X154438Y237286D01*
X154458Y237290D01*
X154547Y237343D01*
X154638Y237392D01*
X154652Y237406D01*
X154669Y237416D01*
X154736Y237495D01*
X154807Y237570D01*
X154816Y237588D01*
X154829Y237603D01*
X154867Y237699D01*
X154911Y237793D01*
X154913Y237813D01*
X154921Y237831D01*
X154939Y237998D01*
X154939Y238761D01*
X154941Y238761D01*
X154941Y237998D01*
X154944Y237978D01*
X154942Y237959D01*
X154964Y237857D01*
X154981Y237755D01*
X154990Y237738D01*
X154994Y237718D01*
X155047Y237629D01*
X155096Y237538D01*
X155110Y237524D01*
X155120Y237507D01*
X155199Y237440D01*
X155274Y237369D01*
X155292Y237360D01*
X155307Y237347D01*
X155403Y237308D01*
X155497Y237265D01*
X155517Y237263D01*
X155535Y237255D01*
X155702Y237237D01*
X165494Y237237D01*
X165495Y237207D01*
X165513Y237158D01*
X165521Y237107D01*
X165555Y237043D01*
X165580Y236976D01*
X165612Y236935D01*
X165637Y236889D01*
X165689Y236840D01*
X165733Y236784D01*
X165777Y236756D01*
X165815Y236720D01*
X165880Y236690D01*
X165940Y236651D01*
X165991Y236638D01*
X166038Y236616D01*
X166109Y236608D01*
X166179Y236591D01*
X166231Y236595D01*
X166282Y236589D01*
X166353Y236605D01*
X166424Y236610D01*
X166472Y236630D01*
X166523Y236642D01*
X166584Y236678D01*
X166650Y236706D01*
X166706Y236751D01*
X166734Y236768D01*
X166749Y236786D01*
X166781Y236811D01*
X168527Y238557D01*
X187101Y238557D01*
X187171Y238568D01*
X187243Y238570D01*
X187292Y238588D01*
X187343Y238596D01*
X187407Y238630D01*
X187474Y238655D01*
X187515Y238687D01*
X187561Y238712D01*
X187610Y238764D01*
X187666Y238808D01*
X187694Y238852D01*
X187730Y238890D01*
X187760Y238955D01*
X187799Y239015D01*
X187812Y239066D01*
X187834Y239113D01*
X187842Y239184D01*
X187859Y239254D01*
X187855Y239306D01*
X187861Y239357D01*
X187846Y239428D01*
X187840Y239499D01*
X187820Y239547D01*
X187809Y239598D01*
X187772Y239659D01*
X187744Y239725D01*
X187699Y239781D01*
X187682Y239809D01*
X187665Y239824D01*
X187639Y239856D01*
X184693Y242802D01*
X184693Y247198D01*
X187639Y250144D01*
X187681Y250202D01*
X187730Y250254D01*
X187752Y250301D01*
X187782Y250343D01*
X187804Y250412D01*
X187834Y250477D01*
X187839Y250529D01*
X187855Y250579D01*
X187853Y250650D01*
X187861Y250721D01*
X187850Y250772D01*
X187848Y250824D01*
X187824Y250892D01*
X187809Y250962D01*
X187782Y251007D01*
X187764Y251055D01*
X187719Y251111D01*
X187682Y251173D01*
X187643Y251207D01*
X187610Y251247D01*
X187550Y251286D01*
X187495Y251333D01*
X187447Y251352D01*
X187403Y251380D01*
X187334Y251398D01*
X187267Y251425D01*
X187196Y251433D01*
X187165Y251441D01*
X187142Y251439D01*
X187101Y251443D01*
X133527Y251443D01*
X115700Y269270D01*
X115626Y269323D01*
X115556Y269383D01*
X115526Y269395D01*
X115500Y269414D01*
X115413Y269441D01*
X115328Y269475D01*
X115287Y269479D01*
X115265Y269486D01*
X115233Y269485D01*
X115161Y269493D01*
X112375Y269493D01*
X112304Y269482D01*
X112232Y269480D01*
X112183Y269462D01*
X112132Y269454D01*
X112068Y269420D01*
X112001Y269395D01*
X111960Y269363D01*
X111914Y269338D01*
X111865Y269286D01*
X111809Y269242D01*
X111781Y269198D01*
X111745Y269160D01*
X111715Y269095D01*
X111676Y269035D01*
X111663Y268984D01*
X111641Y268937D01*
X111633Y268866D01*
X111616Y268796D01*
X111620Y268744D01*
X111614Y268693D01*
X111630Y268622D01*
X111635Y268551D01*
X111655Y268503D01*
X111667Y268452D01*
X111703Y268391D01*
X111731Y268325D01*
X111776Y268269D01*
X111793Y268241D01*
X111811Y268226D01*
X111836Y268194D01*
X113557Y266473D01*
X113557Y239263D01*
X113560Y239244D01*
X113558Y239225D01*
X113573Y239156D01*
X113579Y239082D01*
X113591Y239053D01*
X113596Y239021D01*
X113606Y239002D01*
X113610Y238985D01*
X113645Y238927D01*
X113675Y238856D01*
X113701Y238824D01*
X113712Y238803D01*
X113728Y238788D01*
X113736Y238774D01*
X113751Y238762D01*
X113780Y238725D01*
X115307Y237198D01*
X115307Y232802D01*
X112361Y229856D01*
X112319Y229798D01*
X112270Y229746D01*
X112248Y229699D01*
X112218Y229657D01*
X112196Y229588D01*
X112166Y229523D01*
X112161Y229471D01*
X112145Y229421D01*
X112147Y229350D01*
X112139Y229279D01*
X112150Y229228D01*
X112152Y229176D01*
X112176Y229108D01*
X112191Y229038D01*
X112218Y228993D01*
X112236Y228945D01*
X112281Y228889D01*
X112318Y228827D01*
X112357Y228793D01*
X112390Y228753D01*
X112450Y228714D01*
X112505Y228667D01*
X112553Y228648D01*
X112597Y228620D01*
X112666Y228602D01*
X112733Y228575D01*
X112804Y228567D01*
X112835Y228559D01*
X112858Y228561D01*
X112899Y228557D01*
X148397Y228557D01*
X148468Y228568D01*
G37*
%LPC*%
G36*
X77021Y59869D02*
X77021Y59869D01*
X69152Y63129D01*
X63129Y69152D01*
X59869Y77021D01*
X59869Y85539D01*
X63129Y93408D01*
X69152Y99431D01*
X77021Y102691D01*
X85539Y102691D01*
X93408Y99431D01*
X99431Y93408D01*
X102691Y85539D01*
X102691Y77021D01*
X99431Y69152D01*
X93408Y63129D01*
X85539Y59869D01*
X77021Y59869D01*
G37*
%LPD*%
%LPC*%
G36*
X29879Y177291D02*
X29879Y177291D01*
X26891Y178529D01*
X24605Y180815D01*
X23367Y183803D01*
X23367Y187037D01*
X24605Y190025D01*
X26891Y192311D01*
X29879Y193549D01*
X35682Y193549D01*
X35702Y193552D01*
X35721Y193550D01*
X35823Y193572D01*
X35925Y193588D01*
X35942Y193598D01*
X35962Y193602D01*
X36051Y193655D01*
X36142Y193704D01*
X36156Y193718D01*
X36173Y193728D01*
X36240Y193807D01*
X36312Y193882D01*
X36320Y193900D01*
X36333Y193915D01*
X36372Y194011D01*
X36415Y194105D01*
X36417Y194125D01*
X36425Y194143D01*
X36443Y194310D01*
X36443Y203227D01*
X36424Y203342D01*
X36407Y203458D01*
X36405Y203464D01*
X36404Y203470D01*
X36349Y203572D01*
X36296Y203677D01*
X36291Y203682D01*
X36288Y203687D01*
X36204Y203767D01*
X36120Y203849D01*
X36114Y203853D01*
X36110Y203857D01*
X36093Y203864D01*
X35973Y203930D01*
X32704Y205284D01*
X30024Y207964D01*
X28574Y211465D01*
X28574Y215255D01*
X30024Y218756D01*
X32704Y221436D01*
X36205Y222886D01*
X39995Y222886D01*
X43496Y221436D01*
X46176Y218756D01*
X47626Y215255D01*
X47626Y211465D01*
X46176Y207964D01*
X43780Y205568D01*
X43727Y205494D01*
X43667Y205425D01*
X43655Y205395D01*
X43636Y205369D01*
X43609Y205282D01*
X43575Y205197D01*
X43571Y205156D01*
X43564Y205133D01*
X43565Y205101D01*
X43557Y205030D01*
X43557Y194310D01*
X43560Y194290D01*
X43558Y194271D01*
X43580Y194169D01*
X43596Y194067D01*
X43606Y194050D01*
X43610Y194030D01*
X43663Y193941D01*
X43712Y193850D01*
X43726Y193836D01*
X43736Y193819D01*
X43815Y193752D01*
X43890Y193680D01*
X43908Y193672D01*
X43923Y193659D01*
X44019Y193620D01*
X44113Y193577D01*
X44133Y193575D01*
X44151Y193567D01*
X44318Y193549D01*
X46321Y193549D01*
X49309Y192311D01*
X51595Y190025D01*
X52833Y187037D01*
X52833Y183803D01*
X51595Y180815D01*
X49309Y178529D01*
X46321Y177291D01*
X29879Y177291D01*
G37*
%LPD*%
%LPC*%
G36*
X841461Y470915D02*
X841461Y470915D01*
X838100Y472307D01*
X835527Y474880D01*
X834135Y478241D01*
X834135Y497119D01*
X835527Y500480D01*
X838100Y503053D01*
X841461Y504445D01*
X845099Y504445D01*
X848460Y503053D01*
X851033Y500480D01*
X852425Y497119D01*
X852425Y478241D01*
X851033Y474880D01*
X848460Y472307D01*
X845099Y470915D01*
X841461Y470915D01*
G37*
%LPD*%
%LPC*%
G36*
X790661Y470915D02*
X790661Y470915D01*
X787300Y472307D01*
X784727Y474880D01*
X783335Y478241D01*
X783335Y497119D01*
X784727Y500480D01*
X787300Y503053D01*
X790661Y504445D01*
X794299Y504445D01*
X797660Y503053D01*
X800233Y500480D01*
X801625Y497119D01*
X801625Y478241D01*
X800233Y474880D01*
X797660Y472307D01*
X794299Y470915D01*
X790661Y470915D01*
G37*
%LPD*%
%LPC*%
G36*
X99781Y21335D02*
X99781Y21335D01*
X96420Y22727D01*
X93847Y25300D01*
X92455Y28661D01*
X92455Y47539D01*
X93847Y50900D01*
X96420Y53473D01*
X99781Y54865D01*
X103419Y54865D01*
X106780Y53473D01*
X109353Y50900D01*
X110745Y47539D01*
X110745Y28661D01*
X109353Y25300D01*
X106780Y22727D01*
X103419Y21335D01*
X99781Y21335D01*
G37*
%LPD*%
%LPC*%
G36*
X125181Y21335D02*
X125181Y21335D01*
X121820Y22727D01*
X119247Y25300D01*
X117855Y28661D01*
X117855Y47539D01*
X119247Y50900D01*
X121820Y53473D01*
X125181Y54865D01*
X128819Y54865D01*
X132180Y53473D01*
X134753Y50900D01*
X136145Y47539D01*
X136145Y28661D01*
X134753Y25300D01*
X132180Y22727D01*
X128819Y21335D01*
X125181Y21335D01*
G37*
%LPD*%
%LPC*%
G36*
X739861Y470915D02*
X739861Y470915D01*
X736500Y472307D01*
X733927Y474880D01*
X732535Y478241D01*
X732535Y497119D01*
X733927Y500480D01*
X736500Y503053D01*
X739861Y504445D01*
X743499Y504445D01*
X746860Y503053D01*
X749433Y500480D01*
X750825Y497119D01*
X750825Y478241D01*
X749433Y474880D01*
X746860Y472307D01*
X743499Y470915D01*
X739861Y470915D01*
G37*
%LPD*%
%LPC*%
G36*
X816061Y470915D02*
X816061Y470915D01*
X812700Y472307D01*
X810127Y474880D01*
X808735Y478241D01*
X808735Y497119D01*
X810127Y500480D01*
X812700Y503053D01*
X816061Y504445D01*
X819699Y504445D01*
X823060Y503053D01*
X825633Y500480D01*
X827025Y497119D01*
X827025Y478241D01*
X825633Y474880D01*
X823060Y472307D01*
X819699Y470915D01*
X816061Y470915D01*
G37*
%LPD*%
%LPC*%
G36*
X765261Y470915D02*
X765261Y470915D01*
X761900Y472307D01*
X759327Y474880D01*
X757935Y478241D01*
X757935Y497119D01*
X759327Y500480D01*
X761900Y503053D01*
X765261Y504445D01*
X768899Y504445D01*
X772260Y503053D01*
X774833Y500480D01*
X776225Y497119D01*
X776225Y478241D01*
X774833Y474880D01*
X772260Y472307D01*
X768899Y470915D01*
X765261Y470915D01*
G37*
%LPD*%
%LPC*%
G36*
X866861Y470915D02*
X866861Y470915D01*
X863500Y472307D01*
X860927Y474880D01*
X859535Y478241D01*
X859535Y497119D01*
X860927Y500480D01*
X863500Y503053D01*
X866861Y504445D01*
X870499Y504445D01*
X873860Y503053D01*
X876433Y500480D01*
X877825Y497119D01*
X877825Y478241D01*
X876433Y474880D01*
X873860Y472307D01*
X870499Y470915D01*
X866861Y470915D01*
G37*
%LPD*%
%LPC*%
G36*
X459139Y377951D02*
X459139Y377951D01*
X456151Y379189D01*
X453865Y381475D01*
X452627Y384463D01*
X452627Y387697D01*
X453865Y390685D01*
X456151Y392971D01*
X459139Y394209D01*
X475581Y394209D01*
X478569Y392971D01*
X480855Y390685D01*
X482093Y387697D01*
X482093Y384463D01*
X480855Y381475D01*
X478569Y379189D01*
X475581Y377951D01*
X459139Y377951D01*
G37*
%LPD*%
%LPC*%
G36*
X504859Y294131D02*
X504859Y294131D01*
X501871Y295369D01*
X499585Y297655D01*
X498347Y300643D01*
X498347Y303877D01*
X499585Y306865D01*
X501871Y309151D01*
X504859Y310389D01*
X521301Y310389D01*
X524289Y309151D01*
X526575Y306865D01*
X527813Y303877D01*
X527813Y300643D01*
X526575Y297655D01*
X524289Y295369D01*
X521301Y294131D01*
X504859Y294131D01*
G37*
%LPD*%
%LPC*%
G36*
X463256Y421893D02*
X463256Y421893D01*
X457453Y427696D01*
X457453Y435904D01*
X463256Y441707D01*
X471464Y441707D01*
X477267Y435904D01*
X477267Y427696D01*
X471464Y421893D01*
X463256Y421893D01*
G37*
%LPD*%
%LPC*%
G36*
X110196Y127253D02*
X110196Y127253D01*
X104393Y133056D01*
X104393Y141264D01*
X110196Y147067D01*
X118404Y147067D01*
X124207Y141264D01*
X124207Y133056D01*
X118404Y127253D01*
X110196Y127253D01*
G37*
%LPD*%
%LPC*%
G36*
X33996Y315213D02*
X33996Y315213D01*
X28193Y321016D01*
X28193Y329224D01*
X33996Y335027D01*
X42204Y335027D01*
X48007Y329224D01*
X48007Y321016D01*
X42204Y315213D01*
X33996Y315213D01*
G37*
%LPD*%
%LPC*%
G36*
X110196Y150113D02*
X110196Y150113D01*
X104393Y155916D01*
X104393Y164124D01*
X110196Y169927D01*
X118404Y169927D01*
X124207Y164124D01*
X124207Y155916D01*
X118404Y150113D01*
X110196Y150113D01*
G37*
%LPD*%
%LPC*%
G36*
X422616Y424433D02*
X422616Y424433D01*
X416813Y430236D01*
X416813Y438444D01*
X422616Y444247D01*
X430824Y444247D01*
X436627Y438444D01*
X436627Y430236D01*
X430824Y424433D01*
X422616Y424433D01*
G37*
%LPD*%
%LPC*%
G36*
X422616Y399033D02*
X422616Y399033D01*
X416813Y404836D01*
X416813Y413044D01*
X422616Y418847D01*
X430824Y418847D01*
X436627Y413044D01*
X436627Y404836D01*
X430824Y399033D01*
X422616Y399033D01*
G37*
%LPD*%
%LPC*%
G36*
X463256Y399033D02*
X463256Y399033D01*
X457453Y404836D01*
X457453Y413044D01*
X463256Y418847D01*
X471464Y418847D01*
X477267Y413044D01*
X477267Y404836D01*
X471464Y399033D01*
X463256Y399033D01*
G37*
%LPD*%
%LPC*%
G36*
X346416Y447293D02*
X346416Y447293D01*
X340613Y453096D01*
X340613Y461304D01*
X346416Y467107D01*
X354624Y467107D01*
X360427Y461304D01*
X360427Y453096D01*
X354624Y447293D01*
X346416Y447293D01*
G37*
%LPD*%
%LPC*%
G36*
X229576Y396493D02*
X229576Y396493D01*
X223773Y402296D01*
X223773Y410504D01*
X229576Y416307D01*
X237784Y416307D01*
X243587Y410504D01*
X243587Y402296D01*
X237784Y396493D01*
X229576Y396493D01*
G37*
%LPD*%
%LPC*%
G36*
X229576Y315213D02*
X229576Y315213D01*
X223773Y321016D01*
X223773Y329224D01*
X229576Y335027D01*
X237784Y335027D01*
X243587Y329224D01*
X243587Y321016D01*
X237784Y315213D01*
X229576Y315213D01*
G37*
%LPD*%
%LPC*%
G36*
X229576Y292353D02*
X229576Y292353D01*
X223773Y298156D01*
X223773Y306364D01*
X229576Y312167D01*
X237784Y312167D01*
X243587Y306364D01*
X243587Y298156D01*
X237784Y292353D01*
X229576Y292353D01*
G37*
%LPD*%
%LPC*%
G36*
X153376Y292353D02*
X153376Y292353D01*
X147573Y298156D01*
X147573Y306364D01*
X153376Y312167D01*
X161584Y312167D01*
X167387Y306364D01*
X167387Y298156D01*
X161584Y292353D01*
X153376Y292353D01*
G37*
%LPD*%
%LPC*%
G36*
X282863Y53523D02*
X282863Y53523D01*
X282863Y72443D01*
X284042Y72257D01*
X285770Y71695D01*
X287389Y70871D01*
X288858Y69803D01*
X290143Y68518D01*
X291211Y67049D01*
X292035Y65430D01*
X292597Y63702D01*
X292881Y61908D01*
X292881Y53523D01*
X282863Y53523D01*
G37*
%LPD*%
%LPC*%
G36*
X282863Y50477D02*
X282863Y50477D01*
X292881Y50477D01*
X292881Y42092D01*
X292597Y40298D01*
X292035Y38570D01*
X291211Y36951D01*
X290143Y35482D01*
X288858Y34197D01*
X287389Y33129D01*
X285770Y32305D01*
X284042Y31743D01*
X282863Y31557D01*
X282863Y50477D01*
G37*
%LPD*%
%LPC*%
G36*
X269799Y53523D02*
X269799Y53523D01*
X269799Y61908D01*
X270083Y63702D01*
X270645Y65430D01*
X271469Y67049D01*
X272537Y68518D01*
X273822Y69803D01*
X275291Y70871D01*
X276910Y71695D01*
X278638Y72257D01*
X279817Y72443D01*
X279817Y53523D01*
X269799Y53523D01*
G37*
%LPD*%
%LPC*%
G36*
X278638Y31743D02*
X278638Y31743D01*
X276910Y32305D01*
X275291Y33129D01*
X273822Y34197D01*
X272537Y35482D01*
X271469Y36951D01*
X270645Y38570D01*
X270083Y40298D01*
X269799Y42092D01*
X269799Y50477D01*
X279817Y50477D01*
X279817Y31557D01*
X278638Y31743D01*
G37*
%LPD*%
%LPC*%
G36*
X77723Y39623D02*
X77723Y39623D01*
X77723Y55766D01*
X78579Y55631D01*
X80100Y55136D01*
X81525Y54410D01*
X82819Y53470D01*
X83950Y52339D01*
X84890Y51045D01*
X85616Y49620D01*
X86111Y48099D01*
X86361Y46520D01*
X86361Y39623D01*
X77723Y39623D01*
G37*
%LPD*%
%LPC*%
G36*
X77723Y36577D02*
X77723Y36577D01*
X86361Y36577D01*
X86361Y29680D01*
X86111Y28101D01*
X85616Y26580D01*
X84890Y25155D01*
X83950Y23861D01*
X82819Y22730D01*
X81525Y21790D01*
X80100Y21064D01*
X78579Y20569D01*
X77723Y20434D01*
X77723Y36577D01*
G37*
%LPD*%
%LPC*%
G36*
X66039Y39623D02*
X66039Y39623D01*
X66039Y46520D01*
X66289Y48099D01*
X66784Y49620D01*
X67510Y51045D01*
X68450Y52339D01*
X69581Y53470D01*
X70875Y54410D01*
X72300Y55136D01*
X73821Y55631D01*
X74677Y55766D01*
X74677Y39623D01*
X66039Y39623D01*
G37*
%LPD*%
%LPC*%
G36*
X651523Y424623D02*
X651523Y424623D01*
X651523Y438725D01*
X652667Y438497D01*
X654332Y437808D01*
X655830Y436807D01*
X657103Y435534D01*
X658104Y434036D01*
X658793Y432371D01*
X659145Y430605D01*
X659145Y424623D01*
X651523Y424623D01*
G37*
%LPD*%
%LPC*%
G36*
X651523Y421577D02*
X651523Y421577D01*
X659145Y421577D01*
X659145Y415595D01*
X658793Y413829D01*
X658104Y412164D01*
X657103Y410666D01*
X655830Y409393D01*
X654332Y408392D01*
X652667Y407703D01*
X651523Y407475D01*
X651523Y421577D01*
G37*
%LPD*%
%LPC*%
G36*
X640855Y424623D02*
X640855Y424623D01*
X640855Y430605D01*
X641207Y432371D01*
X641896Y434036D01*
X642897Y435534D01*
X644170Y436807D01*
X645668Y437808D01*
X647333Y438497D01*
X648477Y438725D01*
X648477Y424623D01*
X640855Y424623D01*
G37*
%LPD*%
%LPC*%
G36*
X647333Y407703D02*
X647333Y407703D01*
X645668Y408392D01*
X644170Y409393D01*
X642897Y410666D01*
X641896Y412164D01*
X641207Y413829D01*
X640855Y415595D01*
X640855Y421577D01*
X648477Y421577D01*
X648477Y407475D01*
X647333Y407703D01*
G37*
%LPD*%
%LPC*%
G36*
X39623Y280923D02*
X39623Y280923D01*
X39623Y290323D01*
X42624Y290323D01*
X49023Y283924D01*
X49023Y280923D01*
X39623Y280923D01*
G37*
%LPD*%
%LPC*%
G36*
X235203Y453643D02*
X235203Y453643D01*
X235203Y463043D01*
X238204Y463043D01*
X244603Y456644D01*
X244603Y453643D01*
X235203Y453643D01*
G37*
%LPD*%
%LPC*%
G36*
X39623Y115823D02*
X39623Y115823D01*
X39623Y125223D01*
X42624Y125223D01*
X49023Y118824D01*
X49023Y115823D01*
X39623Y115823D01*
G37*
%LPD*%
%LPC*%
G36*
X156463Y113283D02*
X156463Y113283D01*
X156463Y122683D01*
X159464Y122683D01*
X165863Y116284D01*
X165863Y113283D01*
X156463Y113283D01*
G37*
%LPD*%
%LPC*%
G36*
X235203Y441197D02*
X235203Y441197D01*
X235203Y450597D01*
X244603Y450597D01*
X244603Y447596D01*
X238204Y441197D01*
X235203Y441197D01*
G37*
%LPD*%
%LPC*%
G36*
X39623Y103377D02*
X39623Y103377D01*
X39623Y112777D01*
X49023Y112777D01*
X49023Y109776D01*
X42624Y103377D01*
X39623Y103377D01*
G37*
%LPD*%
%LPC*%
G36*
X144017Y113283D02*
X144017Y113283D01*
X144017Y116284D01*
X150416Y122683D01*
X153417Y122683D01*
X153417Y113283D01*
X144017Y113283D01*
G37*
%LPD*%
%LPC*%
G36*
X27177Y280923D02*
X27177Y280923D01*
X27177Y283924D01*
X33576Y290323D01*
X36577Y290323D01*
X36577Y280923D01*
X27177Y280923D01*
G37*
%LPD*%
%LPC*%
G36*
X146557Y280923D02*
X146557Y280923D01*
X146557Y283924D01*
X152956Y290323D01*
X155957Y290323D01*
X155957Y280923D01*
X146557Y280923D01*
G37*
%LPD*%
%LPC*%
G36*
X428243Y446277D02*
X428243Y446277D01*
X428243Y455677D01*
X437643Y455677D01*
X437643Y452676D01*
X431244Y446277D01*
X428243Y446277D01*
G37*
%LPD*%
%LPC*%
G36*
X156463Y100837D02*
X156463Y100837D01*
X156463Y110237D01*
X165863Y110237D01*
X165863Y107236D01*
X159464Y100837D01*
X156463Y100837D01*
G37*
%LPD*%
%LPC*%
G36*
X468883Y443737D02*
X468883Y443737D01*
X468883Y453137D01*
X478283Y453137D01*
X478283Y450136D01*
X471884Y443737D01*
X468883Y443737D01*
G37*
%LPD*%
%LPC*%
G36*
X39623Y268477D02*
X39623Y268477D01*
X39623Y277877D01*
X49023Y277877D01*
X49023Y274876D01*
X42624Y268477D01*
X39623Y268477D01*
G37*
%LPD*%
%LPC*%
G36*
X33576Y268477D02*
X33576Y268477D01*
X27177Y274876D01*
X27177Y277877D01*
X36577Y277877D01*
X36577Y268477D01*
X33576Y268477D01*
G37*
%LPD*%
%LPC*%
G36*
X422196Y446277D02*
X422196Y446277D01*
X415797Y452676D01*
X415797Y455677D01*
X425197Y455677D01*
X425197Y446277D01*
X422196Y446277D01*
G37*
%LPD*%
%LPC*%
G36*
X150416Y100837D02*
X150416Y100837D01*
X144017Y107236D01*
X144017Y110237D01*
X153417Y110237D01*
X153417Y100837D01*
X150416Y100837D01*
G37*
%LPD*%
%LPC*%
G36*
X229156Y441197D02*
X229156Y441197D01*
X222757Y447596D01*
X222757Y450597D01*
X232157Y450597D01*
X232157Y441197D01*
X229156Y441197D01*
G37*
%LPD*%
%LPC*%
G36*
X462836Y443737D02*
X462836Y443737D01*
X456437Y450136D01*
X456437Y453137D01*
X465837Y453137D01*
X465837Y443737D01*
X462836Y443737D01*
G37*
%LPD*%
%LPC*%
G36*
X39623Y240283D02*
X39623Y240283D01*
X39623Y249302D01*
X42467Y249302D01*
X48642Y243127D01*
X48642Y240283D01*
X39623Y240283D01*
G37*
%LPD*%
%LPC*%
G36*
X156463Y240283D02*
X156463Y240283D01*
X156463Y249302D01*
X159307Y249302D01*
X165482Y243127D01*
X165482Y240283D01*
X156463Y240283D01*
G37*
%LPD*%
%LPC*%
G36*
X311403Y334263D02*
X311403Y334263D01*
X311403Y343282D01*
X314247Y343282D01*
X320422Y337107D01*
X320422Y334263D01*
X311403Y334263D01*
G37*
%LPD*%
%LPC*%
G36*
X428243Y336803D02*
X428243Y336803D01*
X428243Y345822D01*
X431087Y345822D01*
X437262Y339647D01*
X437262Y336803D01*
X428243Y336803D01*
G37*
%LPD*%
%LPC*%
G36*
X159003Y405383D02*
X159003Y405383D01*
X159003Y414402D01*
X161847Y414402D01*
X168022Y408227D01*
X168022Y405383D01*
X159003Y405383D01*
G37*
%LPD*%
%LPC*%
G36*
X545083Y341883D02*
X545083Y341883D01*
X545083Y350902D01*
X547927Y350902D01*
X554102Y344727D01*
X554102Y341883D01*
X545083Y341883D01*
G37*
%LPD*%
%LPC*%
G36*
X545083Y329818D02*
X545083Y329818D01*
X545083Y338837D01*
X554102Y338837D01*
X554102Y335993D01*
X547927Y329818D01*
X545083Y329818D01*
G37*
%LPD*%
%LPC*%
G36*
X159003Y393318D02*
X159003Y393318D01*
X159003Y402337D01*
X168022Y402337D01*
X168022Y399493D01*
X161847Y393318D01*
X159003Y393318D01*
G37*
%LPD*%
%LPC*%
G36*
X39623Y228218D02*
X39623Y228218D01*
X39623Y237237D01*
X48642Y237237D01*
X48642Y234393D01*
X42467Y228218D01*
X39623Y228218D01*
G37*
%LPD*%
%LPC*%
G36*
X416178Y336803D02*
X416178Y336803D01*
X416178Y339647D01*
X422353Y345822D01*
X425197Y345822D01*
X425197Y336803D01*
X416178Y336803D01*
G37*
%LPD*%
%LPC*%
G36*
X144398Y240283D02*
X144398Y240283D01*
X144398Y243127D01*
X150573Y249302D01*
X153417Y249302D01*
X153417Y240283D01*
X144398Y240283D01*
G37*
%LPD*%
%LPC*%
G36*
X27558Y240283D02*
X27558Y240283D01*
X27558Y243127D01*
X33733Y249302D01*
X36577Y249302D01*
X36577Y240283D01*
X27558Y240283D01*
G37*
%LPD*%
%LPC*%
G36*
X27558Y400303D02*
X27558Y400303D01*
X27558Y403147D01*
X33733Y409322D01*
X36577Y409322D01*
X36577Y400303D01*
X27558Y400303D01*
G37*
%LPD*%
%LPC*%
G36*
X533018Y341883D02*
X533018Y341883D01*
X533018Y344727D01*
X539193Y350902D01*
X542037Y350902D01*
X542037Y341883D01*
X533018Y341883D01*
G37*
%LPD*%
%LPC*%
G36*
X539193Y329818D02*
X539193Y329818D01*
X533018Y335993D01*
X533018Y338837D01*
X542037Y338837D01*
X542037Y329818D01*
X539193Y329818D01*
G37*
%LPD*%
%LPC*%
G36*
X33733Y388238D02*
X33733Y388238D01*
X27558Y394413D01*
X27558Y397257D01*
X36577Y397257D01*
X36577Y388238D01*
X33733Y388238D01*
G37*
%LPD*%
%LPC*%
G36*
X33733Y228218D02*
X33733Y228218D01*
X27558Y234393D01*
X27558Y237237D01*
X36577Y237237D01*
X36577Y228218D01*
X33733Y228218D01*
G37*
%LPD*%
%LPC*%
G36*
X153113Y393318D02*
X153113Y393318D01*
X146938Y399493D01*
X146938Y402337D01*
X155957Y402337D01*
X155957Y393318D01*
X153113Y393318D01*
G37*
%LPD*%
%LPC*%
G36*
X649999Y423099D02*
X649999Y423099D01*
X649999Y423101D01*
X650001Y423101D01*
X650001Y423099D01*
X649999Y423099D01*
G37*
%LPD*%
%LPC*%
G36*
X157479Y403859D02*
X157479Y403859D01*
X157479Y403861D01*
X157481Y403861D01*
X157481Y403859D01*
X157479Y403859D01*
G37*
%LPD*%
%LPC*%
G36*
X38099Y279399D02*
X38099Y279399D01*
X38099Y279401D01*
X38101Y279401D01*
X38101Y279399D01*
X38099Y279399D01*
G37*
%LPD*%
%LPC*%
G36*
X154939Y111759D02*
X154939Y111759D01*
X154939Y111761D01*
X154941Y111761D01*
X154941Y111759D01*
X154939Y111759D01*
G37*
%LPD*%
%LPC*%
G36*
X281339Y51999D02*
X281339Y51999D01*
X281339Y52001D01*
X281341Y52001D01*
X281341Y51999D01*
X281339Y51999D01*
G37*
%LPD*%
%LPC*%
G36*
X543559Y340359D02*
X543559Y340359D01*
X543559Y340361D01*
X543561Y340361D01*
X543561Y340359D01*
X543559Y340359D01*
G37*
%LPD*%
%LPC*%
G36*
X38099Y238759D02*
X38099Y238759D01*
X38099Y238761D01*
X38101Y238761D01*
X38101Y238759D01*
X38099Y238759D01*
G37*
%LPD*%
%LPC*%
G36*
X76199Y38099D02*
X76199Y38099D01*
X76199Y38101D01*
X76201Y38101D01*
X76201Y38099D01*
X76199Y38099D01*
G37*
%LPD*%
%LPC*%
G36*
X233679Y452119D02*
X233679Y452119D01*
X233679Y452121D01*
X233681Y452121D01*
X233681Y452119D01*
X233679Y452119D01*
G37*
%LPD*%
D10*
X76200Y30480D02*
X76200Y45720D01*
X101600Y45720D02*
X101600Y30480D01*
X127000Y30480D02*
X127000Y45720D01*
X152400Y45720D02*
X152400Y30480D01*
X177800Y30480D02*
X177800Y45720D01*
X203200Y45720D02*
X203200Y30480D01*
X193040Y480060D02*
X193040Y495300D01*
X167640Y495300D02*
X167640Y480060D01*
X142240Y480060D02*
X142240Y495300D01*
X116840Y495300D02*
X116840Y480060D01*
X91440Y480060D02*
X91440Y495300D01*
X66040Y495300D02*
X66040Y480060D01*
X868680Y480060D02*
X868680Y495300D01*
X843280Y495300D02*
X843280Y480060D01*
X817880Y480060D02*
X817880Y495300D01*
X792480Y495300D02*
X792480Y480060D01*
X767080Y480060D02*
X767080Y495300D01*
X741680Y495300D02*
X741680Y480060D01*
X406400Y144780D02*
X391160Y144780D01*
X391160Y170180D02*
X406400Y170180D01*
X406400Y195580D02*
X391160Y195580D01*
D11*
X274320Y159004D02*
X274320Y145796D01*
X325120Y145796D02*
X325120Y159004D01*
X299720Y159004D02*
X299720Y145796D01*
X44704Y185420D02*
X31496Y185420D01*
X107696Y185420D02*
X120904Y185420D01*
D12*
X38100Y213360D03*
D13*
X38100Y238760D03*
D14*
X38100Y160020D03*
X114300Y160020D03*
X38100Y114300D03*
X114300Y114300D03*
X38100Y137160D03*
X114300Y137160D03*
D10*
X480060Y144780D02*
X495300Y144780D01*
X495300Y170180D02*
X480060Y170180D01*
X480060Y195580D02*
X495300Y195580D01*
D11*
X274320Y209296D02*
X274320Y222504D01*
X325120Y222504D02*
X325120Y209296D01*
X299720Y209296D02*
X299720Y222504D01*
X161544Y185420D02*
X148336Y185420D01*
X224536Y185420D02*
X237744Y185420D01*
D12*
X154940Y213360D03*
D13*
X154940Y238760D03*
D14*
X154940Y160020D03*
X231140Y160020D03*
X154940Y111760D03*
X231140Y111760D03*
X154940Y137160D03*
X231140Y137160D03*
D10*
X568960Y144780D02*
X584200Y144780D01*
X584200Y170180D02*
X568960Y170180D01*
X568960Y195580D02*
X584200Y195580D01*
D11*
X274320Y272796D02*
X274320Y286004D01*
X325120Y286004D02*
X325120Y272796D01*
X299720Y272796D02*
X299720Y286004D01*
X44704Y347980D02*
X31496Y347980D01*
X107696Y347980D02*
X120904Y347980D01*
D12*
X38100Y373380D03*
D13*
X38100Y398780D03*
D14*
X38100Y325120D03*
X114300Y325120D03*
X38100Y279400D03*
X114300Y279400D03*
X38100Y302260D03*
X114300Y302260D03*
D10*
X657860Y144780D02*
X673100Y144780D01*
X673100Y170180D02*
X657860Y170180D01*
X657860Y195580D02*
X673100Y195580D01*
D11*
X456184Y251460D02*
X442976Y251460D01*
X442976Y302260D02*
X456184Y302260D01*
X456184Y276860D02*
X442976Y276860D01*
X164084Y347980D02*
X150876Y347980D01*
X227076Y347980D02*
X240284Y347980D01*
D12*
X157480Y378460D03*
D13*
X157480Y403860D03*
D14*
X157480Y302260D03*
X233680Y302260D03*
X157480Y279400D03*
X233680Y279400D03*
X157480Y325120D03*
X233680Y325120D03*
D10*
X746760Y144780D02*
X762000Y144780D01*
X762000Y170180D02*
X746760Y170180D01*
X746760Y195580D02*
X762000Y195580D01*
D11*
X519684Y251460D02*
X506476Y251460D01*
X506476Y302260D02*
X519684Y302260D01*
X519684Y276860D02*
X506476Y276860D01*
X433324Y386080D02*
X420116Y386080D01*
X357124Y386080D02*
X343916Y386080D01*
D12*
X426720Y360680D03*
D15*
X426720Y335280D03*
D16*
X426720Y408940D03*
X350520Y408940D03*
X426720Y457200D03*
X350520Y457200D03*
X426720Y434340D03*
X350520Y434340D03*
D10*
X835660Y144780D02*
X850900Y144780D01*
X850900Y170180D02*
X835660Y170180D01*
X835660Y195580D02*
X850900Y195580D01*
D11*
X585724Y251460D02*
X572516Y251460D01*
X572516Y302260D02*
X585724Y302260D01*
X585724Y276860D02*
X572516Y276860D01*
X316484Y383540D02*
X303276Y383540D01*
X240284Y383540D02*
X227076Y383540D01*
D12*
X309880Y358140D03*
D15*
X309880Y332740D03*
D16*
X309880Y406400D03*
X233680Y406400D03*
D14*
X233680Y452120D03*
X309880Y452120D03*
D16*
X309880Y429260D03*
X233680Y429260D03*
D10*
X929640Y142240D02*
X944880Y142240D01*
X944880Y167640D02*
X929640Y167640D01*
X929640Y193040D02*
X944880Y193040D01*
D11*
X392684Y251460D02*
X379476Y251460D01*
X379476Y302260D02*
X392684Y302260D01*
X392684Y276860D02*
X379476Y276860D01*
X536956Y386080D02*
X550164Y386080D01*
X473964Y386080D02*
X460756Y386080D01*
D12*
X543560Y365760D03*
D15*
X543560Y340360D03*
D16*
X543560Y408940D03*
X467360Y408940D03*
D14*
X467360Y454660D03*
X543560Y454660D03*
D16*
X543560Y431800D03*
X467360Y431800D03*
D17*
X281340Y61000D02*
X281340Y43000D01*
X356340Y43000D02*
X356340Y61000D01*
X506060Y61140D02*
X506060Y43140D01*
X431060Y43140D02*
X431060Y61140D01*
X655920Y61140D02*
X655920Y43140D01*
X580920Y43140D02*
X580920Y61140D01*
X805780Y61140D02*
X805780Y43140D01*
X730780Y43140D02*
X730780Y61140D01*
X955640Y61140D02*
X955640Y43140D01*
X880640Y43140D02*
X880640Y61140D01*
D18*
X836360Y408640D03*
X836360Y308640D03*
X734360Y308640D03*
X734360Y408640D03*
X709360Y358640D03*
D11*
X650000Y353504D02*
X650000Y340296D01*
X650000Y416496D02*
X650000Y429704D01*
X644304Y300400D02*
X631096Y300400D01*
X631096Y249600D02*
X644304Y249600D01*
X644304Y275000D02*
X631096Y275000D01*
D17*
X928000Y427500D02*
X946000Y427500D01*
X946000Y352500D02*
X928000Y352500D01*
X928000Y277500D02*
X946000Y277500D01*
D19*
X310480Y22860D02*
X281340Y52000D01*
X310480Y22860D02*
X406400Y22860D01*
X431060Y47520D01*
X431060Y52140D01*
D20*
X625000Y275000D02*
X637700Y275000D01*
X625000Y275000D02*
X570000Y220000D01*
X370000Y220000D01*
X340000Y250000D01*
X245000Y245000D02*
X190000Y245000D01*
D21*
X340000Y250000D03*
X245000Y245000D03*
X190000Y245000D03*
D20*
X120000Y475000D02*
X120000Y485000D01*
X120000Y475000D02*
X150000Y445000D01*
X190000Y445000D01*
X120000Y485000D02*
X116840Y487680D01*
D21*
X190000Y445000D03*
D20*
X152400Y47760D02*
X152400Y38100D01*
X152400Y47760D02*
X75160Y125000D01*
X110000Y235000D02*
X110000Y265000D01*
X100000Y275000D01*
X100000Y290000D01*
X110000Y300000D01*
X114300Y302260D01*
D21*
X75160Y125000D03*
X110000Y235000D03*
D20*
X180000Y75000D02*
X180000Y40000D01*
X205000Y105000D02*
X235000Y135000D01*
X180000Y40000D02*
X177800Y38100D01*
X231140Y137160D02*
X235000Y135000D01*
D21*
X180000Y75000D03*
X205000Y105000D03*
D20*
X150000Y430000D02*
X95000Y485000D01*
X150000Y430000D02*
X230000Y430000D01*
X95000Y485000D02*
X91440Y487680D01*
X230000Y430000D02*
X233680Y429260D01*
X90000Y510000D02*
X70000Y490000D01*
X90000Y510000D02*
X120000Y510000D01*
X130000Y500000D01*
X130000Y475000D01*
X150000Y455000D01*
X215000Y455000D01*
X235000Y475000D01*
X280000Y475000D01*
X290000Y465000D01*
X320000Y465000D01*
X350000Y435000D01*
X70000Y490000D02*
X66040Y487680D01*
X350000Y435000D02*
X350520Y434340D01*
D19*
X356340Y135360D02*
X356340Y52000D01*
X356340Y135360D02*
X391160Y170180D01*
X398780Y170180D01*
X487680Y170180D01*
X576580Y170180D01*
X665480Y170180D01*
X754380Y170180D01*
X843280Y170180D01*
X934720Y170180D01*
X937260Y167640D01*
D20*
X235000Y350000D02*
X235000Y380000D01*
X235000Y350000D02*
X233680Y347980D01*
X235000Y380000D02*
X233680Y383540D01*
X330000Y365000D02*
X330000Y340000D01*
X340000Y330000D01*
X340000Y320000D01*
X330000Y310000D01*
X270000Y310000D01*
X235000Y345000D01*
X233680Y347980D01*
X110000Y200000D02*
X110000Y190000D01*
X110000Y200000D02*
X90000Y220000D01*
X90000Y325000D01*
X110000Y345000D01*
X110000Y190000D02*
X114300Y185420D01*
X110000Y345000D02*
X114300Y347980D01*
X210000Y185000D02*
X230000Y185000D01*
X210000Y185000D02*
X200000Y175000D01*
X125000Y175000D01*
X115000Y185000D01*
X230000Y185000D02*
X231140Y185420D01*
X115000Y185000D02*
X114300Y185420D01*
X115000Y380000D02*
X155000Y420000D01*
X115000Y380000D02*
X115000Y350000D01*
X230000Y385000D02*
X233680Y383540D01*
X115000Y350000D02*
X114300Y347980D01*
X235000Y220000D02*
X235000Y190000D01*
X235000Y220000D02*
X260000Y245000D01*
X320000Y245000D01*
X395000Y170000D01*
X235000Y190000D02*
X231140Y185420D01*
X395000Y170000D02*
X398780Y170180D01*
D21*
X330000Y365000D03*
D20*
X230000Y385000D02*
X195000Y420000D01*
X155000Y420000D01*
X365000Y165000D02*
X305000Y105000D01*
X275000Y105000D01*
D21*
X365000Y165000D03*
X275000Y105000D03*
D20*
X275000Y155000D02*
X290000Y170000D01*
X305000Y170000D01*
X310000Y165000D01*
X310000Y140000D01*
X285000Y115000D01*
X270000Y115000D01*
X215000Y60000D01*
X215000Y25000D01*
X205000Y15000D01*
X75000Y15000D01*
X25000Y65000D01*
X25000Y150000D01*
X35000Y160000D01*
X274320Y152400D02*
X275000Y155000D01*
X38100Y160020D02*
X35000Y160000D01*
X40000Y190000D02*
X40000Y210000D01*
X40000Y190000D02*
X38100Y185420D01*
X40000Y210000D02*
X38100Y213360D01*
X170000Y235000D02*
X235000Y235000D01*
X170000Y235000D02*
X160000Y225000D01*
X100000Y225000D01*
D21*
X235000Y235000D03*
X100000Y225000D03*
D20*
X230000Y85000D02*
X295000Y150000D01*
X230000Y85000D02*
X140000Y85000D01*
X115000Y110000D01*
X295000Y150000D02*
X299720Y152400D01*
X114300Y114300D02*
X115000Y110000D01*
X90000Y135000D02*
X40000Y135000D01*
X90000Y135000D02*
X110000Y115000D01*
X40000Y135000D02*
X38100Y137160D01*
X110000Y115000D02*
X114300Y114300D01*
X250000Y165000D02*
X280000Y195000D01*
X250000Y165000D02*
X235000Y165000D01*
X231140Y160020D01*
D21*
X280000Y195000D03*
D20*
X270000Y200000D02*
X270000Y215000D01*
X270000Y200000D02*
X245000Y175000D01*
X210000Y175000D01*
X200000Y165000D01*
X155000Y165000D01*
X270000Y215000D02*
X274320Y215900D01*
X155000Y165000D02*
X154940Y160020D01*
X155000Y190000D02*
X155000Y210000D01*
X155000Y190000D02*
X154940Y185420D01*
X155000Y210000D02*
X154940Y213360D01*
X310000Y235000D02*
X325000Y220000D01*
X310000Y235000D02*
X265000Y235000D01*
X245000Y215000D01*
X225000Y210000D02*
X200000Y185000D01*
X155000Y185000D01*
X325120Y215900D02*
X325000Y220000D01*
X154940Y185420D02*
X155000Y185000D01*
D21*
X245000Y215000D03*
X225000Y210000D03*
D20*
X295000Y215000D02*
X295000Y195000D01*
X245000Y145000D01*
X245000Y125000D01*
X235000Y115000D01*
X295000Y215000D02*
X299720Y215900D01*
X235000Y115000D02*
X231140Y111760D01*
X195000Y95000D02*
X155000Y135000D01*
X195000Y95000D02*
X215000Y95000D01*
X230000Y110000D01*
X155000Y135000D02*
X154940Y137160D01*
X230000Y110000D02*
X231140Y111760D01*
X210000Y265000D02*
X150000Y265000D01*
X130000Y285000D01*
X130000Y310000D01*
X115000Y325000D01*
X114300Y325120D01*
D21*
X210000Y265000D03*
D20*
X250000Y275000D02*
X270000Y275000D01*
X250000Y275000D02*
X240000Y265000D01*
X225000Y265000D01*
X210000Y280000D01*
X175000Y280000D01*
X270000Y275000D02*
X274320Y279400D01*
D21*
X175000Y280000D03*
D20*
X295000Y330000D02*
X295000Y375000D01*
X270000Y400000D01*
X270000Y465000D01*
X250000Y485000D02*
X215000Y485000D01*
X195000Y465000D01*
X165000Y465000D01*
X155000Y475000D01*
X155000Y500000D01*
X135000Y520000D01*
X70000Y520000D01*
X50000Y500000D01*
X50000Y385000D01*
X40000Y375000D01*
X38100Y373380D01*
X40000Y370000D02*
X40000Y350000D01*
X38100Y347980D01*
X40000Y370000D02*
X38100Y373380D01*
D21*
X295000Y330000D03*
X270000Y465000D03*
X250000Y485000D03*
D20*
X295000Y275000D02*
X275000Y255000D01*
X135000Y255000D01*
X115000Y275000D01*
X295000Y275000D02*
X299720Y279400D01*
X115000Y275000D02*
X114300Y279400D01*
X80000Y300000D02*
X40000Y300000D01*
X38100Y302260D01*
D21*
X80000Y300000D03*
D20*
X195000Y195000D02*
X225000Y225000D01*
D21*
X195000Y195000D03*
X225000Y225000D03*
D20*
X365000Y210000D02*
X405000Y210000D01*
X365000Y210000D02*
X320000Y255000D01*
X290000Y255000D01*
X260000Y360000D02*
X260000Y445000D01*
X205000Y360000D02*
X180000Y335000D01*
D21*
X405000Y210000D03*
X290000Y255000D03*
X260000Y360000D03*
X260000Y445000D03*
X205000Y360000D03*
X180000Y335000D03*
D20*
X160000Y350000D02*
X160000Y375000D01*
X160000Y350000D02*
X157480Y347980D01*
X160000Y375000D02*
X157480Y378460D01*
X430000Y300000D02*
X445000Y300000D01*
X430000Y300000D02*
X420000Y290000D01*
X390000Y290000D01*
X330000Y325000D02*
X320000Y325000D01*
X315000Y320000D01*
X270000Y320000D01*
X255000Y335000D01*
X255000Y350000D01*
X245000Y360000D01*
X215000Y365000D02*
X210000Y370000D01*
X445000Y300000D02*
X449580Y302260D01*
D21*
X390000Y290000D03*
X330000Y325000D03*
X245000Y360000D03*
X215000Y365000D03*
D20*
X165940Y370000D02*
X157480Y378460D01*
X165940Y370000D02*
X210000Y370000D01*
X410000Y275000D02*
X445000Y275000D01*
X410000Y275000D02*
X400000Y265000D01*
X365000Y265000D01*
X340000Y290000D02*
X330000Y300000D01*
X255000Y300000D01*
X235000Y280000D01*
X445000Y275000D02*
X449580Y276860D01*
X235000Y280000D02*
X233680Y279400D01*
X185000Y325000D02*
X160000Y325000D01*
X185000Y325000D02*
X230000Y280000D01*
X160000Y325000D02*
X157480Y325120D01*
X230000Y280000D02*
X233680Y279400D01*
D21*
X365000Y265000D03*
X340000Y290000D03*
D20*
X435000Y375000D02*
X445000Y365000D01*
X435000Y375000D02*
X385000Y375000D01*
X355000Y405000D01*
X350520Y408940D01*
D21*
X445000Y365000D03*
D20*
X485000Y305000D02*
X510000Y280000D01*
X485000Y305000D02*
X485000Y345000D01*
X510000Y280000D02*
X513080Y276860D01*
D21*
X485000Y345000D03*
D20*
X775000Y200000D02*
X840000Y200000D01*
X775000Y200000D02*
X685000Y290000D01*
X615000Y290000D01*
X590000Y265000D01*
X560000Y265000D01*
X525000Y230000D01*
X375000Y230000D01*
X345000Y260000D01*
X330000Y260000D01*
X840000Y200000D02*
X843280Y195580D01*
D21*
X330000Y260000D03*
D20*
X310000Y360000D02*
X310000Y380000D01*
X309880Y383540D01*
X310000Y360000D02*
X309880Y358140D01*
X575000Y305000D02*
X575000Y445000D01*
X550000Y470000D01*
X420000Y470000D01*
X385000Y435000D01*
X385000Y390000D01*
X575000Y305000D02*
X579120Y302260D01*
D21*
X385000Y390000D03*
D20*
X560000Y275000D02*
X575000Y275000D01*
X560000Y275000D02*
X525000Y240000D01*
X375000Y240000D01*
X350000Y265000D01*
X350000Y365000D01*
X325000Y390000D01*
X325000Y410000D01*
X310000Y425000D01*
X575000Y275000D02*
X579120Y276860D01*
X310000Y425000D02*
X309880Y429260D01*
X310000Y430000D02*
X310000Y450000D01*
X309880Y452120D01*
X310000Y430000D02*
X309880Y429260D01*
X390000Y255000D02*
X430000Y255000D01*
X440000Y265000D01*
X525000Y265000D01*
X560000Y300000D01*
X390000Y255000D02*
X386080Y251460D01*
X560000Y381548D02*
X560324Y381872D01*
X560324Y392176D02*
X543560Y408940D01*
X560324Y392176D02*
X560324Y381872D01*
X560000Y381548D02*
X560000Y300000D01*
X425000Y305000D02*
X390000Y305000D01*
X425000Y305000D02*
X485000Y365000D01*
X540000Y365000D01*
X390000Y305000D02*
X386080Y302260D01*
X540000Y365000D02*
X543560Y365760D01*
X545000Y370000D02*
X545000Y385000D01*
X543560Y386080D01*
X545000Y370000D02*
X543560Y365760D01*
X385000Y280000D02*
X365000Y300000D01*
X365000Y305000D01*
X380000Y320000D01*
X430000Y320000D01*
X540000Y430000D01*
X385000Y280000D02*
X386080Y276860D01*
X540000Y430000D02*
X543560Y431800D01*
X545000Y435000D02*
X545000Y450000D01*
X543560Y454660D01*
X545000Y435000D02*
X543560Y431800D01*
D19*
X398780Y144780D02*
X491420Y52140D01*
X506060Y52140D01*
X580320Y52140D02*
X487680Y144780D01*
X580320Y52140D02*
X580920Y52140D01*
X655920Y65440D02*
X576580Y144780D01*
X655920Y65440D02*
X655920Y52140D01*
X730780Y79480D02*
X665480Y144780D01*
X730780Y79480D02*
X730780Y52140D01*
X805780Y93380D02*
X754380Y144780D01*
X805780Y93380D02*
X805780Y52140D01*
X880640Y107420D02*
X843280Y144780D01*
X880640Y107420D02*
X880640Y52140D01*
X955640Y123860D02*
X937260Y142240D01*
X955640Y123860D02*
X955640Y52140D01*
D20*
X650000Y312700D02*
X650000Y346900D01*
X650000Y312700D02*
X637700Y300400D01*
D22*
X726120Y300400D01*
X734360Y308640D01*
D23*
X855220Y427500D02*
X937000Y427500D01*
X855220Y427500D02*
X836360Y408640D01*
X930860Y358640D02*
X937000Y352500D01*
X930860Y358640D02*
X709360Y358640D01*
X836360Y308640D02*
X872500Y272500D01*
X932000Y272500D01*
X937000Y277500D01*
M02*
