G04 EAGLE Gerber RS-274X export*
G75*
%MOMM*%
%FSLAX34Y34*%
%LPD*%
%IN*%
%IPPOS*%
%AMOC8*
5,1,8,0,0,1.08239X$1,22.5*%
G01*
%ADD10C,0.254000*%


D10*
X0Y0D02*
X992380Y-2540D01*
X992380Y543460D01*
X708660Y543560D01*
X650240Y485140D01*
X289560Y485140D01*
X228700Y546000D01*
X0Y546000D01*
X0Y0D01*
X900250Y520258D02*
X900181Y519377D01*
X900042Y518504D01*
X899836Y517644D01*
X899563Y516803D01*
X899225Y515986D01*
X898823Y515199D01*
X898361Y514445D01*
X897842Y513730D01*
X897268Y513058D01*
X896642Y512433D01*
X895970Y511858D01*
X895255Y511339D01*
X894501Y510877D01*
X893714Y510476D01*
X892897Y510137D01*
X892056Y509864D01*
X891196Y509658D01*
X890323Y509519D01*
X889442Y509450D01*
X888558Y509450D01*
X887677Y509519D01*
X886804Y509658D01*
X885944Y509864D01*
X885103Y510137D01*
X884286Y510476D01*
X883499Y510877D01*
X882745Y511339D01*
X882030Y511858D01*
X881358Y512433D01*
X880733Y513058D01*
X880158Y513730D01*
X879639Y514445D01*
X879177Y515199D01*
X878776Y515986D01*
X878437Y516803D01*
X878164Y517644D01*
X877958Y518504D01*
X877819Y519377D01*
X877750Y520258D01*
X877750Y521142D01*
X877819Y522023D01*
X877958Y522896D01*
X878164Y523756D01*
X878437Y524597D01*
X878776Y525414D01*
X879177Y526201D01*
X879639Y526955D01*
X880158Y527670D01*
X880733Y528342D01*
X881358Y528968D01*
X882030Y529542D01*
X882745Y530061D01*
X883499Y530523D01*
X884286Y530925D01*
X885103Y531263D01*
X885944Y531536D01*
X886804Y531742D01*
X887677Y531881D01*
X888558Y531950D01*
X889442Y531950D01*
X890323Y531881D01*
X891196Y531742D01*
X892056Y531536D01*
X892897Y531263D01*
X893714Y530925D01*
X894501Y530523D01*
X895255Y530061D01*
X895970Y529542D01*
X896642Y528968D01*
X897268Y528342D01*
X897842Y527670D01*
X898361Y526955D01*
X898823Y526201D01*
X899225Y525414D01*
X899563Y524597D01*
X899836Y523756D01*
X900042Y522896D01*
X900181Y522023D01*
X900250Y521142D01*
X900250Y520258D01*
X901250Y139558D02*
X901181Y138677D01*
X901042Y137804D01*
X900836Y136944D01*
X900563Y136103D01*
X900225Y135286D01*
X899823Y134499D01*
X899361Y133745D01*
X898842Y133030D01*
X898268Y132358D01*
X897642Y131733D01*
X896970Y131158D01*
X896255Y130639D01*
X895501Y130177D01*
X894714Y129776D01*
X893897Y129437D01*
X893056Y129164D01*
X892196Y128958D01*
X891323Y128819D01*
X890442Y128750D01*
X889558Y128750D01*
X888677Y128819D01*
X887804Y128958D01*
X886944Y129164D01*
X886103Y129437D01*
X885286Y129776D01*
X884499Y130177D01*
X883745Y130639D01*
X883030Y131158D01*
X882358Y131733D01*
X881733Y132358D01*
X881158Y133030D01*
X880639Y133745D01*
X880177Y134499D01*
X879776Y135286D01*
X879437Y136103D01*
X879164Y136944D01*
X878958Y137804D01*
X878819Y138677D01*
X878750Y139558D01*
X878750Y140442D01*
X878819Y141323D01*
X878958Y142196D01*
X879164Y143056D01*
X879437Y143897D01*
X879776Y144714D01*
X880177Y145501D01*
X880639Y146255D01*
X881158Y146970D01*
X881733Y147642D01*
X882358Y148268D01*
X883030Y148842D01*
X883745Y149361D01*
X884499Y149823D01*
X885286Y150225D01*
X886103Y150563D01*
X886944Y150836D01*
X887804Y151042D01*
X888677Y151181D01*
X889558Y151250D01*
X890442Y151250D01*
X891323Y151181D01*
X892196Y151042D01*
X893056Y150836D01*
X893897Y150563D01*
X894714Y150225D01*
X895501Y149823D01*
X896255Y149361D01*
X896970Y148842D01*
X897642Y148268D01*
X898268Y147642D01*
X898842Y146970D01*
X899361Y146255D01*
X899823Y145501D01*
X900225Y144714D01*
X900563Y143897D01*
X900836Y143056D01*
X901042Y142196D01*
X901181Y141323D01*
X901250Y140442D01*
X901250Y139558D01*
X730070Y522798D02*
X730001Y521917D01*
X729862Y521044D01*
X729656Y520184D01*
X729383Y519343D01*
X729045Y518526D01*
X728643Y517739D01*
X728181Y516985D01*
X727662Y516270D01*
X727088Y515598D01*
X726462Y514973D01*
X725790Y514398D01*
X725075Y513879D01*
X724321Y513417D01*
X723534Y513016D01*
X722717Y512677D01*
X721876Y512404D01*
X721016Y512198D01*
X720143Y512059D01*
X719262Y511990D01*
X718378Y511990D01*
X717497Y512059D01*
X716624Y512198D01*
X715764Y512404D01*
X714923Y512677D01*
X714106Y513016D01*
X713319Y513417D01*
X712565Y513879D01*
X711850Y514398D01*
X711178Y514973D01*
X710553Y515598D01*
X709978Y516270D01*
X709459Y516985D01*
X708997Y517739D01*
X708596Y518526D01*
X708257Y519343D01*
X707984Y520184D01*
X707778Y521044D01*
X707639Y521917D01*
X707570Y522798D01*
X707570Y523682D01*
X707639Y524563D01*
X707778Y525436D01*
X707984Y526296D01*
X708257Y527137D01*
X708596Y527954D01*
X708997Y528741D01*
X709459Y529495D01*
X709978Y530210D01*
X710553Y530882D01*
X711178Y531508D01*
X711850Y532082D01*
X712565Y532601D01*
X713319Y533063D01*
X714106Y533465D01*
X714923Y533803D01*
X715764Y534076D01*
X716624Y534282D01*
X717497Y534421D01*
X718378Y534490D01*
X719262Y534490D01*
X720143Y534421D01*
X721016Y534282D01*
X721876Y534076D01*
X722717Y533803D01*
X723534Y533465D01*
X724321Y533063D01*
X725075Y532601D01*
X725790Y532082D01*
X726462Y531508D01*
X727088Y530882D01*
X727662Y530210D01*
X728181Y529495D01*
X728643Y528741D01*
X729045Y527954D01*
X729383Y527137D01*
X729656Y526296D01*
X729862Y525436D01*
X730001Y524563D01*
X730070Y523682D01*
X730070Y522798D01*
X224610Y522798D02*
X224541Y521917D01*
X224402Y521044D01*
X224196Y520184D01*
X223923Y519343D01*
X223585Y518526D01*
X223183Y517739D01*
X222721Y516985D01*
X222202Y516270D01*
X221628Y515598D01*
X221002Y514973D01*
X220330Y514398D01*
X219615Y513879D01*
X218861Y513417D01*
X218074Y513016D01*
X217257Y512677D01*
X216416Y512404D01*
X215556Y512198D01*
X214683Y512059D01*
X213802Y511990D01*
X212918Y511990D01*
X212037Y512059D01*
X211164Y512198D01*
X210304Y512404D01*
X209463Y512677D01*
X208646Y513016D01*
X207859Y513417D01*
X207105Y513879D01*
X206390Y514398D01*
X205718Y514973D01*
X205093Y515598D01*
X204518Y516270D01*
X203999Y516985D01*
X203537Y517739D01*
X203136Y518526D01*
X202797Y519343D01*
X202524Y520184D01*
X202318Y521044D01*
X202179Y521917D01*
X202110Y522798D01*
X202110Y523682D01*
X202179Y524563D01*
X202318Y525436D01*
X202524Y526296D01*
X202797Y527137D01*
X203136Y527954D01*
X203537Y528741D01*
X203999Y529495D01*
X204518Y530210D01*
X205093Y530882D01*
X205718Y531508D01*
X206390Y532082D01*
X207105Y532601D01*
X207859Y533063D01*
X208646Y533465D01*
X209463Y533803D01*
X210304Y534076D01*
X211164Y534282D01*
X212037Y534421D01*
X212918Y534490D01*
X213802Y534490D01*
X214683Y534421D01*
X215556Y534282D01*
X216416Y534076D01*
X217257Y533803D01*
X218074Y533465D01*
X218861Y533063D01*
X219615Y532601D01*
X220330Y532082D01*
X221002Y531508D01*
X221628Y530882D01*
X222202Y530210D01*
X222721Y529495D01*
X223183Y528741D01*
X223585Y527954D01*
X223923Y527137D01*
X224196Y526296D01*
X224402Y525436D01*
X224541Y524563D01*
X224610Y523682D01*
X224610Y522798D01*
X34110Y525338D02*
X34041Y524457D01*
X33902Y523584D01*
X33696Y522724D01*
X33423Y521883D01*
X33085Y521066D01*
X32683Y520279D01*
X32221Y519525D01*
X31702Y518810D01*
X31128Y518138D01*
X30502Y517513D01*
X29830Y516938D01*
X29115Y516419D01*
X28361Y515957D01*
X27574Y515556D01*
X26757Y515217D01*
X25916Y514944D01*
X25056Y514738D01*
X24183Y514599D01*
X23302Y514530D01*
X22418Y514530D01*
X21537Y514599D01*
X20664Y514738D01*
X19804Y514944D01*
X18963Y515217D01*
X18146Y515556D01*
X17359Y515957D01*
X16605Y516419D01*
X15890Y516938D01*
X15218Y517513D01*
X14593Y518138D01*
X14018Y518810D01*
X13499Y519525D01*
X13037Y520279D01*
X12636Y521066D01*
X12297Y521883D01*
X12024Y522724D01*
X11818Y523584D01*
X11679Y524457D01*
X11610Y525338D01*
X11610Y526222D01*
X11679Y527103D01*
X11818Y527976D01*
X12024Y528836D01*
X12297Y529677D01*
X12636Y530494D01*
X13037Y531281D01*
X13499Y532035D01*
X14018Y532750D01*
X14593Y533422D01*
X15218Y534048D01*
X15890Y534622D01*
X16605Y535141D01*
X17359Y535603D01*
X18146Y536005D01*
X18963Y536343D01*
X19804Y536616D01*
X20664Y536822D01*
X21537Y536961D01*
X22418Y537030D01*
X23302Y537030D01*
X24183Y536961D01*
X25056Y536822D01*
X25916Y536616D01*
X26757Y536343D01*
X27574Y536005D01*
X28361Y535603D01*
X29115Y535141D01*
X29830Y534622D01*
X30502Y534048D01*
X31128Y533422D01*
X31702Y532750D01*
X32221Y532035D01*
X32683Y531281D01*
X33085Y530494D01*
X33423Y529677D01*
X33696Y528836D01*
X33902Y527976D01*
X34041Y527103D01*
X34110Y526222D01*
X34110Y525338D01*
X92530Y80838D02*
X92461Y79957D01*
X92322Y79084D01*
X92116Y78224D01*
X91843Y77383D01*
X91505Y76566D01*
X91103Y75779D01*
X90641Y75025D01*
X90122Y74310D01*
X89548Y73638D01*
X88922Y73013D01*
X88250Y72438D01*
X87535Y71919D01*
X86781Y71457D01*
X85994Y71056D01*
X85177Y70717D01*
X84336Y70444D01*
X83476Y70238D01*
X82603Y70099D01*
X81722Y70030D01*
X80838Y70030D01*
X79957Y70099D01*
X79084Y70238D01*
X78224Y70444D01*
X77383Y70717D01*
X76566Y71056D01*
X75779Y71457D01*
X75025Y71919D01*
X74310Y72438D01*
X73638Y73013D01*
X73013Y73638D01*
X72438Y74310D01*
X71919Y75025D01*
X71457Y75779D01*
X71056Y76566D01*
X70717Y77383D01*
X70444Y78224D01*
X70238Y79084D01*
X70099Y79957D01*
X70030Y80838D01*
X70030Y81722D01*
X70099Y82603D01*
X70238Y83476D01*
X70444Y84336D01*
X70717Y85177D01*
X71056Y85994D01*
X71457Y86781D01*
X71919Y87535D01*
X72438Y88250D01*
X73013Y88922D01*
X73638Y89548D01*
X74310Y90122D01*
X75025Y90641D01*
X75779Y91103D01*
X76566Y91505D01*
X77383Y91843D01*
X78224Y92116D01*
X79084Y92322D01*
X79957Y92461D01*
X80838Y92530D01*
X81722Y92530D01*
X82603Y92461D01*
X83476Y92322D01*
X84336Y92116D01*
X85177Y91843D01*
X85994Y91505D01*
X86781Y91103D01*
X87535Y90641D01*
X88250Y90122D01*
X88922Y89548D01*
X89548Y88922D01*
X90122Y88250D01*
X90641Y87535D01*
X91103Y86781D01*
X91505Y85994D01*
X91843Y85177D01*
X92116Y84336D01*
X92322Y83476D01*
X92461Y82603D01*
X92530Y81722D01*
X92530Y80838D01*
M02*
