G04 EAGLE Gerber RS-274X export*
G75*
%MOMM*%
%FSLAX34Y34*%
%LPD*%
%INSilkscreen Top*%
%IPPOS*%
%AMOC8*
5,1,8,0,0,1.08239X$1,22.5*%
G01*
%ADD10C,0.076200*%


D10*
X906956Y91488D02*
X906956Y85758D01*
X906954Y85680D01*
X906949Y85602D01*
X906939Y85525D01*
X906926Y85448D01*
X906910Y85372D01*
X906890Y85297D01*
X906866Y85223D01*
X906839Y85150D01*
X906808Y85078D01*
X906774Y85008D01*
X906737Y84940D01*
X906696Y84873D01*
X906652Y84808D01*
X906606Y84746D01*
X906556Y84686D01*
X906504Y84628D01*
X906449Y84573D01*
X906391Y84521D01*
X906331Y84471D01*
X906269Y84425D01*
X906204Y84381D01*
X906138Y84340D01*
X906069Y84303D01*
X905999Y84269D01*
X905927Y84238D01*
X905854Y84211D01*
X905780Y84187D01*
X905705Y84167D01*
X905629Y84151D01*
X905552Y84138D01*
X905475Y84128D01*
X905397Y84123D01*
X905319Y84121D01*
X905319Y84122D02*
X904501Y84122D01*
X910650Y84122D02*
X910650Y91488D01*
X910650Y84122D02*
X913924Y84122D01*
X918344Y84122D02*
X919981Y84122D01*
X918344Y84121D02*
X918266Y84123D01*
X918188Y84128D01*
X918111Y84138D01*
X918034Y84151D01*
X917958Y84167D01*
X917883Y84187D01*
X917809Y84211D01*
X917736Y84238D01*
X917664Y84269D01*
X917594Y84303D01*
X917526Y84340D01*
X917459Y84381D01*
X917394Y84425D01*
X917332Y84471D01*
X917272Y84521D01*
X917214Y84573D01*
X917159Y84628D01*
X917107Y84686D01*
X917057Y84746D01*
X917011Y84808D01*
X916967Y84873D01*
X916926Y84940D01*
X916889Y85008D01*
X916855Y85078D01*
X916824Y85150D01*
X916797Y85223D01*
X916773Y85297D01*
X916753Y85372D01*
X916737Y85448D01*
X916724Y85525D01*
X916714Y85602D01*
X916709Y85680D01*
X916707Y85758D01*
X916708Y85758D02*
X916708Y89851D01*
X916707Y89851D02*
X916709Y89931D01*
X916715Y90011D01*
X916725Y90091D01*
X916738Y90170D01*
X916756Y90249D01*
X916777Y90326D01*
X916803Y90402D01*
X916832Y90477D01*
X916864Y90551D01*
X916900Y90623D01*
X916940Y90693D01*
X916983Y90760D01*
X917029Y90826D01*
X917079Y90889D01*
X917131Y90950D01*
X917186Y91009D01*
X917245Y91064D01*
X917305Y91116D01*
X917369Y91166D01*
X917435Y91212D01*
X917502Y91255D01*
X917572Y91295D01*
X917644Y91331D01*
X917718Y91363D01*
X917792Y91392D01*
X917869Y91418D01*
X917946Y91439D01*
X918025Y91457D01*
X918104Y91470D01*
X918184Y91480D01*
X918264Y91486D01*
X918344Y91488D01*
X919981Y91488D01*
X924513Y91488D02*
X924513Y85758D01*
X924511Y85680D01*
X924506Y85602D01*
X924496Y85525D01*
X924483Y85448D01*
X924467Y85372D01*
X924447Y85297D01*
X924423Y85223D01*
X924396Y85150D01*
X924365Y85078D01*
X924331Y85008D01*
X924294Y84940D01*
X924253Y84873D01*
X924209Y84808D01*
X924163Y84746D01*
X924113Y84686D01*
X924061Y84628D01*
X924006Y84573D01*
X923948Y84521D01*
X923888Y84471D01*
X923826Y84425D01*
X923761Y84381D01*
X923695Y84340D01*
X923626Y84303D01*
X923556Y84269D01*
X923484Y84238D01*
X923411Y84211D01*
X923337Y84187D01*
X923262Y84167D01*
X923186Y84151D01*
X923109Y84138D01*
X923032Y84128D01*
X922954Y84123D01*
X922876Y84121D01*
X922876Y84122D02*
X922057Y84122D01*
X928207Y84122D02*
X928207Y91488D01*
X928207Y84122D02*
X931480Y84122D01*
X935901Y84122D02*
X937538Y84122D01*
X935901Y84121D02*
X935823Y84123D01*
X935745Y84128D01*
X935668Y84138D01*
X935591Y84151D01*
X935515Y84167D01*
X935440Y84187D01*
X935366Y84211D01*
X935293Y84238D01*
X935221Y84269D01*
X935151Y84303D01*
X935083Y84340D01*
X935016Y84381D01*
X934951Y84425D01*
X934889Y84471D01*
X934829Y84521D01*
X934771Y84573D01*
X934716Y84628D01*
X934664Y84686D01*
X934614Y84746D01*
X934568Y84808D01*
X934524Y84873D01*
X934483Y84940D01*
X934446Y85008D01*
X934412Y85078D01*
X934381Y85150D01*
X934354Y85223D01*
X934330Y85297D01*
X934310Y85372D01*
X934294Y85448D01*
X934281Y85525D01*
X934271Y85602D01*
X934266Y85680D01*
X934264Y85758D01*
X934264Y89851D01*
X934266Y89931D01*
X934272Y90011D01*
X934282Y90091D01*
X934295Y90170D01*
X934313Y90249D01*
X934334Y90326D01*
X934360Y90402D01*
X934389Y90477D01*
X934421Y90551D01*
X934457Y90623D01*
X934497Y90693D01*
X934540Y90760D01*
X934586Y90826D01*
X934636Y90889D01*
X934688Y90950D01*
X934743Y91009D01*
X934802Y91064D01*
X934862Y91116D01*
X934926Y91166D01*
X934992Y91212D01*
X935059Y91255D01*
X935129Y91295D01*
X935201Y91331D01*
X935275Y91363D01*
X935349Y91392D01*
X935426Y91418D01*
X935503Y91439D01*
X935582Y91457D01*
X935661Y91470D01*
X935741Y91480D01*
X935821Y91486D01*
X935901Y91488D01*
X937538Y91488D01*
X942069Y91488D02*
X942069Y85758D01*
X942067Y85680D01*
X942062Y85602D01*
X942052Y85525D01*
X942039Y85448D01*
X942023Y85372D01*
X942003Y85297D01*
X941979Y85223D01*
X941952Y85150D01*
X941921Y85078D01*
X941887Y85008D01*
X941850Y84940D01*
X941809Y84873D01*
X941765Y84808D01*
X941719Y84746D01*
X941669Y84686D01*
X941617Y84628D01*
X941562Y84573D01*
X941504Y84521D01*
X941444Y84471D01*
X941382Y84425D01*
X941317Y84381D01*
X941251Y84340D01*
X941182Y84303D01*
X941112Y84269D01*
X941040Y84238D01*
X940967Y84211D01*
X940893Y84187D01*
X940818Y84167D01*
X940742Y84151D01*
X940665Y84138D01*
X940588Y84128D01*
X940510Y84123D01*
X940432Y84121D01*
X940432Y84122D02*
X939614Y84122D01*
X945763Y84122D02*
X945763Y91488D01*
X945763Y84122D02*
X949037Y84122D01*
X953457Y84122D02*
X955094Y84122D01*
X953457Y84121D02*
X953379Y84123D01*
X953301Y84128D01*
X953224Y84138D01*
X953147Y84151D01*
X953071Y84167D01*
X952996Y84187D01*
X952922Y84211D01*
X952849Y84238D01*
X952777Y84269D01*
X952707Y84303D01*
X952639Y84340D01*
X952572Y84381D01*
X952507Y84425D01*
X952445Y84471D01*
X952385Y84521D01*
X952327Y84573D01*
X952272Y84628D01*
X952220Y84686D01*
X952170Y84746D01*
X952124Y84808D01*
X952080Y84873D01*
X952039Y84940D01*
X952002Y85008D01*
X951968Y85078D01*
X951937Y85150D01*
X951910Y85223D01*
X951886Y85297D01*
X951866Y85372D01*
X951850Y85448D01*
X951837Y85525D01*
X951827Y85602D01*
X951822Y85680D01*
X951820Y85758D01*
X951820Y89851D01*
X951822Y89931D01*
X951828Y90011D01*
X951838Y90091D01*
X951851Y90170D01*
X951869Y90249D01*
X951890Y90326D01*
X951916Y90402D01*
X951945Y90477D01*
X951977Y90551D01*
X952013Y90623D01*
X952053Y90693D01*
X952096Y90760D01*
X952142Y90826D01*
X952192Y90889D01*
X952244Y90950D01*
X952299Y91009D01*
X952358Y91064D01*
X952418Y91116D01*
X952482Y91166D01*
X952548Y91212D01*
X952615Y91255D01*
X952685Y91295D01*
X952757Y91331D01*
X952831Y91363D01*
X952905Y91392D01*
X952982Y91418D01*
X953059Y91439D01*
X953138Y91457D01*
X953217Y91470D01*
X953297Y91480D01*
X953377Y91486D01*
X953457Y91488D01*
X955094Y91488D01*
X959625Y91488D02*
X959625Y85758D01*
X959626Y85758D02*
X959624Y85680D01*
X959619Y85602D01*
X959609Y85525D01*
X959596Y85448D01*
X959580Y85372D01*
X959560Y85297D01*
X959536Y85223D01*
X959509Y85150D01*
X959478Y85078D01*
X959444Y85008D01*
X959407Y84940D01*
X959366Y84873D01*
X959322Y84808D01*
X959276Y84746D01*
X959226Y84686D01*
X959174Y84628D01*
X959119Y84573D01*
X959061Y84521D01*
X959001Y84471D01*
X958939Y84425D01*
X958874Y84381D01*
X958808Y84340D01*
X958739Y84303D01*
X958669Y84269D01*
X958597Y84238D01*
X958524Y84211D01*
X958450Y84187D01*
X958375Y84167D01*
X958299Y84151D01*
X958222Y84138D01*
X958145Y84128D01*
X958067Y84123D01*
X957989Y84121D01*
X957989Y84122D02*
X957170Y84122D01*
X963319Y84122D02*
X963319Y91488D01*
X963319Y84122D02*
X966593Y84122D01*
X971014Y84122D02*
X972650Y84122D01*
X971014Y84121D02*
X970936Y84123D01*
X970858Y84128D01*
X970781Y84138D01*
X970704Y84151D01*
X970628Y84167D01*
X970553Y84187D01*
X970479Y84211D01*
X970406Y84238D01*
X970334Y84269D01*
X970264Y84303D01*
X970196Y84340D01*
X970129Y84381D01*
X970064Y84425D01*
X970002Y84471D01*
X969942Y84521D01*
X969884Y84573D01*
X969829Y84628D01*
X969777Y84686D01*
X969727Y84746D01*
X969681Y84808D01*
X969637Y84873D01*
X969596Y84940D01*
X969559Y85008D01*
X969525Y85078D01*
X969494Y85150D01*
X969467Y85223D01*
X969443Y85297D01*
X969423Y85372D01*
X969407Y85448D01*
X969394Y85525D01*
X969384Y85602D01*
X969379Y85680D01*
X969377Y85758D01*
X969377Y89851D01*
X969379Y89931D01*
X969385Y90011D01*
X969395Y90091D01*
X969408Y90170D01*
X969426Y90249D01*
X969447Y90326D01*
X969473Y90402D01*
X969502Y90477D01*
X969534Y90551D01*
X969570Y90623D01*
X969610Y90693D01*
X969653Y90760D01*
X969699Y90826D01*
X969749Y90889D01*
X969801Y90950D01*
X969856Y91009D01*
X969915Y91064D01*
X969975Y91116D01*
X970039Y91166D01*
X970105Y91212D01*
X970172Y91255D01*
X970242Y91295D01*
X970314Y91331D01*
X970388Y91363D01*
X970462Y91392D01*
X970539Y91418D01*
X970616Y91439D01*
X970695Y91457D01*
X970774Y91470D01*
X970854Y91480D01*
X970934Y91486D01*
X971014Y91488D01*
X972650Y91488D01*
M02*
